<svg width="390" height="483" viewBox="0 0 390 483" fill="none" xmlns="http://www.w3.org/2000/svg">
<path d="M34.6289 5.02344V8.34375H37.0312V10.3945H34.6289V13.8125H32.1289V5.02344H34.6289ZM23.75 5.80469V11.2539C25.8887 11.2246 28.1934 11.0293 30.6445 10.5508L30.9375 12.582C28.0078 13.168 25.293 13.3242 22.7734 13.3047H21.25V5.80469H23.75ZM34.6289 14.5352V19.4375H25.3516V20.6094H35.1367V22.6016H22.8711V17.5625H32.1094V16.4883H22.832V14.5352H34.6289ZM52.1019 5.02344V11.7227H54.0941V13.793H52.1019V22.7969H49.6019V17.2695L48.0784 19.0273C46.9359 18.1289 46.2425 16.7812 45.8323 15.2188C45.3636 16.8301 44.6019 18.2461 43.3323 19.1641C42.0921 18.2559 41.3402 16.8496 40.8909 15.2383C40.4613 16.8008 39.7679 18.1387 38.6253 19.0273L37.0628 17.2109C39.3089 15.5508 39.6409 12.4062 39.6605 9.47656V8.55859H37.7659V6.56641H43.0394V8.55859H42.0042V9.47656C42.0042 11.5664 42.18 14.0176 43.3519 15.8633C44.4945 14.0273 44.6995 11.5957 44.6995 9.47656V8.55859H43.6644V6.56641H48.6644V8.55859H47.0823V9.47656C47.0628 12.416 47.4046 15.5117 49.6019 17.1719V5.02344H52.1019ZM59.7506 6.07812C62.485 6.07812 64.6139 7.875 64.6334 10.4336C64.6139 12.582 63.1198 14.1934 61.0202 14.6523V17.0742C62.4264 17.0156 63.8229 16.8984 65.1413 16.7227L65.317 18.5586C61.6061 19.2617 57.6022 19.2617 54.5748 19.2227L54.2428 17.2109C55.5221 17.2012 56.9967 17.2012 58.5397 17.1719V14.6719C56.362 14.2324 54.8678 12.6113 54.8678 10.4336C54.8678 7.875 56.9381 6.07812 59.7506 6.07812ZM59.7506 8.1875C58.3444 8.1875 57.2897 9.00781 57.3092 10.4336C57.2897 11.8398 58.3444 12.6797 59.7506 12.6797C61.1178 12.6797 62.1725 11.8398 62.1725 10.4336C62.1725 9.00781 61.1178 8.1875 59.7506 8.1875ZM68.5788 5.02344V11.9961H71.0006V14.0859H68.5788V22.7969H66.0788V5.02344H68.5788ZM82.6263 9.04688C82.6263 12.3086 84.1106 15.5898 87.1184 16.8594L85.6536 18.8516C83.6223 17.9336 82.2161 16.166 81.4153 13.9688C80.6048 16.3613 79.1497 18.2949 76.9817 19.2812L75.4778 17.2109C78.5833 15.9023 80.0872 12.5039 80.1067 9.04688V6.39062H82.6263V9.04688ZM90.595 5.02344V22.8359H88.0755V5.02344H90.595ZM106.779 5.02344V10.0039H109.181V12.0547H106.779V17.7578H104.259V5.02344H106.779ZM101.935 6.35156C101.935 11.1562 98.9273 14.5156 93.5953 16.0195L92.5602 14.0469C96.5348 12.9336 98.7906 10.873 99.2008 8.38281H93.3414V6.35156H101.935ZM107.384 20.4922V22.4844H95.2164V16.4492H97.7359V20.4922H107.384ZM117.748 5.27734C121.83 5.27734 124.193 6.35156 124.213 8.30469C124.193 10.2773 121.83 11.3516 117.748 11.3516C113.646 11.3516 111.264 10.2773 111.264 8.30469C111.264 6.35156 113.646 5.27734 117.748 5.27734ZM117.748 7.09375C115.131 7.09375 113.861 7.52344 113.881 8.30469C113.861 9.18359 115.131 9.51562 117.748 9.51562C120.385 9.51562 121.635 9.18359 121.635 8.30469C121.635 7.52344 120.385 7.09375 117.748 7.09375ZM125.853 12.1914V14.1641H109.643V12.1914H125.853ZM123.881 15.1992V19.7305H113.978V20.8047H124.35V22.6797H111.537V17.9922H121.42V17.0156H111.518V15.1992H123.881ZM137.557 8.07031C137.557 10.375 138.788 12.6602 141.62 13.5977L140.272 15.5508C138.387 14.8574 137.088 13.5488 136.346 11.8984C135.575 13.7539 134.188 15.2188 132.128 15.9609L130.78 14.0078C133.749 13.0312 135.038 10.5898 135.038 8.05078V6.11719H137.557V8.07031ZM145.878 5.04297V18.168H143.397V10.8242H140.057V8.8125H143.397V5.04297H145.878ZM146.249 20.4922V22.4844H134.042V16.7812H136.561V20.4922H146.249ZM155.518 6.21484V8.20703H150.87V9.67188H155.343V11.5664H150.87V13.1289C152.843 13.1191 154.308 13.041 155.948 12.7578L156.202 14.75C154.112 15.1211 152.374 15.1797 149.698 15.1797H148.487V6.21484H155.518ZM163.136 5.04297V15.8828H160.772V11.3711H159.229V15.7461H156.905V5.35547H159.229V9.37891H160.772V5.04297H163.136ZM163.136 16.625V22.7969H160.655V18.6172H150.85V16.625H163.136ZM173.402 7.73828V9.71094H164.808V7.73828H167.894V5.51172H170.355V7.73828H173.402ZM169.144 10.5117C171.409 10.5117 173.03 12.2695 173.05 14.7305C173.03 17.2109 171.409 18.9688 169.144 18.9688C166.878 18.9688 165.218 17.2109 165.218 14.7305C165.218 12.2695 166.878 10.5117 169.144 10.5117ZM169.144 12.582C168.109 12.582 167.405 13.3828 167.405 14.7305C167.405 16.0781 168.109 16.8594 169.144 16.8594C170.14 16.8594 170.843 16.0781 170.863 14.7305C170.843 13.3828 170.14 12.582 169.144 12.582ZM180.198 5.02344V22.7969H177.835V14.2422H176.39V22.0352H174.066V5.375H176.39V12.25H177.835V5.02344H180.198ZM198.003 14.8281V16.8203H191.089V22.7969H188.628V16.8203H181.792V14.8281H198.003ZM196.558 5.96094V7.91406H191.382C191.626 9.65234 193.589 11.4004 197.242 11.8398L196.343 13.793C193.218 13.373 190.982 12.0352 189.917 10.1992C188.824 12.0352 186.607 13.373 183.511 13.793L182.593 11.8398C186.187 11.4004 188.169 9.65234 188.453 7.91406H183.257V5.96094H196.558ZM204.461 9.49609C204.461 12.3672 205.262 15.3359 207.683 16.8984L206.336 18.832C204.803 17.9043 203.826 16.3809 203.269 14.5547C202.625 16.5664 201.56 18.2461 199.949 19.2227L198.426 17.3867C201.062 15.7461 202.039 12.6211 202.039 9.61328V6.54688H204.461V9.49609ZM214.168 5.02344V22.7969H211.785V5.02344H214.168ZM210.437 5.27734V21.9766H208.113V13.0508H205.808V11.0195H208.113V5.27734H210.437ZM231.992 18.6758V20.7266H215.723V18.6758H219.356V14.3203C217.979 13.5 217.149 12.2402 217.149 10.668C217.149 7.79688 219.961 5.88281 223.828 5.88281C227.676 5.88281 230.508 7.79688 230.527 10.668C230.518 12.2012 229.707 13.4512 228.379 14.2812V18.6758H231.992ZM223.828 7.85547C221.289 7.85547 219.61 8.87109 219.61 10.668C219.61 12.4062 221.289 13.4805 223.828 13.4805C226.348 13.4805 228.047 12.4062 228.067 10.668C228.047 8.87109 226.348 7.85547 223.828 7.85547ZM221.817 18.6758H225.86V15.2188C225.225 15.3457 224.541 15.4141 223.828 15.4141C223.115 15.4141 222.442 15.3555 221.817 15.2188V18.6758ZM234.993 21.1758C234.075 21.1758 233.333 20.4336 233.352 19.5352C233.333 18.6367 234.075 17.9141 234.993 17.9141C235.852 17.9141 236.614 18.6367 236.614 19.5352C236.614 20.4336 235.852 21.1758 234.993 21.1758Z" fill="#27292F"/>
<rect width="390" height="330.535" transform="translate(0 48)" fill="#F1F3F9"/>
<path d="M311.406 79.1058C311.406 78.9229 311.437 78.7541 311.501 78.5994C311.571 78.4446 311.677 78.2969 311.817 78.1563L320.036 70.1171C320.275 69.885 320.563 69.7689 320.901 69.7689C321.133 69.7689 321.341 69.8252 321.523 69.9377C321.713 70.0432 321.865 70.1874 321.977 70.3703C322.09 70.5531 322.146 70.7606 322.146 70.9927C322.146 71.3233 322.016 71.6187 321.756 71.8789L314.349 79.1058L321.756 86.3326C322.016 86.5928 322.146 86.8918 322.146 87.2294C322.146 87.4544 322.09 87.6584 321.977 87.8413C321.865 88.0312 321.713 88.1789 321.523 88.2844C321.341 88.3969 321.133 88.4532 320.901 88.4532C320.563 88.4532 320.275 88.3336 320.036 88.0945L311.817 80.0553C311.677 79.9146 311.571 79.7669 311.501 79.6122C311.437 79.4574 311.406 79.2886 311.406 79.1058Z" fill="#565A64"/>
<path d="M371.375 79.1058C371.375 79.2886 371.34 79.4574 371.269 79.6122C371.199 79.7669 371.093 79.9146 370.953 80.0553L362.734 88.0945C362.502 88.3336 362.214 88.4532 361.869 88.4532C361.644 88.4532 361.437 88.3969 361.247 88.2844C361.057 88.1789 360.906 88.0312 360.793 87.8413C360.688 87.6584 360.635 87.4544 360.635 87.2294C360.635 86.8918 360.761 86.5928 361.015 86.3326L368.421 79.1058L361.015 71.8789C360.761 71.6187 360.635 71.3233 360.635 70.9927C360.635 70.7606 360.688 70.5531 360.793 70.3703C360.906 70.1874 361.057 70.0432 361.247 69.9377C361.437 69.8252 361.644 69.7689 361.869 69.7689C362.214 69.7689 362.502 69.885 362.734 70.1171L370.953 78.1563C371.093 78.2969 371.199 78.4446 371.269 78.5994C371.34 78.7541 371.375 78.9229 371.375 79.1058Z" fill="#565A64"/>
<path d="M22.801 73.3745H24.8166V81.3276C24.8166 83.5151 23.3557 84.8432 21.176 84.8432C19.1916 84.8432 17.6682 83.7651 17.676 81.687H19.7072C19.715 82.6088 20.34 83.1635 21.2541 83.1713C22.2385 83.1635 22.7932 82.5307 22.801 81.3276V73.3745ZM31.6983 81.1245V76.2026H33.6827V84.687H31.7608V83.187H31.667C31.2764 84.1323 30.3858 84.7963 29.1202 84.7963C27.4405 84.7963 26.2842 83.6401 26.2764 81.6088V76.2026H28.2764V81.2963C28.2764 82.3745 28.917 83.062 29.8858 83.062C30.7608 83.062 31.6983 82.4213 31.6983 81.1245ZM37.0488 79.7182V84.687H35.0488V76.2026H36.955V77.6401H37.0644C37.4472 76.6948 38.3144 76.0932 39.58 76.0932C41.3378 76.0932 42.4941 77.2495 42.4863 79.2807V84.687H40.5019V79.5932C40.5019 78.4526 39.8847 77.7729 38.8456 77.7807C37.7909 77.7729 37.0488 78.4838 37.0488 79.7182ZM47.618 84.8588C45.0633 84.8588 43.493 83.1557 43.493 80.4995C43.493 77.8745 45.0867 76.0932 47.5086 76.0932C49.5867 76.0932 51.3836 77.3979 51.3836 80.3745V80.9995H45.4617C45.493 82.4448 46.3445 83.3041 47.6336 83.2963C48.5086 83.3041 49.0945 82.9291 49.3523 82.4213H51.3055C50.9461 83.8901 49.5867 84.8588 47.618 84.8588ZM45.4695 79.6401H49.4773C49.4695 78.4838 48.6883 77.6401 47.5398 77.6401C46.3445 77.6401 45.5398 78.562 45.4695 79.6401ZM55.6314 84.687V83.2182L59.6314 79.3588C60.772 78.2182 61.3658 77.5463 61.3658 76.5932C61.3658 75.5385 60.5298 74.8745 59.4283 74.8745C58.2642 74.8745 57.5142 75.601 57.522 76.7495H55.5845C55.5767 74.6088 57.1861 73.2182 59.4439 73.2182C61.7564 73.2182 63.3111 74.601 63.3189 76.4995C63.3111 77.7729 62.7017 78.8041 60.4751 80.9057L58.4595 82.9057V82.9838H63.4908V84.687H55.6314ZM68.9037 84.8432C66.1772 84.8432 64.5522 82.7338 64.56 79.0307C64.5522 75.3432 66.1928 73.2182 68.9037 73.2182C71.6147 73.2182 73.2475 75.3432 73.2475 79.0307C73.2475 82.7416 71.6225 84.8432 68.9037 84.8432ZM66.6068 79.0307C66.6068 81.7495 67.4818 83.1323 68.9037 83.1401C70.3178 83.1323 71.2006 81.7495 71.2006 79.0307C71.1928 76.3354 70.3178 74.9135 68.9037 74.9057C67.4897 74.9135 66.6147 76.3354 66.6068 79.0307ZM74.4104 84.687V83.2182L78.4104 79.3588C79.5511 78.2182 80.1448 77.5463 80.1448 76.5932C80.1448 75.5385 79.3089 74.8745 78.2073 74.8745C77.0432 74.8745 76.2932 75.601 76.3011 76.7495H74.3636C74.3557 74.6088 75.9651 73.2182 78.2229 73.2182C80.5354 73.2182 82.0901 74.601 82.0979 76.4995C82.0901 77.7729 81.4807 78.8041 79.2542 80.9057L77.2386 82.9057V82.9838H82.2698V84.687H74.4104ZM83.0578 82.5776V80.9526L87.9484 73.3745H90.4796V80.9057H91.964V82.5776H90.4796V84.687H88.5421V82.5776H83.0578ZM85.1359 80.9057H88.5734V75.687H88.4484L85.1359 80.8276V80.9057Z" fill="#565A64"/>
<path d="M107.857 78.2123C107.857 78.3678 107.827 78.5113 107.767 78.6428C107.707 78.7743 107.615 78.9028 107.489 79.0284L102.117 84.3462C101.92 84.5435 101.681 84.6421 101.4 84.6421C101.107 84.6421 100.859 84.5435 100.656 84.3462C100.452 84.1429 100.351 83.8978 100.351 83.6108C100.351 83.3239 100.461 83.0698 100.683 82.8486L105.391 78.2123L100.683 73.5761C100.461 73.3549 100.351 73.1008 100.351 72.8138C100.351 72.5269 100.452 72.2848 100.656 72.0875C100.859 71.8842 101.107 71.7826 101.4 71.7826C101.681 71.7826 101.92 71.8812 102.117 72.0785L107.489 77.3963C107.734 77.6294 107.857 77.9015 107.857 78.2123Z" fill="#565A64"/>
<path d="M43.5195 120.394V134.535H40.5703V123.187H40.4922L37.25 125.218V122.621L40.7461 120.394H43.5195Z" fill="#DEE3EB"/>
<path d="M86.0098 134.535L85.9902 132.406L91.0684 127.738C92.3965 126.468 93.0996 125.687 93.0996 124.574C93.0996 123.324 92.1426 122.542 90.8535 122.542C89.5254 122.542 88.666 123.382 88.666 124.73H85.873C85.8535 121.956 87.9043 120.199 90.8926 120.199C93.9199 120.199 95.9316 121.917 95.9316 124.378C95.9316 125.98 95.1504 127.308 92.2402 129.945L90.0918 132.035V132.113H96.127V134.535H86.0098Z" fill="#DEE3EB"/>
<path d="M140.961 134.73C137.855 134.73 135.629 133.011 135.57 130.55H138.539C138.598 131.605 139.613 132.308 140.98 132.308C142.387 132.308 143.402 131.507 143.383 130.374C143.402 129.222 142.367 128.402 140.707 128.402H139.398V126.234H140.707C142.094 126.234 143.07 125.472 143.07 124.359C143.07 123.285 142.25 122.542 141 122.542C139.75 122.542 138.715 123.246 138.676 124.32H135.863C135.902 121.878 138.109 120.199 141 120.199C143.949 120.199 145.922 121.937 145.902 124.183C145.922 125.765 144.809 126.898 143.227 127.171V127.289C145.297 127.542 146.449 128.812 146.43 130.57C146.449 132.992 144.145 134.73 140.961 134.73Z" fill="#565A64"/>
<path d="M184.807 132.035V129.71L190.783 120.394H194.475V129.671H196.271V132.035H194.475V134.535H191.682V132.035H184.807ZM187.775 129.671H191.721V123.617H191.584L187.775 129.554V129.671Z" fill="#DEE3EB"/>
<path d="M240.039 134.73C237.09 134.73 234.941 132.992 234.883 130.55H237.734C237.793 131.664 238.809 132.406 240.039 132.406C241.504 132.406 242.539 131.371 242.539 129.906C242.539 128.402 241.484 127.367 240 127.347C238.945 127.347 238.203 127.738 237.773 128.539H235.117L235.879 120.394H244.59V122.796H238.301L237.91 126.371H238.027C238.555 125.667 239.609 125.179 240.859 125.179C243.457 125.179 245.391 127.113 245.391 129.828C245.391 132.679 243.223 134.73 240.039 134.73Z" fill="#565A64"/>
<path d="M290.156 134.73C287.227 134.71 284.453 132.972 284.453 127.796C284.453 123.031 286.738 120.199 290.273 120.199C293.125 120.199 295.059 121.996 295.352 124.32H292.461C292.227 123.324 291.406 122.718 290.273 122.718C288.359 122.718 287.344 124.456 287.324 127.23H287.461C288.105 125.98 289.512 125.238 291.074 125.238C293.613 125.238 295.508 127.152 295.508 129.808C295.508 132.679 293.34 134.749 290.156 134.73ZM290.137 132.406C291.582 132.406 292.656 131.312 292.656 129.886C292.656 128.48 291.621 127.367 290.176 127.367C288.73 127.367 287.637 128.499 287.617 129.886C287.637 131.273 288.691 132.406 290.137 132.406Z" fill="#DEE3EB"/>
<path d="M335.908 134.535L341.865 122.894V122.796H334.932V120.394H344.912V122.835L338.955 134.535H335.908Z" fill="#DEE3EB"/>
<path d="M40.9902 189.73C37.7676 189.73 35.4434 188.031 35.4434 185.726C35.4434 183.949 36.8105 182.503 38.5684 182.23V182.132C37.0449 181.839 35.9902 180.55 35.9902 179.007C35.9902 176.8 38.0996 175.199 40.9902 175.199C43.8809 175.199 45.9902 176.8 46.0098 179.007C45.9902 180.57 44.916 181.839 43.4316 182.132V182.23C45.1504 182.503 46.5371 183.949 46.5371 185.726C46.5371 188.031 44.2129 189.73 40.9902 189.73ZM40.9902 187.484C42.4746 187.484 43.4707 186.644 43.4707 185.433C43.4707 184.203 42.4355 183.304 40.9902 183.304C39.5449 183.304 38.4902 184.203 38.5098 185.433C38.4902 186.644 39.4863 187.484 40.9902 187.484ZM40.9902 181.234C42.2402 181.234 43.1387 180.433 43.1387 179.3C43.1387 178.206 42.2598 177.425 40.9902 177.425C39.7207 177.425 38.8613 178.187 38.8613 179.3C38.8613 180.433 39.7402 181.234 40.9902 181.234Z" fill="#DEE3EB"/>
<path d="M90.8438 175.199C93.7734 175.218 96.5469 176.956 96.5469 182.093C96.5664 186.898 94.2812 189.73 90.7266 189.73C87.875 189.73 85.9414 187.953 85.6484 185.55H88.5391C88.7734 186.585 89.5938 187.21 90.7266 187.21C92.6602 187.21 93.6758 185.492 93.6758 182.66H93.5586C92.8945 183.91 91.5078 184.652 89.9258 184.652C87.3867 184.652 85.5117 182.738 85.4922 180.101C85.4922 177.249 87.6406 175.179 90.8438 175.199ZM90.8633 177.503C89.418 177.503 88.3438 178.617 88.3633 180.023C88.3633 181.41 89.3984 182.503 90.8438 182.503C92.2695 182.503 93.3828 181.371 93.3828 180.003C93.3633 178.656 92.3086 177.503 90.8633 177.503Z" fill="#DEE3EB"/>
<path d="M137.078 175.394V189.535H134.129V178.187H134.051L130.808 180.218V177.621L134.305 175.394H137.078ZM145.528 189.73C141.992 189.73 139.844 187.093 139.844 182.464C139.844 177.835 141.992 175.199 145.528 175.199C149.063 175.199 151.211 177.855 151.211 182.464C151.211 187.113 149.063 189.73 145.528 189.73ZM145.528 187.308C147.168 187.308 148.223 185.726 148.203 182.464C148.203 179.242 147.168 177.601 145.528 177.601C143.887 177.601 142.852 179.242 142.852 182.464C142.832 185.726 143.887 187.308 145.528 187.308Z" fill="#565A64"/>
<path d="M188.492 175.394V189.535H185.543V178.187H185.465L182.222 180.218V177.621L185.719 175.394H188.492ZM197.547 175.394V189.535H194.598V178.187H194.52L191.278 180.218V177.621L194.774 175.394H197.547Z" fill="#DEE3EB"/>
<path d="M236.576 175.394V189.535H233.627V178.187H233.549L230.306 180.218V177.621L233.803 175.394H236.576ZM239.537 189.535L239.518 187.406L244.596 182.738C245.924 181.468 246.627 180.687 246.627 179.574C246.627 178.324 245.67 177.542 244.381 177.542C243.053 177.542 242.194 178.382 242.194 179.73H239.401C239.381 176.956 241.432 175.199 244.42 175.199C247.447 175.199 249.459 176.917 249.459 179.378C249.459 180.98 248.678 182.308 245.768 184.945L243.619 187.035V187.113H249.654V189.535H239.537Z" fill="#565A64"/>
<path d="M286.293 175.394V189.535H283.344V178.187H283.265L280.023 180.218V177.621L283.519 175.394H286.293ZM294.488 189.73C291.383 189.73 289.156 188.011 289.098 185.55H292.067C292.125 186.605 293.141 187.308 294.508 187.308C295.914 187.308 296.93 186.507 296.91 185.374C296.93 184.222 295.895 183.402 294.235 183.402H292.926V181.234H294.235C295.621 181.234 296.598 180.472 296.598 179.359C296.598 178.285 295.778 177.542 294.528 177.542C293.278 177.542 292.242 178.246 292.203 179.32H289.391C289.43 176.878 291.637 175.199 294.528 175.199C297.477 175.199 299.449 176.937 299.43 179.183C299.449 180.765 298.336 181.898 296.754 182.171V182.289C298.824 182.542 299.977 183.812 299.957 185.57C299.977 187.992 297.672 189.73 294.488 189.73Z" fill="#DEE3EB"/>
<path d="M336.107 175.394V189.535H333.158V178.187H333.08L329.838 180.218V177.621L333.334 175.394H336.107ZM338.834 187.035V184.71L344.811 175.394H348.502V184.671H350.299V187.035H348.502V189.535H345.709V187.035H338.834ZM341.803 184.671H345.748V178.617H345.611L341.803 184.554V184.671Z" fill="#DEE3EB"/>
<path d="M37.41 230.394V244.535H34.4608V233.187H34.3827L31.1405 235.218V232.621L34.6366 230.394H37.41ZM45.5666 244.73C42.6173 244.73 40.4689 242.992 40.4103 240.55H43.2619C43.3205 241.664 44.3361 242.406 45.5666 242.406C47.0314 242.406 48.0666 241.371 48.0666 239.906C48.0666 238.402 47.0119 237.367 45.5275 237.347C44.4728 237.347 43.7306 237.738 43.3009 238.539H40.6447L41.4064 230.394H50.1173V232.796H43.8283L43.4377 236.371H43.5548C44.0822 235.667 45.1369 235.179 46.3869 235.179C48.9845 235.179 50.9181 237.113 50.9181 239.828C50.9181 242.679 48.7502 244.73 45.5666 244.73Z" fill="#DEE3EB"/>
<path d="M87.2537 230.394V244.535H84.3045V233.187H84.2264L80.9842 235.218V232.621L84.4803 230.394H87.2537ZM95.6838 244.73C92.7541 244.71 89.9806 242.972 89.9806 237.796C89.9806 233.031 92.2658 230.199 95.8009 230.199C98.6525 230.199 100.586 231.996 100.879 234.32H97.9884C97.7541 233.324 96.9338 232.718 95.8009 232.718C93.8869 232.718 92.8713 234.456 92.8517 237.23H92.9884C93.633 235.98 95.0392 235.238 96.6017 235.238C99.1408 235.238 101.035 237.152 101.035 239.808C101.035 242.679 98.8673 244.749 95.6838 244.73ZM95.6642 242.406C97.1095 242.406 98.1838 241.312 98.1838 239.886C98.1838 238.48 97.1486 237.367 95.7033 237.367C94.258 237.367 93.1642 238.499 93.1447 239.886C93.1642 241.273 94.2189 242.406 95.6642 242.406Z" fill="#DEE3EB"/>
<path d="M137.928 230.394V244.535H134.978V233.187H134.9L131.658 235.218V232.621L135.154 230.394H137.928ZM141.436 244.535L147.393 232.894V232.796H140.459V230.394H150.44V232.835L144.483 244.535H141.436Z" fill="#565A64"/>
<path d="M186.744 230.394V244.535H183.795V233.187H183.717L180.474 235.218V232.621L183.971 230.394H186.744ZM195.018 244.73C191.795 244.73 189.471 243.031 189.471 240.726C189.471 238.949 190.838 237.503 192.596 237.23V237.132C191.072 236.839 190.018 235.55 190.018 234.007C190.018 231.8 192.127 230.199 195.018 230.199C197.908 230.199 200.018 231.8 200.037 234.007C200.018 235.57 198.944 236.839 197.459 237.132V237.23C199.178 237.503 200.565 238.949 200.565 240.726C200.565 243.031 198.24 244.73 195.018 244.73ZM195.018 242.484C196.502 242.484 197.498 241.644 197.498 240.433C197.498 239.203 196.463 238.304 195.018 238.304C193.572 238.304 192.518 239.203 192.537 240.433C192.518 241.644 193.514 242.484 195.018 242.484ZM195.018 236.234C196.268 236.234 197.166 235.433 197.166 234.3C197.166 233.206 196.287 232.425 195.018 232.425C193.748 232.425 192.889 233.187 192.889 234.3C192.889 235.433 193.768 236.234 195.018 236.234Z" fill="#DEE3EB"/>
<path d="M236.254 230.394V244.535H233.305V233.187H233.226L229.984 235.218V232.621L233.48 230.394H236.254ZM244.371 230.199C247.301 230.218 250.074 231.956 250.074 237.093C250.094 241.898 247.809 244.73 244.254 244.73C241.403 244.73 239.469 242.953 239.176 240.55H242.067C242.301 241.585 243.121 242.21 244.254 242.21C246.188 242.21 247.203 240.492 247.203 237.66H247.086C246.422 238.91 245.035 239.652 243.453 239.652C240.914 239.652 239.039 237.738 239.02 235.101C239.02 232.249 241.168 230.179 244.371 230.199ZM244.391 232.503C242.945 232.503 241.871 233.617 241.891 235.023C241.891 236.41 242.926 237.503 244.371 237.503C245.797 237.503 246.91 236.371 246.91 235.003C246.891 233.656 245.836 232.503 244.391 232.503Z" fill="#565A64"/>
<path d="M278.568 244.535L278.549 242.406L283.627 237.738C284.955 236.468 285.658 235.687 285.658 234.574C285.658 233.324 284.701 232.542 283.412 232.542C282.084 232.542 281.224 233.382 281.224 234.73H278.431C278.412 231.956 280.463 230.199 283.451 230.199C286.478 230.199 288.49 231.917 288.49 234.378C288.49 235.98 287.709 237.308 284.799 239.945L282.65 242.035V242.113H288.685V244.535H278.568ZM295.944 244.73C292.408 244.73 290.26 242.093 290.26 237.464C290.26 232.835 292.408 230.199 295.944 230.199C299.479 230.199 301.627 232.855 301.627 237.464C301.627 242.113 299.479 244.73 295.944 244.73ZM295.944 242.308C297.584 242.308 298.639 240.726 298.619 237.464C298.619 234.242 297.584 232.601 295.944 232.601C294.303 232.601 293.268 234.242 293.268 237.464C293.248 240.726 294.303 242.308 295.944 242.308Z" fill="#DEE3EB"/>
<path d="M330.482 244.535L330.463 242.406L335.541 237.738C336.869 236.468 337.572 235.687 337.572 234.574C337.572 233.324 336.615 232.542 335.326 232.542C333.998 232.542 333.139 233.382 333.139 234.73H330.346C330.326 231.956 332.377 230.199 335.365 230.199C338.392 230.199 340.404 231.917 340.404 234.378C340.404 235.98 339.623 237.308 336.713 239.945L334.564 242.035V242.113H340.599V244.535H330.482ZM348.463 230.394V244.535H345.514V233.187H345.436L342.194 235.218V232.621L345.69 230.394H348.463Z" fill="#DEE3EB"/>
<path d="M30.0662 299.535L30.0467 297.406L35.1248 292.738C36.453 291.468 37.1561 290.687 37.1561 289.574C37.1561 288.324 36.1991 287.542 34.91 287.542C33.5819 287.542 32.7225 288.382 32.7225 289.73H29.9295C29.91 286.956 31.9608 285.199 34.9491 285.199C37.9764 285.199 39.9881 286.917 39.9881 289.378C39.9881 290.98 39.2069 292.308 36.2967 294.945L34.1483 297.035V297.113H40.1834V299.535H30.0662ZM41.9533 299.535L41.9338 297.406L47.0119 292.738C48.34 291.468 49.0431 290.687 49.0431 289.574C49.0431 288.324 48.0861 287.542 46.797 287.542C45.4689 287.542 44.6095 288.382 44.6095 289.73H41.8166C41.797 286.956 43.8478 285.199 46.8361 285.199C49.8634 285.199 51.8752 286.917 51.8752 289.378C51.8752 290.98 51.0939 292.308 48.1838 294.945L46.0353 297.035V297.113H52.0705V299.535H41.9533Z" fill="#DEE3EB"/>
<path d="M79.783 299.535L79.7635 297.406L84.8416 292.738C86.1698 291.468 86.8729 290.687 86.8729 289.574C86.8729 288.324 85.9159 287.542 84.6268 287.542C83.2987 287.542 82.4393 288.382 82.4393 289.73H79.6463C79.6268 286.956 81.6776 285.199 84.6659 285.199C87.6932 285.199 89.7049 286.917 89.7049 289.378C89.7049 290.98 88.9237 292.308 86.0135 294.945L83.8651 297.035V297.113H89.9002V299.535H79.783ZM96.9045 299.73C93.799 299.73 91.5724 298.011 91.5138 295.55H94.4826C94.5412 296.605 95.5568 297.308 96.924 297.308C98.3302 297.308 99.3459 296.507 99.3263 295.374C99.3459 294.222 98.3107 293.402 96.6505 293.402H95.342V291.234H96.6505C98.0373 291.234 99.0138 290.472 99.0138 289.359C99.0138 288.285 98.1935 287.542 96.9435 287.542C95.6935 287.542 94.6584 288.246 94.6193 289.32H91.8068C91.8459 286.878 94.0529 285.199 96.9435 285.199C99.8927 285.199 101.865 286.937 101.846 289.183C101.865 290.765 100.752 291.898 99.1701 292.171V292.289C101.24 292.542 102.393 293.812 102.373 295.57C102.393 297.992 100.088 299.73 96.9045 299.73Z" fill="#DEE3EB"/>
<path d="M129.754 299.535L129.734 297.406L134.812 292.738C136.14 291.468 136.844 290.687 136.844 289.574C136.844 288.324 135.887 287.542 134.597 287.542C133.269 287.542 132.41 288.382 132.41 289.73H129.617C129.597 286.956 131.648 285.199 134.637 285.199C137.664 285.199 139.676 286.917 139.676 289.378C139.676 290.98 138.894 292.308 135.984 294.945L133.836 297.035V297.113H139.871V299.535H129.754ZM141.094 297.035V294.71L147.07 285.394H150.762V294.671H152.559V297.035H150.762V299.535H147.969V297.035H141.094ZM144.063 294.671H148.008V288.617H147.871L144.063 294.554V294.671Z" fill="#565A64"/>
<path d="M179.4 299.535L179.381 297.406L184.459 292.738C185.787 291.468 186.49 290.687 186.49 289.574C186.49 288.324 185.533 287.542 184.244 287.542C182.916 287.542 182.056 288.382 182.056 289.73H179.264C179.244 286.956 181.295 285.199 184.283 285.199C187.31 285.199 189.322 286.917 189.322 289.378C189.322 290.98 188.541 292.308 185.631 294.945L183.482 297.035V297.113H189.517V299.535H179.4ZM196.483 299.73C193.533 299.73 191.385 297.992 191.326 295.55H194.178C194.236 296.664 195.252 297.406 196.483 297.406C197.947 297.406 198.983 296.371 198.983 294.906C198.983 293.402 197.928 292.367 196.444 292.347C195.389 292.347 194.647 292.738 194.217 293.539H191.561L192.322 285.394H201.033V287.796H194.744L194.354 291.371H194.471C194.998 290.667 196.053 290.179 197.303 290.179C199.901 290.179 201.834 292.113 201.834 294.828C201.834 297.679 199.666 299.73 196.483 299.73Z" fill="#DEE3EB"/>
<circle cx="239.5" cy="292.035" r="20.5" fill="#007AFF"/>
<path d="M228.744 299.535L228.724 297.406L233.803 292.738C235.131 291.468 235.834 290.687 235.834 289.574C235.834 288.324 234.877 287.542 233.588 287.542C232.26 287.542 231.4 288.382 231.4 289.73H228.607C228.588 286.956 230.639 285.199 233.627 285.199C236.654 285.199 238.666 286.917 238.666 289.378C238.666 290.98 237.885 292.308 234.974 294.945L232.826 297.035V297.113H238.861V299.535H228.744ZM246.1 299.73C243.17 299.71 240.397 297.972 240.397 292.796C240.397 288.031 242.682 285.199 246.217 285.199C249.069 285.199 251.002 286.996 251.295 289.32H248.404C248.17 288.324 247.35 287.718 246.217 287.718C244.303 287.718 243.287 289.456 243.268 292.23H243.404C244.049 290.98 245.455 290.238 247.018 290.238C249.557 290.238 251.451 292.152 251.451 294.808C251.451 297.679 249.283 299.749 246.1 299.73ZM246.08 297.406C247.526 297.406 248.6 296.312 248.6 294.886C248.6 293.48 247.565 292.367 246.119 292.367C244.674 292.367 243.58 293.499 243.561 294.886C243.58 296.273 244.635 297.406 246.08 297.406Z" fill="white"/>
<path d="M278.734 299.535L278.715 297.406L283.793 292.738C285.121 291.468 285.824 290.687 285.824 289.574C285.824 288.324 284.867 287.542 283.578 287.542C282.25 287.542 281.39 288.382 281.39 289.73H278.597C278.578 286.956 280.629 285.199 283.617 285.199C286.644 285.199 288.656 286.917 288.656 289.378C288.656 290.98 287.875 292.308 284.965 294.945L282.816 297.035V297.113H288.851V299.535H278.734ZM295.934 299.73C292.711 299.73 290.387 298.031 290.387 295.726C290.387 293.949 291.754 292.503 293.512 292.23V292.132C291.988 291.839 290.934 290.55 290.934 289.007C290.934 286.8 293.043 285.199 295.934 285.199C298.824 285.199 300.934 286.8 300.953 289.007C300.934 290.57 299.86 291.839 298.375 292.132V292.23C300.094 292.503 301.481 293.949 301.481 295.726C301.481 298.031 299.156 299.73 295.934 299.73ZM295.934 297.484C297.418 297.484 298.414 296.644 298.414 295.433C298.414 294.203 297.379 293.304 295.934 293.304C294.488 293.304 293.434 294.203 293.453 295.433C293.434 296.644 294.43 297.484 295.934 297.484ZM295.934 291.234C297.184 291.234 298.082 290.433 298.082 289.3C298.082 288.206 297.203 287.425 295.934 287.425C294.664 287.425 293.805 288.187 293.805 289.3C293.805 290.433 294.684 291.234 295.934 291.234Z" fill="#DEE3EB"/>
<path d="M328.744 299.535L328.724 297.406L333.803 292.738C335.131 291.468 335.834 290.687 335.834 289.574C335.834 288.324 334.877 287.542 333.588 287.542C332.26 287.542 331.4 288.382 331.4 289.73H328.607C328.588 286.956 330.639 285.199 333.627 285.199C336.654 285.199 338.666 286.917 338.666 289.378C338.666 290.98 337.885 292.308 334.974 294.945L332.826 297.035V297.113H338.861V299.535H328.744ZM345.787 285.199C348.717 285.218 351.49 286.956 351.49 292.093C351.51 296.898 349.225 299.73 345.67 299.73C342.819 299.73 340.885 297.953 340.592 295.55H343.483C343.717 296.585 344.537 297.21 345.67 297.21C347.604 297.21 348.619 295.492 348.619 292.66H348.502C347.838 293.91 346.451 294.652 344.869 294.652C342.33 294.652 340.455 292.738 340.436 290.101C340.436 287.249 342.584 285.179 345.787 285.199ZM345.807 287.503C344.361 287.503 343.287 288.617 343.307 290.023C343.307 291.41 344.342 292.503 345.787 292.503C347.213 292.503 348.326 291.371 348.326 290.003C348.307 288.656 347.252 287.503 345.807 287.503Z" fill="#DEE3EB"/>
<path d="M34.5194 354.73C31.4139 354.73 29.1873 353.011 29.1287 350.55H32.0975C32.1561 351.605 33.1717 352.308 34.5389 352.308C35.9452 352.308 36.9608 351.507 36.9412 350.374C36.9608 349.222 35.9256 348.402 34.2655 348.402H32.9569V346.234H34.2655C35.6522 346.234 36.6287 345.472 36.6287 344.359C36.6287 343.285 35.8084 342.542 34.5584 342.542C33.3084 342.542 32.2733 343.246 32.2342 344.32H29.4217C29.4608 341.878 31.6678 340.199 34.5584 340.199C37.5077 340.199 39.4803 341.937 39.4608 344.183C39.4803 345.765 38.367 346.898 36.785 347.171V347.289C38.8553 347.542 40.0077 348.812 39.9881 350.57C40.0077 352.992 37.703 354.73 34.5194 354.73ZM47.2267 354.73C43.6916 354.73 41.5431 352.093 41.5431 347.464C41.5431 342.835 43.6916 340.199 47.2267 340.199C50.7619 340.199 52.9103 342.855 52.9103 347.464C52.9103 352.113 50.7619 354.73 47.2267 354.73ZM47.2267 352.308C48.8673 352.308 49.922 350.726 49.9025 347.464C49.9025 344.242 48.8673 342.601 47.2267 342.601C45.5861 342.601 44.5509 344.242 44.5509 347.464C44.5314 350.726 45.5861 352.308 47.2267 352.308Z" fill="#DEE3EB"/>
<path d="M28.6328 412.476C32.4609 412.476 35.3125 414.41 35.332 417.339C35.3125 420.015 33.0566 421.822 29.8633 422.183V425.21H36.7969V427.261H20.5273V425.21H27.3828V422.164C24.1992 421.822 21.9531 420.005 21.9531 417.339C21.9531 414.41 24.8047 412.476 28.6328 412.476ZM28.6328 414.468C26.1523 414.468 24.4141 415.562 24.4141 417.339C24.4141 419.214 26.1523 420.269 28.6328 420.269C31.1328 420.269 32.8516 419.214 32.8711 417.339C32.8516 415.562 31.1328 414.468 28.6328 414.468ZM52.8636 413.394V415.406H38.2738V413.394H44.348V411.539H46.8284V413.394H52.8636ZM53.762 423.042V425.074H46.8284V429.351H44.348V425.074H37.4925V423.042H53.762ZM45.598 416.089C49.4066 416.089 51.7113 417.164 51.7308 419.136C51.7113 421.109 49.4066 422.183 45.598 422.183C41.7503 422.183 39.4456 421.109 39.4652 419.136C39.4456 417.164 41.7503 416.089 45.598 416.089ZM45.598 417.925C43.2152 417.945 42.0433 418.316 42.0433 419.136C42.0433 419.937 43.2152 420.328 45.598 420.328C47.9417 420.328 49.1331 419.937 49.1331 419.136C49.1331 418.316 47.9417 417.945 45.598 417.925Z" fill="#27292F"/>
<rect x="20.5" y="447.035" width="53" height="35" rx="4.5" fill="#007AFF"/>
<rect x="20.5" y="447.035" width="53" height="35" rx="4.5" stroke="#007AFF"/>
<path d="M37.2928 459.22V470.535H35.5691V460.943H35.5028L32.8011 462.706V461.065L35.6133 459.22H37.2928ZM40.8473 469.131C40.2341 469.131 39.7258 468.634 39.7368 468.026C39.7258 467.419 40.2341 466.921 40.8473 466.921C41.444 466.921 41.9523 467.419 41.9523 468.026C41.9523 468.634 41.444 469.131 40.8473 469.131ZM39.7368 462.363C39.7258 461.756 40.2341 461.258 40.8473 461.258C41.444 461.258 41.9523 461.756 41.9523 462.363C41.9523 462.971 41.444 463.468 40.8473 463.468C40.2341 463.468 39.7258 462.971 39.7368 462.363ZM47.4542 470.717C44.841 470.717 43.2995 468.59 43.3051 464.883C43.3051 461.198 44.8576 459.065 47.4542 459.065C50.0565 459.065 51.6089 461.203 51.6089 464.883C51.6089 468.59 50.073 470.717 47.4542 470.717ZM45.0178 464.883C45.0123 467.706 45.9294 469.236 47.4542 469.236C48.9846 469.236 49.8962 467.706 49.8962 464.883C49.8962 462.065 48.9736 460.529 47.4542 460.529C45.9404 460.529 45.0178 462.065 45.0178 464.883ZM56.8942 470.717C54.2809 470.717 52.7395 468.59 52.745 464.883C52.745 461.198 54.2975 459.065 56.8942 459.065C59.4964 459.065 61.0489 461.203 61.0489 464.883C61.0489 468.59 59.513 470.717 56.8942 470.717ZM54.4577 464.883C54.4522 467.706 55.3693 469.236 56.8942 469.236C58.4246 469.236 59.3362 467.706 59.3362 464.883C59.3362 462.065 58.4135 460.529 56.8942 460.529C55.3804 460.529 54.4577 462.065 54.4577 464.883Z" fill="white"/>
<rect x="82" y="446.535" width="57" height="36" rx="5" fill="#F1F3F9"/>
<path d="M99.011 470.689C96.674 470.689 95.0055 469.43 94.9448 467.579H96.6851C96.7459 468.573 97.7348 469.209 98.9945 469.209C100.365 469.209 101.359 468.463 101.354 467.369C101.359 466.247 100.431 465.446 98.8066 465.446H97.8453V464.043H98.8066C100.099 464.043 101 463.325 101 462.242C101 461.203 100.227 460.507 99.0331 460.507C97.895 460.507 96.884 461.137 96.8398 462.159H95.1823C95.2376 460.319 96.9337 459.065 99.0497 459.065C101.271 459.065 102.674 460.474 102.663 462.153C102.674 463.43 101.878 464.358 100.663 464.651V464.739C102.199 464.955 103.099 465.993 103.088 467.43C103.099 469.314 101.359 470.689 99.011 470.689ZM105.66 469.131C105.047 469.131 104.538 468.634 104.549 468.026C104.538 467.419 105.047 466.921 105.66 466.921C106.257 466.921 106.765 467.419 106.765 468.026C106.765 468.634 106.257 469.131 105.66 469.131ZM104.549 462.363C104.538 461.756 105.047 461.258 105.66 461.258C106.257 461.258 106.765 461.756 106.765 462.363C106.765 462.971 106.257 463.468 105.66 463.468C105.047 463.468 104.538 462.971 104.549 462.363ZM112.267 470.717C109.653 470.717 108.112 468.59 108.118 464.883C108.118 461.198 109.67 459.065 112.267 459.065C114.869 459.065 116.421 461.203 116.421 464.883C116.421 468.59 114.886 470.717 112.267 470.717ZM109.83 464.883C109.825 467.706 110.742 469.236 112.267 469.236C113.797 469.236 114.709 467.706 114.709 464.883C114.709 462.065 113.786 460.529 112.267 460.529C110.753 460.529 109.83 462.065 109.83 464.883ZM121.707 470.717C119.093 470.717 117.552 468.59 117.558 464.883C117.558 461.198 119.11 459.065 121.707 459.065C124.309 459.065 125.861 461.203 125.861 464.883C125.861 468.59 124.325 470.717 121.707 470.717ZM119.27 464.883C119.265 467.706 120.182 469.236 121.707 469.236C123.237 469.236 124.149 467.706 124.149 464.883C124.149 462.065 123.226 460.529 121.707 460.529C120.193 460.529 119.27 462.065 119.27 464.883Z" fill="#A3A6AC"/>
<rect x="147" y="446.535" width="57" height="36" rx="5" fill="#F1F3F9"/>
<path d="M159.757 468.325V466.938L164.751 459.22H166.884V466.872H168.42V468.325H166.884V470.535H165.243V468.325H159.757ZM161.558 466.872H165.254V461.264H165.133L161.558 466.783V466.872ZM170.832 469.131C170.218 469.131 169.71 468.634 169.721 468.026C169.71 467.419 170.218 466.921 170.832 466.921C171.428 466.921 171.937 467.419 171.937 468.026C171.937 468.634 171.428 469.131 170.832 469.131ZM169.721 462.363C169.71 461.756 170.218 461.258 170.832 461.258C171.428 461.258 171.937 461.756 171.937 462.363C171.937 462.971 171.428 463.468 170.832 463.468C170.218 463.468 169.71 462.971 169.721 462.363ZM177.439 470.717C174.825 470.717 173.284 468.59 173.289 464.883C173.289 461.198 174.842 459.065 177.439 459.065C180.041 459.065 181.593 461.203 181.593 464.883C181.593 468.59 180.057 470.717 177.439 470.717ZM175.002 464.883C174.997 467.706 175.914 469.236 177.439 469.236C178.969 469.236 179.881 467.706 179.881 464.883C179.881 462.065 178.958 460.529 177.439 460.529C175.925 460.529 175.002 462.065 175.002 464.883ZM186.879 470.717C184.265 470.717 182.724 468.59 182.729 464.883C182.729 461.198 184.282 459.065 186.879 459.065C189.481 459.065 191.033 461.203 191.033 464.883C191.033 468.59 189.497 470.717 186.879 470.717ZM184.442 464.883C184.437 467.706 185.354 469.236 186.879 469.236C188.409 469.236 189.321 467.706 189.321 464.883C189.321 462.065 188.398 460.529 186.879 460.529C185.365 460.529 184.442 462.065 184.442 464.883Z" fill="#A3A6AC"/>
<rect x="212" y="446.535" width="57" height="36" rx="5" fill="#F1F3F9"/>
<path d="M228.851 470.689C226.702 470.689 225.094 469.385 225.022 467.579H226.696C226.779 468.546 227.702 469.247 228.851 469.247C230.221 469.247 231.204 468.258 231.204 466.91C231.204 465.535 230.188 464.535 228.773 464.524C227.856 464.518 227.166 464.822 226.773 465.518H225.155L225.895 459.22H232.304V460.695H227.32L226.934 463.855H227.044C227.519 463.413 228.309 463.104 229.171 463.104C231.304 463.104 232.878 464.678 232.873 466.872C232.878 469.093 231.199 470.689 228.851 470.689ZM235.379 469.131C234.765 469.131 234.257 468.634 234.268 468.026C234.257 467.419 234.765 466.921 235.379 466.921C235.975 466.921 236.484 467.419 236.484 468.026C236.484 468.634 235.975 469.131 235.379 469.131ZM234.268 462.363C234.257 461.756 234.765 461.258 235.379 461.258C235.975 461.258 236.484 461.756 236.484 462.363C236.484 462.971 235.975 463.468 235.379 463.468C234.765 463.468 234.257 462.971 234.268 462.363ZM241.985 470.717C239.372 470.717 237.831 468.59 237.836 464.883C237.836 461.198 239.389 459.065 241.985 459.065C244.588 459.065 246.14 461.203 246.14 464.883C246.14 468.59 244.604 470.717 241.985 470.717ZM239.549 464.883C239.544 467.706 240.461 469.236 241.985 469.236C243.516 469.236 244.427 467.706 244.427 464.883C244.427 462.065 243.505 460.529 241.985 460.529C240.472 460.529 239.549 462.065 239.549 464.883ZM251.425 470.717C248.812 470.717 247.271 468.59 247.276 464.883C247.276 461.198 248.829 459.065 251.425 459.065C254.028 459.065 255.58 461.203 255.58 464.883C255.58 468.59 254.044 470.717 251.425 470.717ZM248.989 464.883C248.983 467.706 249.901 469.236 251.425 469.236C252.956 469.236 253.867 467.706 253.867 464.883C253.867 462.065 252.945 460.529 251.425 460.529C249.912 460.529 248.989 462.065 248.989 464.883Z" fill="#A3A6AC"/>
<rect x="277" y="446.535" width="57" height="36" rx="5" fill="#F1F3F9"/>
<path d="M294.088 470.689C292 470.673 289.812 469.435 289.818 465.253C289.818 461.314 291.525 459.065 294.232 459.065C296.32 459.065 297.768 460.363 298.033 462.159H296.337C296.105 461.236 295.376 460.568 294.232 460.568C292.486 460.568 291.47 462.093 291.47 464.651H291.597C292.204 463.684 293.271 463.12 294.503 463.12C296.519 463.12 298.144 464.667 298.144 466.833C298.144 469.021 296.525 470.706 294.088 470.689ZM291.68 466.883C291.68 468.131 292.685 469.247 294.083 469.247C295.448 469.247 296.47 468.187 296.475 466.861C296.47 465.568 295.481 464.513 294.116 464.513C292.74 464.513 291.691 465.618 291.68 466.883ZM300.644 469.131C300.031 469.131 299.523 468.634 299.534 468.026C299.523 467.419 300.031 466.921 300.644 466.921C301.241 466.921 301.749 467.419 301.749 468.026C301.749 468.634 301.241 469.131 300.644 469.131ZM299.534 462.363C299.523 461.756 300.031 461.258 300.644 461.258C301.241 461.258 301.749 461.756 301.749 462.363C301.749 462.971 301.241 463.468 300.644 463.468C300.031 463.468 299.523 462.971 299.534 462.363ZM307.251 470.717C304.638 470.717 303.096 468.59 303.102 464.883C303.102 461.198 304.654 459.065 307.251 459.065C309.853 459.065 311.406 461.203 311.406 464.883C311.406 468.59 309.87 470.717 307.251 470.717ZM304.815 464.883C304.809 467.706 305.726 469.236 307.251 469.236C308.782 469.236 309.693 467.706 309.693 464.883C309.693 462.065 308.77 460.529 307.251 460.529C305.737 460.529 304.815 462.065 304.815 464.883ZM316.691 470.717C314.078 470.717 312.536 468.59 312.542 464.883C312.542 461.198 314.094 459.065 316.691 459.065C319.293 459.065 320.846 461.203 320.846 464.883C320.846 468.59 319.31 470.717 316.691 470.717ZM314.255 464.883C314.249 467.706 315.166 469.236 316.691 469.236C318.221 469.236 319.133 467.706 319.133 464.883C319.133 462.065 318.21 460.529 316.691 460.529C315.177 460.529 314.255 462.065 314.255 464.883Z" fill="#A3A6AC"/>
</svg>
