<svg width="390" height="125" viewBox="0 0 390 125" fill="none" xmlns="http://www.w3.org/2000/svg">
<rect width="390" height="125" fill="white"/>
<path d="M30.6094 19.9258V28.8945H29.3105V19.9258H30.6094ZM30.9785 30.8496V31.9023H22.5977V28.0469H23.9102V30.8496H30.9785ZM24.9082 21.8125C24.8945 23.6035 26.043 25.2441 27.9297 25.9004L27.2598 26.9395C25.8447 26.4131 24.7988 25.374 24.252 24.041C23.7119 25.4629 22.6523 26.6045 21.2168 27.1582L20.5195 26.1328C22.4473 25.4219 23.582 23.6582 23.582 21.8125V20.5957H24.9082V21.8125ZM36.5238 22.5234C36.5238 23.959 37.7132 25.3125 39.5726 25.832L38.9573 26.8438C37.5423 26.4404 36.4691 25.5654 35.9085 24.4375C35.3753 25.7021 34.3089 26.7002 32.846 27.1582L32.2308 26.1602C34.0902 25.5586 35.2386 24.0957 35.2386 22.5234V22.373H32.5726V21.334H35.2386V19.8574H36.5374V21.334H39.1898V22.373H36.5238V22.5234ZM42.4437 19.9121V27.3359H41.1448V24.4102H38.807V23.3438H41.1448V19.9121H42.4437ZM38.3421 27.6094C40.8988 27.6094 42.4847 28.4297 42.4847 29.8652C42.4847 31.3145 40.8988 32.1484 38.3421 32.1348C35.7718 32.1484 34.1859 31.3145 34.1995 29.8652C34.1859 28.4297 35.7718 27.6094 38.3421 27.6094ZM38.3421 28.6211C36.5511 28.6211 35.4847 29.0723 35.4847 29.8652C35.4847 30.6582 36.5511 31.1367 38.3421 31.1367C40.1468 31.1367 41.1995 30.6582 41.1995 29.8652C41.1995 29.0723 40.1468 28.6211 38.3421 28.6211ZM56.6513 19.9121V24.793H58.5517V25.873H56.6513V32.1484H55.3525V19.9121H56.6513ZM53.4521 21.1973C53.4384 24.7383 51.8798 27.8965 47.8466 29.8926L47.122 28.8809C50.1914 27.3496 51.8593 25.1348 52.1259 22.2773H47.7373V21.1973H53.4521ZM68.7864 23.2207V24.2734H60.3782V20.1309H61.6634V23.2207H68.7864ZM70.0716 25.5723V26.6387H58.888V25.5723H70.0716ZM64.4661 27.6367C67.1048 27.6367 68.6907 28.4434 68.6907 29.8652C68.6907 31.3008 67.1048 32.1074 64.4661 32.1074C61.8138 32.1074 60.2141 31.3008 60.2141 29.8652C60.2141 28.4434 61.8138 27.6367 64.4661 27.6367ZM64.4661 28.6484C62.593 28.6621 61.5266 29.0723 61.5266 29.8652C61.5266 30.6445 62.593 31.1094 64.4661 31.1094C66.3118 31.1094 67.3919 30.6445 67.3919 29.8652C67.3919 29.0723 66.3118 28.6621 64.4661 28.6484ZM78.2636 23.0293C78.2499 25.2715 79.6034 27.5137 81.5038 28.3613L80.7245 29.3867C79.3163 28.7168 78.2021 27.3428 77.6347 25.668C77.0605 27.459 75.9325 28.9424 74.4628 29.6602L73.6698 28.5664C75.5976 27.7051 76.9511 25.3672 76.9511 23.0293V20.9375H78.2636V23.0293ZM83.9101 19.9121V32.1895H82.6113V19.9121H83.9101ZM95.1702 19.9121V23.5352H96.9475V24.6152H95.1702V28.8125H93.8577V19.9121H95.1702ZM91.8479 20.8418C91.8479 24.0547 89.6604 26.3926 86.0784 27.4727L85.5315 26.4336C88.3957 25.5723 90.1799 23.9453 90.4397 21.9219H86.051V20.8418H91.8479ZM95.676 30.8496V31.9023H87.3909V27.8965H88.7034V30.8496H95.676Z" fill="#565A64"/>
<path d="M30.6094 43.9258V52.8945H29.3105V43.9258H30.6094ZM30.9785 54.8496V55.9023H22.5977V52.0469H23.9102V54.8496H30.9785ZM24.9082 45.8125C24.8945 47.6035 26.043 49.2441 27.9297 49.9004L27.2598 50.9395C25.8447 50.4131 24.7988 49.374 24.252 48.041C23.7119 49.4629 22.6523 50.6045 21.2168 51.1582L20.5195 50.1328C22.4473 49.4219 23.582 47.6582 23.582 45.8125V44.5957H24.9082V45.8125ZM36.5238 46.5234C36.5238 47.959 37.7132 49.3125 39.5726 49.832L38.9573 50.8438C37.5423 50.4404 36.4691 49.5654 35.9085 48.4375C35.3753 49.7021 34.3089 50.7002 32.846 51.1582L32.2308 50.1602C34.0902 49.5586 35.2386 48.0957 35.2386 46.5234V46.373H32.5726V45.334H35.2386V43.8574H36.5374V45.334H39.1898V46.373H36.5238V46.5234ZM42.4437 43.9121V51.3359H41.1448V48.4102H38.807V47.3438H41.1448V43.9121H42.4437ZM38.3421 51.6094C40.8988 51.6094 42.4847 52.4297 42.4847 53.8652C42.4847 55.3145 40.8988 56.1484 38.3421 56.1348C35.7718 56.1484 34.1859 55.3145 34.1995 53.8652C34.1859 52.4297 35.7718 51.6094 38.3421 51.6094ZM38.3421 52.6211C36.5511 52.6211 35.4847 53.0723 35.4847 53.8652C35.4847 54.6582 36.5511 55.1367 38.3421 55.1367C40.1468 55.1367 41.1995 54.6582 41.1995 53.8652C41.1995 53.0723 40.1468 52.6211 38.3421 52.6211ZM51.6064 47.0293C51.5927 49.2715 52.9463 51.5137 54.8466 52.3613L54.0673 53.3867C52.6591 52.7168 51.5449 51.3428 50.9775 49.668C50.4033 51.459 49.2754 52.9424 47.8056 53.6602L47.0127 52.5664C48.9404 51.7051 50.2939 49.3672 50.2939 47.0293V44.9375H51.6064V47.0293ZM57.2529 43.9121V56.1895H55.9541V43.9121H57.2529ZM68.513 43.9121V47.5352H70.2903V48.6152H68.513V52.8125H67.2005V43.9121H68.513ZM65.1907 44.8418C65.1907 48.0547 63.0032 50.3926 59.4212 51.4727L58.8743 50.4336C61.7386 49.5723 63.5227 47.9453 63.7825 45.9219H59.3938V44.8418H65.1907ZM69.0188 54.8496V55.9023H60.7337V51.8965H62.0462V54.8496H69.0188Z" fill="#007AFF"/>
<path d="M35.4102 85.043V98.0117H32.9102V85.043H35.4102ZM35.8789 100.492V102.484H23.4961V96.7617H26.0156V100.492H35.8789ZM27.3438 87.7383C27.3242 90.082 28.5742 92.3867 31.5039 93.3242L30.2344 95.2773C28.2324 94.6133 26.8457 93.2852 26.0547 91.5859C25.2637 93.4121 23.8379 94.877 21.7578 95.5898L20.4688 93.6172C23.457 92.6211 24.7461 90.1406 24.7461 87.7383V86.0195H27.3438V87.7383ZM47.6292 86.8789V88.832H44.0355C44.055 90.6582 45.4027 92.5137 48.2542 93.2461L47.1019 95.1602C45.0804 94.6523 43.6546 93.5293 42.8441 92.0742C42.0726 93.7344 40.6468 95.0332 38.5472 95.6289L37.3753 93.6953C40.2269 92.8848 41.5355 90.8535 41.555 88.832H37.9808V86.8789H41.555V84.9453H44.0745V86.8789H47.6292ZM52.473 85.0234V95.7656H49.9925V91.7812H47.1019V89.7891H49.9925V85.0234H52.473ZM46.3988 96.0586C50.1878 96.0781 52.512 97.2695 52.5316 99.3984C52.512 101.547 50.1878 102.797 46.3988 102.797C42.6292 102.797 40.2855 101.547 40.2855 99.3984C40.2855 97.2695 42.6292 96.0781 46.3988 96.0586ZM46.3988 97.9727C44.0355 97.9727 42.7659 98.4414 42.7659 99.3984C42.7659 100.375 44.0355 100.902 46.3988 100.902C48.8011 100.902 50.0511 100.375 50.0511 99.3984C50.0511 98.4414 48.8011 97.9727 46.3988 97.9727ZM74.1181 86.8594V88.8711H59.5283V86.8594H65.6025V85.0039H68.083V86.8594H74.1181ZM75.0166 96.5078V98.5391H68.083V102.816H65.6025V98.5391H58.747V96.5078H75.0166ZM66.8525 89.5547C70.6611 89.5547 72.9658 90.6289 72.9853 92.6016C72.9658 94.5742 70.6611 95.6484 66.8525 95.6484C63.0048 95.6484 60.7002 94.5742 60.7197 92.6016C60.7002 90.6289 63.0048 89.5547 66.8525 89.5547ZM66.8525 91.3906C64.4697 91.4102 63.2978 91.7812 63.2978 92.6016C63.2978 93.4023 64.4697 93.793 66.8525 93.793C69.1963 93.793 70.3877 93.4023 70.3877 92.6016C70.3877 91.7812 69.1963 91.4102 66.8525 91.3906ZM86.5641 88.4023C86.5641 90.5508 87.8336 92.6992 90.7242 93.6172L89.357 95.4922C87.4527 94.8672 86.1148 93.6172 85.3531 92.0352C84.5523 93.8223 83.1266 95.248 81.0367 95.9609L79.7281 93.9688C82.6969 93.0117 84.025 90.6875 84.0445 88.4023V88.3242H80.4703V86.3516H90.0992V88.3242H86.5641V88.4023ZM94.1031 85.0234V90.1992H96.5055V92.25H94.1031V98.0508H91.6031V85.0234H94.1031ZM94.7477 100.492V102.484H82.5797V96.7617H85.0602V100.492H94.7477ZM101.869 86.2734C103.461 86.2734 104.789 87.1523 105.6 88.6758H109.506V85.0234H111.967V102.836H109.506V96.1758H105.795C104.994 97.9336 103.588 98.9492 101.869 98.9492C99.1738 98.9492 97.2402 96.5078 97.2597 92.6016C97.2402 88.7344 99.1738 86.2734 101.869 86.2734ZM101.869 88.5195C100.541 88.5195 99.623 89.9648 99.6425 92.6016C99.623 95.2578 100.541 96.6836 101.869 96.6836C103.217 96.6836 104.096 95.2578 104.096 92.6016C104.096 89.9648 103.217 88.5195 101.869 88.5195ZM106.303 90.6875C106.41 91.2734 106.478 91.918 106.478 92.6016C106.478 93.1582 106.43 93.6855 106.361 94.1836H109.506V90.6875H106.303ZM125.135 89.0469C125.135 92.3086 126.62 95.5898 129.628 96.8594L128.163 98.8516C126.131 97.9336 124.725 96.166 123.924 93.9688C123.114 96.3613 121.659 98.2949 119.491 99.2812L117.987 97.2109C121.092 95.9023 122.596 92.5039 122.616 89.0469V86.3906H125.135V89.0469ZM133.104 85.0234V102.836H130.585V85.0234H133.104ZM149.288 85.0234V90.0039H151.69V92.0547H149.288V97.7578H146.768V85.0234H149.288ZM144.444 86.3516C144.444 91.1562 141.436 94.5156 136.104 96.0195L135.069 94.0469C139.044 92.9336 141.3 90.873 141.71 88.3828H135.85V86.3516H144.444ZM149.893 100.492V102.484H137.725V96.4492H140.245V100.492H149.893Z" fill="#27292F"/>
<path d="M336.233 21.1016V31H334.716V22.6055H334.661L332.296 24.1504V22.7148L334.757 21.1016H336.233ZM338.21 29.0723V27.8555L342.585 21.1016H344.445V27.8008H345.798V29.0723H344.445V31H343.023V29.0723H338.21ZM339.796 27.8008H343.023V22.8926H342.913L339.796 27.7188V27.8008ZM351.07 23.0293C351.056 25.2715 352.41 27.5137 354.31 28.3613L353.531 29.3867C352.123 28.7168 351.008 27.3428 350.441 25.668C349.867 27.459 348.739 28.9424 347.269 29.6602L346.476 28.5664C348.404 27.7051 349.757 25.3672 349.757 23.0293V20.9375H351.07V23.0293ZM356.716 19.9121V32.1895H355.418V19.9121H356.716ZM367.977 19.9121V23.5352H369.754V24.6152H367.977V28.8125H366.664V19.9121H367.977ZM364.654 20.8418C364.654 24.0547 362.467 26.3926 358.885 27.4727L358.338 26.4336C361.202 25.5723 362.986 23.9453 363.246 21.9219H358.857V20.8418H364.654ZM368.482 30.8496V31.9023H360.197V27.8965H361.51V30.8496H368.482Z" fill="#565A64"/>
<path d="M322.07 51.1875V52.4453H317.681V51.1875H322.07ZM338.99 56V54.9062L342.421 51.4473C343.501 50.3125 344.048 49.6836 344.048 48.8223C344.048 47.8516 343.255 47.2227 342.216 47.2227C341.122 47.2227 340.411 47.9199 340.411 48.9727H338.99C338.976 47.168 340.357 45.9648 342.244 45.9648C344.158 45.9648 345.47 47.168 345.484 48.7812C345.47 49.8887 344.951 50.7637 343.091 52.5957L341.081 54.6328V54.7148H345.648V56H338.99ZM351.07 48.0293C351.056 50.2715 352.41 52.5137 354.31 53.3613L353.531 54.3867C352.123 53.7168 351.008 52.3428 350.441 50.668C349.867 52.459 348.739 53.9424 347.269 54.6602L346.476 53.5664C348.404 52.7051 349.758 50.3672 349.758 48.0293V45.9375H351.07V48.0293ZM356.716 44.9121V57.1895H355.418V44.9121H356.716ZM367.977 44.9121V48.5352H369.754V49.6152H367.977V53.8125H366.664V44.9121H367.977ZM364.654 45.8418C364.654 49.0547 362.467 51.3926 358.885 52.4727L358.338 51.4336C361.202 50.5723 362.986 48.9453 363.246 46.9219H358.857V45.8418H364.654ZM368.482 55.8496V56.9023H360.197V52.8965H361.51V55.8496H368.482Z" fill="#007AFF"/>
<path d="M322.015 87.8594V102H319.065V90.6523H318.987L315.745 92.6836V90.0859L319.241 87.8594H322.015ZM324.976 102L324.956 99.8711L330.035 95.2031C331.363 93.9336 332.066 93.1523 332.066 92.0391C332.066 90.7891 331.109 90.0078 329.82 90.0078C328.492 90.0078 327.632 90.8477 327.632 92.1953H324.839C324.82 89.4219 326.87 87.6641 329.859 87.6641C332.886 87.6641 334.898 89.3828 334.898 91.8438C334.898 93.4453 334.117 94.7734 331.206 97.4102L329.058 99.5V99.5781H335.093V102H324.976ZM343.191 90.0469C343.191 93.3086 344.675 96.5898 347.683 97.8594L346.218 99.8516C344.187 98.9336 342.781 97.166 341.98 94.9688C341.17 97.3613 339.715 99.2949 337.547 100.281L336.043 98.2109C339.148 96.9023 340.652 93.5039 340.672 90.0469V87.3906H343.191V90.0469ZM351.16 86.0234V103.836H348.64V86.0234H351.16ZM367.344 86.0234V91.0039H369.746V93.0547H367.344V98.7578H364.824V86.0234H367.344ZM362.5 87.3516C362.5 92.1562 359.492 95.5156 354.16 97.0195L353.125 95.0469C357.1 93.9336 359.355 91.873 359.766 89.3828H353.906V87.3516H362.5ZM367.949 101.492V103.484H355.781V97.4492H358.301V101.492H367.949Z" fill="#27292F"/>
</svg>
