<svg width="358" height="50" viewBox="0 0 358 50" fill="none" xmlns="http://www.w3.org/2000/svg">
<rect width="358" height="50" rx="10" fill="#FEE500"/>
<path fill-rule="evenodd" clip-rule="evenodd" d="M34.8 14.9199C28.835 14.9199 24 18.6555 24 23.2627C24 26.128 25.8701 28.6539 28.7178 30.1563L27.5196 34.5333C27.4138 34.9201 27.8561 35.2283 28.1958 35.0042L33.448 31.5378C33.8912 31.5805 34.3417 31.6055 34.8 31.6055C40.7646 31.6055 45.5999 27.8701 45.5999 23.2627C45.5999 18.6555 40.7646 14.9199 34.8 14.9199Z" fill="black"/>
<path d="M128.412 19.1562C128.412 23.4219 127.241 27.0781 122.037 29.6719L121.084 28.3594C123.53 27.1484 124.983 25.7422 125.803 24.0625L121.412 24.4844L121.194 22.9844L126.334 22.6562C126.514 22 126.623 21.3047 126.678 20.5625H121.928V19.1562H128.412ZM132.131 17.7656V23.2969H134.225V24.7188H132.131V31.8594H130.397V17.7656H132.131ZM142.241 19.1562C142.241 23.4219 141.069 27.0781 135.866 29.6719L134.912 28.3594C137.358 27.1484 138.811 25.7422 139.631 24.0625L135.241 24.4844L135.022 22.9844L140.162 22.6562C140.342 22 140.451 21.3047 140.506 20.5625H135.756V19.1562H142.241ZM145.959 17.7656V23.2969H148.053V24.7188H145.959V31.8594H144.225V17.7656H145.959ZM155.147 18.5625C158.178 18.5625 160.412 20.0781 160.412 22.375C160.412 24.4922 158.592 25.9062 156.006 26.1562V28.75H161.631V30.1719H148.725V28.75H154.287V26.1562C151.717 25.9062 149.897 24.4922 149.912 22.375C149.897 20.0781 152.131 18.5625 155.147 18.5625ZM155.147 19.9688C153.084 19.9531 151.6 20.8906 151.616 22.375C151.6 23.9062 153.084 24.8125 155.147 24.8125C157.241 24.8125 158.709 23.9062 158.709 22.375C158.709 20.8906 157.241 19.9531 155.147 19.9688ZM175.459 28.8125V30.25H162.553V28.8125H168.116V26.5156H164.084V21.8906H172.209V20.1406H164.053V18.7344H173.928V23.2656H165.819V25.0938H174.256V26.5156H169.834V28.8125H175.459ZM192.366 17.7656V31.8906H190.709V17.7656H192.366ZM189.444 18.1094V31.2188H187.787V26.5H185.584V25.0781H187.787V22.9844H185.834C185.17 25.3281 183.694 27.3438 181.053 28.9062L180.037 27.6719C182.967 25.9453 184.311 23.7344 184.569 20.8906H180.787V19.4844H186.287C186.287 20.1953 186.241 20.8906 186.147 21.5625H187.787V18.1094H189.444ZM206.881 24.7031V26.1094H194.006V24.7031H199.569V22.7344H201.287V24.7031H206.881ZM201.303 18.5312C201.303 20.25 203.194 21.8125 206.147 22.1875L205.475 23.5469C203.155 23.1875 201.311 22.1406 200.412 20.6562C199.506 22.1406 197.662 23.1875 195.334 23.5469L194.709 22.1875C197.616 21.8125 199.537 20.2188 199.537 18.5312V18H201.303V18.5312ZM205.303 27.2344V31.8906H203.569V28.5938H195.428V27.2344H205.303ZM218.897 17.7656V23.3906H221.069V24.8281H218.897V31.8906H217.178V17.7656H218.897ZM216.084 19.9375V21.3281H207.756V19.9375H211.1V17.9688H212.834V19.9375H216.084ZM211.975 22.25C214.006 22.25 215.522 23.625 215.522 25.5781C215.522 27.5312 214.006 28.8906 211.975 28.8906C209.912 28.8906 208.397 27.5312 208.412 25.5781C208.397 23.625 209.912 22.25 211.975 22.25ZM211.975 23.6719C210.866 23.6719 210.069 24.4219 210.069 25.5781C210.069 26.7344 210.866 27.4688 211.975 27.4531C213.053 27.4688 213.85 26.7344 213.866 25.5781C213.85 24.4219 213.053 23.6719 211.975 23.6719ZM233.459 17.7656V31.8906H231.709V17.7656H233.459ZM229.241 19.2656C229.241 23.4688 227.616 27.0469 222.662 29.3906L221.756 28C225.451 26.2422 227.17 23.8516 227.475 20.6406H222.475V19.2656H229.241Z" fill="#27292F"/>
</svg>
