<svg width="99" height="15" viewBox="0 0 99 15" fill="none" xmlns="http://www.w3.org/2000/svg">
<path d="M0.303813 14V0.751999H3.29181V14H0.303813ZM5.33903 8.366C5.33903 5.81 6.92303 4.226 9.51503 4.226C12.107 4.226 13.691 5.81 13.691 8.366V14H10.847V8.474C10.847 7.448 10.361 6.872 9.51503 6.872C8.66903 6.872 8.18303 7.448 8.18303 8.474V14H5.33903V8.366ZM16.169 3.434C16.169 1.382 17.447 0.0859989 19.571 0.0859989H20.471V2.714H20.039C19.319 2.714 19.013 3.02 19.013 3.74V4.46H20.255V7.016H19.013V14H16.169V7.016H15.053V4.46H16.169V3.434ZM21.821 14V4.46H24.665V14H21.821ZM21.821 3.002V0.0859989H24.665V3.002H21.821ZM26.5383 8.366C26.5383 5.81 28.1223 4.226 30.7143 4.226C33.3063 4.226 34.8903 5.81 34.8903 8.366V14H32.0463V8.474C32.0463 7.448 31.5603 6.872 30.7143 6.872C29.8683 6.872 29.3823 7.448 29.3823 8.474V14H26.5383V8.366ZM36.7537 14V4.46H39.5977V14H36.7537ZM36.7537 3.002V0.0859989H39.5977V3.002H36.7537ZM46.0773 14V0.751999H49.0113L52.8813 7.268L56.6973 0.751999H59.5773V14H56.7693V5.864L53.7453 11.048H51.9453L48.8853 5.828V14H46.0773ZM66.3766 14.234C63.3346 14.234 61.3006 12.182 61.3006 9.266C61.3006 6.26 63.4606 4.226 66.2326 4.226C68.8426 4.226 71.2366 6.008 70.8406 10.004H63.9826C64.2526 11.138 65.1706 11.822 66.4306 11.822C67.4386 11.822 68.3026 11.39 69.0046 10.508L70.8406 12.038C69.7786 13.442 68.2666 14.234 66.3766 14.234ZM64.0186 8.042H68.2126C67.9966 7.07 67.2766 6.53 66.2146 6.53C65.1346 6.53 64.3246 7.124 64.0186 8.042ZM72.3996 8.366C72.3996 5.81 73.9836 4.226 76.5756 4.226C79.1676 4.226 80.7516 5.81 80.7516 8.366V14H77.9076V8.474C77.9076 7.448 77.4216 6.872 76.5756 6.872C75.7296 6.872 75.2436 7.448 75.2436 8.474V14H72.3996V8.366ZM83.2295 14L83.2475 7.016H82.1135V4.46H83.2475V2.012L86.0915 1.094V4.46H87.2435V7.016H86.0915L86.0735 14H83.2295ZM93.3243 14.27C90.4983 14.27 88.2303 12.182 88.2303 9.248C88.2303 6.314 90.4983 4.226 93.3243 4.226C96.1503 4.226 98.4183 6.314 98.4183 9.248C98.4183 12.182 96.1503 14.27 93.3243 14.27ZM91.0743 9.248C91.0743 10.67 92.0463 11.624 93.3243 11.624C94.6023 11.624 95.5743 10.67 95.5743 9.248C95.5743 7.826 94.6023 6.872 93.3243 6.872C92.0463 6.872 91.0743 7.826 91.0743 9.248Z" fill="#007AFF"/>
</svg>
