<svg width="390" height="522" viewBox="0 0 390 522" fill="none" xmlns="http://www.w3.org/2000/svg">
<path d="M26.9531 8.49219C26.9531 11 29.5078 13.7891 34.4062 14.3984L33.2344 16.8125C29.5078 16.2734 26.7773 14.5508 25.3828 12.2422C23.9766 14.5508 21.2695 16.2734 17.5781 16.8125L16.3828 14.3984C21.2344 13.7891 23.8125 11 23.8125 8.49219V7.46094H26.9531V8.49219ZM35.0859 18.4297V20.8672H26.7891V28.1562H23.8359V20.8672H15.6328V18.4297H35.0859ZM42.0081 7.74219C44.7386 7.71875 46.9066 9.27734 47.4925 11.5625H51.055V6.82812H54.0316V18.2891H51.055V13.9531H47.5159C46.9534 16.2969 44.762 17.8906 42.0081 17.8906C38.7269 17.8906 36.3128 15.7578 36.3363 12.7812C36.3128 9.85156 38.7269 7.71875 42.0081 7.74219ZM42.0081 10.2266C40.3441 10.2031 39.1488 11.1875 39.1722 12.7812C39.1488 14.375 40.3441 15.3828 42.0081 15.3828C43.6253 15.3828 44.7972 14.375 44.7972 12.7812C44.7972 11.1875 43.6253 10.2031 42.0081 10.2266ZM42.7581 19.2266V21.2891H51.055V19.2266H54.0316V27.9219H39.805V19.2266H42.7581ZM42.7581 25.5078H51.055V23.5859H42.7581V25.5078ZM78.5166 6.82812V15.0078H81.54V17.4688H78.5166V28.1094H75.5166V6.82812H78.5166ZM72.8213 9.00781C72.7978 15.3828 70.3134 20.9141 63.1416 24.4297L61.4541 22.1328C66.5048 19.6016 69.2119 16.2031 69.7744 11.4453H62.6728V9.00781H72.8213ZM99.4075 12.1719V14.5625H84.5716V7.15625H87.5481V12.1719H99.4075ZM101.611 16.3906V18.8281H82.1106V16.3906H101.611ZM91.8138 20.1641C96.4309 20.1875 99.22 21.6172 99.2434 24.125C99.22 26.6562 96.4309 28.0859 91.8138 28.0859C87.1497 28.0859 84.3372 26.6562 84.3372 24.125C84.3372 21.6172 87.1497 20.1875 91.8138 20.1641ZM91.8138 22.4844C88.8606 22.5078 87.3606 23 87.3841 24.125C87.3606 25.2266 88.8606 25.8125 91.8138 25.8125C94.6966 25.8125 96.22 25.2266 96.2434 24.125C96.22 23 94.6966 22.5078 91.8138 22.4844ZM119.455 6.85156V13.3906H122.338V15.8281H119.455V22.7656H116.455V6.85156H119.455ZM115.189 9.07812V11.4453H102.533V9.07812H107.384V6.80469H110.361V9.07812H115.189ZM108.861 12.1953C111.955 12.1953 114.111 13.8594 114.111 16.3203C114.111 18.7812 111.955 20.3984 108.861 20.3984C105.744 20.3984 103.564 18.7812 103.564 16.3203C103.564 13.8594 105.744 12.1953 108.861 12.1953ZM108.861 14.4688C107.431 14.4922 106.47 15.1484 106.494 16.3203C106.47 17.4922 107.431 18.125 108.861 18.125C110.291 18.125 111.275 17.4922 111.275 16.3203C111.275 15.1484 110.291 14.4922 108.861 14.4688ZM120.228 25.3906V27.7812H105.627V21.5469H108.603V25.3906H120.228ZM147.69 23.2109V25.6719H128.166V23.2109H132.526V17.9844C130.873 17 129.877 15.4883 129.877 13.6016C129.877 10.1562 133.252 7.85938 137.893 7.85938C142.51 7.85938 145.908 10.1562 145.932 13.6016C145.92 15.4414 144.948 16.9414 143.354 17.9375V23.2109H147.69ZM137.893 10.2266C134.846 10.2266 132.83 11.4453 132.83 13.6016C132.83 15.6875 134.846 16.9766 137.893 16.9766C140.916 16.9766 142.955 15.6875 142.979 13.6016C142.955 11.4453 140.916 10.2266 137.893 10.2266ZM135.479 23.2109H140.33V19.0625C139.569 19.2148 138.748 19.2969 137.893 19.2969C137.037 19.2969 136.229 19.2266 135.479 19.0625V23.2109ZM154.659 7.46094C157.893 7.46094 160.354 9.47656 160.354 12.3359C160.354 15.1484 157.893 17.1875 154.659 17.1875C151.354 17.1875 148.917 15.1484 148.917 12.3359C148.917 9.47656 151.354 7.46094 154.659 7.46094ZM154.659 9.89844C153.018 9.89844 151.799 10.7891 151.823 12.3359C151.799 13.8594 153.018 14.7734 154.659 14.7734C156.276 14.7734 157.471 13.8594 157.471 12.3359C157.471 10.7891 156.276 9.89844 154.659 9.89844ZM166.448 6.82812V17.5156H163.448V6.82812H166.448ZM166.448 18.4062V24.1953H155.104V25.5781H167.034V27.9219H152.174V22.0156H163.471V20.7031H152.128V18.4062H166.448ZM181.011 8.96094V10.6719C180.987 12.6875 180.987 15.3125 180.425 18.8516L177.472 18.6172C177.952 15.5234 177.999 13.2383 178.034 11.3516H169.948V8.96094H181.011ZM175.69 15.0781V21.2656C177.788 21.1836 179.921 21.0312 181.878 20.7734L182.065 23C177.682 23.75 172.831 23.8203 169.104 23.7969L168.823 21.4062C170.018 21.3945 171.354 21.3945 172.737 21.3594V15.0781H175.69ZM185.909 6.82812V15.4062H188.815V17.8906H185.909V28.1562H182.886V6.82812H185.909ZM202.941 11.6562C202.941 15.5703 204.722 19.5078 208.332 21.0312L206.574 23.4219C204.136 22.3203 202.449 20.1992 201.488 17.5625C200.515 20.4336 198.769 22.7539 196.167 23.9375L194.363 21.4531C198.089 19.8828 199.894 15.8047 199.917 11.6562V8.46875H202.941V11.6562ZM212.503 6.82812V28.2031H209.48V6.82812H212.503ZM231.988 6.82812V12.8047H234.871V15.2656H231.988V22.1094H228.965V6.82812H231.988ZM226.176 8.42188C226.176 14.1875 222.566 18.2188 216.168 20.0234L214.926 17.6562C219.695 16.3203 222.402 13.8477 222.894 10.8594H215.863V8.42188H226.176ZM232.715 25.3906V27.7812H218.113V20.5391H221.137V25.3906H232.715ZM245.215 7.13281C250.113 7.13281 252.949 8.42188 252.973 10.7656C252.949 13.1328 250.113 14.4219 245.215 14.4219C240.293 14.4219 237.434 13.1328 237.434 10.7656C237.434 8.42188 240.293 7.13281 245.215 7.13281ZM245.215 9.3125C242.074 9.3125 240.551 9.82812 240.574 10.7656C240.551 11.8203 242.074 12.2188 245.215 12.2188C248.379 12.2188 249.879 11.8203 249.879 10.7656C249.879 9.82812 248.379 9.3125 245.215 9.3125ZM254.942 15.4297V17.7969H235.488V15.4297H254.942ZM252.574 19.0391V24.4766H240.692V25.7656H253.137V28.0156H237.762V22.3906H249.621V21.2188H237.738V19.0391H252.574ZM33.4922 40.8281V52.2891H30.4922V40.8281H33.4922ZM22.1719 53.2266V55.2188H30.5156V53.2266H33.4922V61.9219H19.2188V53.2266H22.1719ZM22.1719 59.5078H30.5156V57.5391H22.1719V59.5078ZM21.7969 41.7188C25.125 41.6953 27.6328 43.7812 27.6328 46.7812C27.6328 49.6875 25.125 51.7734 21.7969 51.7734C18.4688 51.7734 15.9609 49.6875 15.9609 46.7812C15.9609 43.7812 18.4688 41.6953 21.7969 41.7188ZM21.7969 44.2031C20.0859 44.2031 18.8672 45.1641 18.8906 46.7812C18.8672 48.375 20.0859 49.3125 21.7969 49.3125C23.4609 49.3125 24.6797 48.375 24.6797 46.7812C24.6797 45.1641 23.4609 44.2031 21.7969 44.2031ZM46.2972 42.0703V48.7266H39.8519V51C43.0277 51 44.9027 50.8945 47.0706 50.4844L47.3519 52.875C44.8675 53.3203 42.6175 53.3906 38.4925 53.3906H36.8988V46.5H43.2972V44.4141H36.8519V42.0703H46.2972ZM54.0316 40.8516V53.9766H51.055V50.6953H47.5159V48.3281H51.055V46.1719H47.5159V43.8047H51.055V40.8516H54.0316ZM54.0316 54.9375V62.1562H51.055V57.3281H39.3363V54.9375H54.0316ZM66.7663 44.0859V46.4531H56.4538V44.0859H60.1569V41.4141H63.11V44.0859H66.7663ZM61.6569 47.4141C64.3756 47.4141 66.3209 49.5234 66.3444 52.4766C66.3209 55.4531 64.3756 57.5625 61.6569 57.5625C58.9381 57.5625 56.9459 55.4531 56.9459 52.4766C56.9459 49.5234 58.9381 47.4141 61.6569 47.4141ZM61.6569 49.8984C60.4147 49.8984 59.5709 50.8594 59.5709 52.4766C59.5709 54.0938 60.4147 55.0312 61.6569 55.0312C62.8522 55.0312 63.6959 54.0938 63.7194 52.4766C63.6959 50.8594 62.8522 49.8984 61.6569 49.8984ZM74.9225 40.8281V62.1562H72.0866V51.8906H70.3522V61.2422H67.5631V41.25H70.3522V49.5H72.0866V40.8281H74.9225ZM96.3525 52.5938V54.9844H88.0556V62.1562H85.1025V54.9844H76.8994V52.5938H96.3525ZM94.6181 41.9531V44.2969H88.4072C88.7002 46.3828 91.0556 48.4805 95.4384 49.0078L94.3603 51.3516C90.6103 50.8477 87.9267 49.2422 86.6494 47.0391C85.3369 49.2422 82.6767 50.8477 78.9619 51.3516L77.8603 49.0078C82.1728 48.4805 84.5517 46.3828 84.8916 44.2969H78.6572V41.9531H94.6181ZM104.165 46.1953C104.165 49.6406 105.126 53.2031 108.033 55.0781L106.415 57.3984C104.575 56.2852 103.404 54.457 102.736 52.2656C101.962 54.6797 100.685 56.6953 98.7513 57.8672L96.9231 55.6641C100.087 53.6953 101.259 49.9453 101.259 46.3359V42.6562H104.165V46.1953ZM115.814 40.8281V62.1562H112.954V40.8281H115.814ZM111.337 41.1328V61.1719H108.548V50.4609H105.783V48.0234H108.548V41.1328H111.337ZM137.267 57.2109V59.6719H117.744V57.2109H122.103V51.9844C120.451 51 119.455 49.4883 119.455 47.6016C119.455 44.1562 122.83 41.8594 127.47 41.8594C132.088 41.8594 135.486 44.1562 135.509 47.6016C135.498 49.4414 134.525 50.9414 132.931 51.9375V57.2109H137.267ZM127.47 44.2266C124.423 44.2266 122.408 45.4453 122.408 47.6016C122.408 49.6875 124.423 50.9766 127.47 50.9766C130.494 50.9766 132.533 49.6875 132.556 47.6016C132.533 45.4453 130.494 44.2266 127.47 44.2266ZM125.056 57.2109H129.908V53.0625C129.146 53.2148 128.326 53.2969 127.47 53.2969C126.615 53.2969 125.806 53.2266 125.056 53.0625V57.2109ZM140.932 60.2109C139.83 60.2109 138.939 59.3203 138.963 58.2422C138.939 57.1641 139.83 56.2969 140.932 56.2969C141.963 56.2969 142.877 57.1641 142.877 58.2422C142.877 59.3203 141.963 60.2109 140.932 60.2109Z" fill="#27292F"/>
<circle cx="19" cy="96" r="4" fill="#DEE3EB"/>
<circle cx="43" cy="96" r="4" fill="#007AFF"/>
<circle cx="67" cy="96" r="4" fill="#DEE3EB"/>
<rect width="390" height="385.535" transform="translate(0 136)" fill="#F1F3F9"/>
<path d="M311.406 167.106C311.406 166.923 311.437 166.754 311.501 166.599C311.571 166.445 311.677 166.297 311.817 166.156L320.036 158.117C320.275 157.885 320.563 157.769 320.901 157.769C321.133 157.769 321.341 157.825 321.523 157.938C321.713 158.043 321.865 158.187 321.977 158.37C322.09 158.553 322.146 158.761 322.146 158.993C322.146 159.323 322.016 159.619 321.756 159.879L314.349 167.106L321.756 174.333C322.016 174.593 322.146 174.892 322.146 175.229C322.146 175.454 322.09 175.658 321.977 175.841C321.865 176.031 321.713 176.179 321.523 176.284C321.341 176.397 321.133 176.453 320.901 176.453C320.563 176.453 320.275 176.334 320.036 176.094L311.817 168.055C311.677 167.915 311.571 167.767 311.501 167.612C311.437 167.457 311.406 167.289 311.406 167.106Z" fill="#565A64"/>
<path d="M371.375 167.106C371.375 167.289 371.34 167.457 371.269 167.612C371.199 167.767 371.094 167.915 370.953 168.055L362.734 176.094C362.502 176.334 362.214 176.453 361.869 176.453C361.644 176.453 361.437 176.397 361.247 176.284C361.057 176.179 360.906 176.031 360.793 175.841C360.688 175.658 360.635 175.454 360.635 175.229C360.635 174.892 360.761 174.593 361.015 174.333L368.421 167.106L361.015 159.879C360.761 159.619 360.635 159.323 360.635 158.993C360.635 158.761 360.688 158.553 360.793 158.37C360.906 158.187 361.057 158.043 361.247 157.938C361.437 157.825 361.644 157.769 361.869 157.769C362.214 157.769 362.502 157.885 362.734 158.117L370.953 166.156C371.094 166.297 371.199 166.445 371.269 166.599C371.34 166.754 371.375 166.923 371.375 167.106Z" fill="#565A64"/>
<path d="M22.754 161.374H25.0822V169.265C25.0822 171.468 23.5353 172.843 21.254 172.843C19.2072 172.843 17.5978 171.765 17.6134 169.531H19.9572C19.9728 170.421 20.5197 170.953 21.3634 170.953C22.254 170.953 22.754 170.374 22.754 169.265V161.374ZM32.059 169.078V164.203H34.3715V172.687H32.1528V171.156H32.059C31.6684 172.14 30.7622 172.796 29.4809 172.796C27.7778 172.796 26.6215 171.593 26.6215 169.609V164.203H28.934V169.203C28.934 170.203 29.5122 170.843 30.4184 170.843C31.2622 170.843 32.059 170.234 32.059 169.078ZM38.1609 167.781V172.687H35.8484V164.203H38.0515V165.687H38.1453C38.5359 164.703 39.4422 164.093 40.6922 164.093C42.4578 164.093 43.6297 165.296 43.614 167.281V172.687H41.3172V167.687C41.3172 166.64 40.739 166.015 39.7859 166.015C38.8172 166.015 38.1609 166.656 38.1609 167.781ZM48.9347 172.859C46.3409 172.859 44.7472 171.171 44.7472 168.484C44.7472 165.859 46.3565 164.093 48.8409 164.093C51.0753 164.093 52.8253 165.499 52.8253 168.39V169.046H47.0284C47.0284 170.328 47.794 171.124 48.9815 171.124C49.7628 171.124 50.3253 170.781 50.5597 170.265H52.7628C52.4347 171.828 51.0284 172.859 48.9347 172.859ZM47.0284 167.593H50.6378C50.6378 166.562 49.919 165.828 48.8878 165.828C47.8253 165.828 47.0675 166.617 47.0284 167.593ZM57.3103 172.687L57.2947 170.984L61.3572 167.249C62.4197 166.234 62.9822 165.609 62.9822 164.718C62.9822 163.718 62.2165 163.093 61.1853 163.093C60.1228 163.093 59.4353 163.765 59.4353 164.843H57.2009C57.1853 162.624 58.8259 161.218 61.2165 161.218C63.6384 161.218 65.2478 162.593 65.2478 164.562C65.2478 165.843 64.6228 166.906 62.2947 169.015L60.5759 170.687V170.749H65.404V172.687H57.3103ZM71.1465 172.843C68.3184 172.843 66.5997 170.734 66.5997 167.031C66.5997 163.328 68.3184 161.218 71.1465 161.218C73.9747 161.218 75.6934 163.343 75.6934 167.031C75.6934 170.749 73.9747 172.843 71.1465 172.843ZM71.1465 170.906C72.459 170.906 73.3028 169.64 73.2872 167.031C73.2872 164.453 72.459 163.14 71.1465 163.14C69.834 163.14 69.0059 164.453 69.0059 167.031C68.9903 169.64 69.834 170.906 71.1465 170.906ZM76.9984 172.687L76.9828 170.984L81.0453 167.249C82.1078 166.234 82.6703 165.609 82.6703 164.718C82.6703 163.718 81.9047 163.093 80.8734 163.093C79.8109 163.093 79.1234 163.765 79.1234 164.843H76.889C76.8734 162.624 78.514 161.218 80.9047 161.218C83.3265 161.218 84.9359 162.593 84.9359 164.562C84.9359 165.843 84.3109 166.906 81.9828 169.015L80.264 170.687V170.749H85.0922V172.687H76.9984ZM86.0065 170.687V168.828L90.7878 161.374H93.7409V168.796H95.1784V170.687H93.7409V172.687H91.5065V170.687H86.0065ZM88.3815 168.796H91.5378V163.953H91.4284L88.3815 168.703V168.796Z" fill="#565A64"/>
<path d="M110.857 166.212C110.857 166.368 110.827 166.511 110.767 166.643C110.707 166.774 110.615 166.903 110.489 167.028L105.117 172.346C104.92 172.543 104.681 172.642 104.4 172.642C104.107 172.642 103.859 172.543 103.656 172.346C103.452 172.143 103.351 171.898 103.351 171.611C103.351 171.324 103.461 171.07 103.683 170.849L108.391 166.212L103.683 161.576C103.461 161.355 103.351 161.101 103.351 160.814C103.351 160.527 103.452 160.285 103.656 160.087C103.859 159.884 104.107 159.783 104.4 159.783C104.681 159.783 104.92 159.881 105.117 160.079L110.489 165.396C110.734 165.629 110.857 165.901 110.857 166.212Z" fill="#565A64"/>
<path d="M33.82 212.456C33.7262 211.566 33.0075 211.035 31.8669 211.035C30.6794 211.035 30.0231 211.581 30.0075 212.331C29.9919 213.144 30.8512 213.519 31.82 213.738L32.8356 213.988C34.7731 214.425 36.2262 215.41 36.2262 217.3C36.2262 219.378 34.6012 220.691 31.8512 220.691C29.1169 220.691 27.3669 219.425 27.3044 217.003H29.5856C29.6637 218.144 30.57 218.722 31.82 218.722C33.0544 218.722 33.8512 218.144 33.8512 217.3C33.8512 216.535 33.1481 216.175 31.9137 215.863L30.6794 215.566C28.7731 215.097 27.6012 214.144 27.6012 212.488C27.6012 210.425 29.4137 209.066 31.8825 209.066C34.3825 209.066 36.0387 210.456 36.07 212.456H33.82ZM42.8281 216.925V212.05H45.1406V220.535H42.9219V219.003H42.8281C42.4375 219.988 41.5312 220.644 40.25 220.644C38.5469 220.644 37.3906 219.441 37.3906 217.456V212.05H39.7031V217.05C39.7031 218.05 40.2812 218.691 41.1875 218.691C42.0312 218.691 42.8281 218.081 42.8281 216.925ZM48.93 215.628V220.535H46.6175V212.05H48.8206V213.535H48.9144C49.305 212.55 50.2113 211.941 51.4613 211.941C53.2269 211.941 54.3988 213.144 54.3831 215.128V220.535H52.0863V215.535C52.0863 214.488 51.5081 213.863 50.555 213.863C49.5863 213.863 48.93 214.503 48.93 215.628Z" fill="#A3A6AC"/>
<path d="M75.7106 209.222H78.6169L81.7575 216.894H81.8825L85.0231 209.222H87.9294V220.535H85.6481V213.128H85.5544L82.6012 220.488H81.0387L78.0856 213.097H77.9919V220.535H75.7106V209.222ZM93.2812 220.706C90.7188 220.706 89.125 218.941 89.125 216.316C89.125 213.691 90.7188 211.941 93.2812 211.941C95.8438 211.941 97.4531 213.691 97.4531 216.316C97.4531 218.941 95.8438 220.706 93.2812 220.706ZM93.2969 218.91C94.4844 218.91 95.0938 217.8 95.0938 216.316C95.0938 214.816 94.4844 213.706 93.2969 213.706C92.0938 213.706 91.4688 214.816 91.4688 216.316C91.4688 217.8 92.0938 218.91 93.2969 218.91ZM100.899 215.628V220.535H98.5863V212.05H100.789V213.535H100.883C101.274 212.55 102.18 211.941 103.43 211.941C105.196 211.941 106.368 213.144 106.352 215.128V220.535H104.055V215.535C104.055 214.488 103.477 213.863 102.524 213.863C101.555 213.863 100.899 214.503 100.899 215.628Z" fill="#A3A6AC"/>
<circle cx="140.5" cy="215.035" r="20.5" fill="#007AFF"/>
<path d="M127.906 211.16V209.222H137.172V211.16H133.703V220.535H131.375V211.16H127.906ZM142.539 216.925V212.05H144.852V220.535H142.633V219.003H142.539C142.148 219.988 141.242 220.644 139.961 220.644C138.258 220.644 137.102 219.441 137.102 217.456V212.05H139.414V217.05C139.414 218.05 139.992 218.691 140.898 218.691C141.742 218.691 142.539 218.081 142.539 216.925ZM150.172 220.706C147.578 220.706 145.985 219.019 145.985 216.331C145.985 213.706 147.594 211.941 150.078 211.941C152.313 211.941 154.063 213.347 154.063 216.238V216.894H148.266C148.266 218.175 149.032 218.972 150.219 218.972C151 218.972 151.563 218.628 151.797 218.113H154C153.672 219.675 152.266 220.706 150.172 220.706ZM148.266 215.441H151.875C151.875 214.41 151.157 213.675 150.125 213.675C149.063 213.675 148.305 214.464 148.266 215.441Z" fill="white"/>
<path d="M177.289 220.535L174.054 209.222H176.617L178.523 217.128H178.617L180.695 209.222H182.898L184.976 217.144H185.07L186.976 209.222H189.539L186.304 220.535H184.007L181.851 213.066H181.757L179.586 220.535H177.289ZM193.297 220.706C190.703 220.706 189.109 219.019 189.109 216.331C189.109 213.706 190.719 211.941 193.203 211.941C195.438 211.941 197.188 213.347 197.188 216.238V216.894H191.391C191.391 218.175 192.156 218.972 193.344 218.972C194.125 218.972 194.688 218.628 194.922 218.113H197.125C196.797 219.675 195.391 220.706 193.297 220.706ZM191.391 215.441H195C195 214.41 194.281 213.675 193.25 213.675C192.188 213.675 191.43 214.464 191.391 215.441ZM201.446 220.675C199.508 220.675 197.993 219.128 197.993 216.3C197.993 213.394 199.571 211.941 201.446 211.941C202.868 211.941 203.539 212.785 203.852 213.472H203.93V209.222H206.243V220.535H203.961V219.175H203.852C203.524 219.878 202.821 220.675 201.446 220.675ZM202.164 218.831C203.321 218.831 203.977 217.816 203.977 216.285C203.977 214.753 203.321 213.785 202.164 213.785C200.993 213.785 200.368 214.8 200.368 216.285C200.368 217.785 200.993 218.831 202.164 218.831Z" fill="#A3A6AC"/>
<circle cx="239.5" cy="215.035" r="20.5" fill="#007AFF"/>
<path d="M226.125 211.16V209.222H235.39V211.16H231.922V220.535H229.593V211.16H226.125ZM238.789 215.628V220.535H236.477V209.222H238.727V213.535H238.82C239.211 212.55 240.07 211.941 241.352 211.941C243.117 211.941 244.289 213.128 244.289 215.128V220.535H241.977V215.535C241.977 214.488 241.414 213.863 240.445 213.863C239.477 213.863 238.789 214.503 238.789 215.628ZM251.188 216.925V212.05H253.5V220.535H251.282V219.003H251.188C250.797 219.988 249.891 220.644 248.61 220.644C246.907 220.644 245.75 219.441 245.75 217.456V212.05H248.063V217.05C248.063 218.05 248.641 218.691 249.547 218.691C250.391 218.691 251.188 218.081 251.188 216.925Z" fill="white"/>
<path d="M281.672 220.535V209.222H289.125V211.16H284.015V213.91H288.64V215.847H284.015V220.535H281.672ZM290.164 220.535V212.05H292.398V213.519H292.492C292.805 212.472 293.586 211.925 294.539 211.925C294.773 211.925 295.07 211.956 295.273 212.003V214.066C295.055 214.003 294.617 213.941 294.289 213.941C293.242 213.941 292.477 214.675 292.477 215.706V220.535H290.164ZM296.078 220.535V212.05H298.391V220.535H296.078ZM297.235 210.941C296.532 210.941 295.969 210.41 295.969 209.769C295.969 209.113 296.532 208.581 297.235 208.581C297.922 208.581 298.485 209.113 298.485 209.769C298.485 210.41 297.922 210.941 297.235 210.941Z" fill="#A3A6AC"/>
<path d="M334.953 212.456C334.859 211.566 334.14 211.035 333 211.035C331.812 211.035 331.156 211.581 331.14 212.331C331.125 213.144 331.984 213.519 332.953 213.738L333.968 213.988C335.906 214.425 337.359 215.41 337.359 217.3C337.359 219.378 335.734 220.691 332.984 220.691C330.25 220.691 328.5 219.425 328.437 217.003H330.718C330.797 218.144 331.703 218.722 332.953 218.722C334.187 218.722 334.984 218.144 334.984 217.3C334.984 216.535 334.281 216.175 333.047 215.863L331.812 215.566C329.906 215.097 328.734 214.144 328.734 212.488C328.734 210.425 330.547 209.066 333.015 209.066C335.515 209.066 337.172 210.456 337.203 212.456H334.953ZM338.117 218.16C338.117 216.269 339.648 215.644 341.273 215.55C341.883 215.511 343.023 215.456 343.383 215.441V214.753C343.367 214.05 342.883 213.628 342.023 213.628C341.242 213.628 340.742 213.988 340.617 214.566H338.414C338.555 213.097 339.836 211.941 342.086 211.941C343.93 211.941 345.68 212.769 345.68 214.816V220.535H343.492V219.363H343.43C343.008 220.144 342.211 220.691 340.945 220.691C339.32 220.691 338.117 219.847 338.117 218.16ZM340.336 218.097C340.336 218.753 340.867 219.097 341.602 219.097C342.648 219.097 343.398 218.394 343.383 217.503V216.878C343.031 216.894 342.047 216.949 341.648 216.988C340.852 217.066 340.336 217.441 340.336 218.097ZM351.594 212.05V213.785H350V217.925C350 218.597 350.328 218.769 350.797 218.785C351.032 218.785 351.438 218.769 351.719 218.738V220.566C351.469 220.613 351.063 220.644 350.485 220.644C348.813 220.644 347.672 219.894 347.688 218.253V213.785H346.516V212.05H347.688V210.019H350V212.05H351.594Z" fill="#A3A6AC"/>
<path d="M43.1387 263.394V277.535H40.9707V265.542H40.8926L37.5137 267.749V265.699L41.0293 263.394H43.1387Z" fill="#A3A6AC"/>
<path d="M86.3027 277.535V275.972L91.2051 271.031C92.748 269.41 93.5293 268.511 93.5293 267.281C93.5293 265.894 92.3965 264.996 90.9121 264.996C89.3496 264.996 88.334 265.992 88.334 267.496H86.3027C86.2832 264.917 88.2559 263.199 90.9512 263.199C93.6855 263.199 95.5605 264.917 95.5801 267.222C95.5605 268.804 94.8184 270.054 92.1621 272.671L89.291 275.581V275.699H95.8145V277.535H86.3027Z" fill="#A3A6AC"/>
<circle cx="140.5" cy="270.035" r="20.5" fill="#007AFF"/>
<path d="M140.961 277.73C137.855 277.73 135.629 276.011 135.57 273.55H138.539C138.598 274.605 139.613 275.308 140.98 275.308C142.387 275.308 143.402 274.507 143.383 273.374C143.402 272.222 142.367 271.402 140.707 271.402H139.398V269.234H140.707C142.094 269.234 143.07 268.472 143.07 267.359C143.07 266.285 142.25 265.542 141 265.542C139.75 265.542 138.715 266.246 138.676 267.32H135.863C135.902 264.878 138.109 263.199 141 263.199C143.949 263.199 145.922 264.937 145.902 267.183C145.922 268.765 144.809 269.898 143.227 270.171V270.289C145.297 270.542 146.449 271.812 146.43 273.57C146.449 275.992 144.145 277.73 140.961 277.73Z" fill="white"/>
<path d="M185.09 274.781V273.042L191.34 263.394H193.996V272.964H195.93V274.781H193.996V277.535H191.965V274.781H185.09ZM187.355 272.964H191.965V265.953H191.809L187.355 272.847V272.964Z" fill="#A3A6AC"/>
<circle cx="239.5" cy="270.035" r="20.5" fill="#007AFF"/>
<path d="M240.039 277.73C237.09 277.73 234.941 275.992 234.883 273.55H237.734C237.793 274.664 238.809 275.406 240.039 275.406C241.504 275.406 242.539 274.371 242.539 272.906C242.539 271.402 241.484 270.367 240 270.347C238.945 270.347 238.203 270.738 237.773 271.539H235.117L235.879 263.394H244.59V265.796H238.301L237.91 269.371H238.027C238.555 268.667 239.609 268.179 240.859 268.179C243.457 268.179 245.391 270.113 245.391 272.828C245.391 275.679 243.223 277.73 240.039 277.73Z" fill="white"/>
<path d="M290.137 277.73C287.52 277.71 284.785 276.167 284.785 270.933C284.785 266.011 286.914 263.199 290.312 263.199C292.91 263.199 294.727 264.82 295.059 267.066H292.93C292.656 265.914 291.738 265.074 290.312 265.074C288.125 265.074 286.855 266.988 286.855 270.171H287.012C287.773 268.98 289.102 268.257 290.645 268.257C293.164 268.257 295.195 270.191 295.195 272.906C295.195 275.64 293.184 277.749 290.137 277.73ZM290.117 275.933C291.836 275.933 293.105 274.605 293.105 272.945C293.105 271.324 291.875 270.015 290.176 270.015C288.438 270.015 287.129 271.382 287.109 272.964C287.129 274.527 288.379 275.933 290.117 275.933Z" fill="#A3A6AC"/>
<path d="M336.143 277.535L342.451 265.347V265.23H335.166V263.394H344.678V265.308L338.389 277.535H336.143Z" fill="#A3A6AC"/>
<path d="M41.0098 332.73C37.9434 332.73 35.7949 331.07 35.8145 328.765C35.7949 326.949 37.1035 325.464 38.7637 325.21V325.132C37.3184 324.8 36.3418 323.511 36.3418 321.968C36.3418 319.8 38.3145 318.199 41.0098 318.199C43.6855 318.199 45.6387 319.8 45.6582 321.968C45.6387 323.511 44.6621 324.8 43.2363 325.132V325.21C44.877 325.464 46.1855 326.949 46.2051 328.765C46.1855 331.07 44.0371 332.73 41.0098 332.73ZM41.0098 330.953C42.8457 330.953 44.0176 329.996 44.0176 328.609C44.0176 327.144 42.748 326.089 41.0098 326.089C39.252 326.089 37.9629 327.144 38.002 328.609C37.9629 329.996 39.1348 330.953 41.0098 330.953ZM41.0098 324.39C42.4941 324.39 43.5488 323.492 43.5488 322.164C43.5488 320.855 42.5137 319.956 41.0098 319.956C39.4473 319.956 38.4316 320.835 38.4316 322.164C38.4316 323.492 39.5059 324.39 41.0098 324.39Z" fill="#A3A6AC"/>
<path d="M90.8828 318.199C93.4805 318.218 96.2148 319.781 96.2148 324.956C96.2148 329.917 94.0859 332.73 90.6875 332.73C88.0898 332.73 86.2539 331.128 85.9219 328.824H88.0508C88.3438 330.015 89.2617 330.855 90.6875 330.855C92.875 330.855 94.1445 328.941 94.1641 325.718H93.9883C93.2266 326.91 91.8984 327.632 90.375 327.632C87.8359 327.632 85.8047 325.699 85.8047 322.984C85.8047 320.289 87.8164 318.179 90.8828 318.199ZM90.8828 319.996C89.1641 319.996 87.8945 321.324 87.8945 322.945C87.8945 324.585 89.125 325.874 90.8438 325.874C92.543 325.874 93.8711 324.488 93.8711 322.925C93.8711 321.402 92.6211 319.996 90.8828 319.996Z" fill="#A3A6AC"/>
<circle cx="140.5" cy="325.035" r="20.5" fill="#007AFF"/>
<path d="M137.078 318.394V332.535H134.129V321.187H134.051L130.808 323.218V320.621L134.305 318.394H137.078ZM145.528 332.73C141.992 332.73 139.844 330.093 139.844 325.464C139.844 320.835 141.992 318.199 145.528 318.199C149.063 318.199 151.211 320.855 151.211 325.464C151.211 330.113 149.063 332.73 145.528 332.73ZM145.528 330.308C147.168 330.308 148.223 328.726 148.203 325.464C148.203 322.242 147.168 320.601 145.528 320.601C143.887 320.601 142.852 322.242 142.852 325.464C142.832 328.726 143.887 330.308 145.528 330.308Z" fill="white"/>
<path d="M188.316 318.394V332.535H186.148V320.542H186.07L182.691 322.749V320.699L186.207 318.394H188.316ZM196.961 318.394V332.535H194.793V320.542H194.715L191.336 322.749V320.699L194.852 318.394H196.961Z" fill="#A3A6AC"/>
<circle cx="239.5" cy="325.035" r="20.5" fill="#007AFF"/>
<path d="M236.576 318.394V332.535H233.627V321.187H233.549L230.306 323.218V320.621L233.803 318.394H236.576ZM239.537 332.535L239.518 330.406L244.596 325.738C245.924 324.468 246.627 323.687 246.627 322.574C246.627 321.324 245.67 320.542 244.381 320.542C243.053 320.542 242.194 321.382 242.194 322.73H239.401C239.381 319.956 241.432 318.199 244.42 318.199C247.447 318.199 249.459 319.917 249.459 322.378C249.459 323.98 248.678 325.308 245.768 327.945L243.619 330.035V330.113H249.654V332.535H239.537Z" fill="white"/>
<path d="M286.058 318.394V332.535H283.89V320.542H283.812L280.433 322.749V320.699L283.949 318.394H286.058ZM294.352 332.73C291.422 332.73 289.332 331.148 289.254 328.843H291.442C291.52 330.093 292.75 330.874 294.332 330.874C296.031 330.874 297.281 329.937 297.281 328.57C297.281 327.183 296.11 326.167 294.098 326.167H292.887V324.41H294.098C295.699 324.41 296.832 323.511 296.832 322.164C296.832 320.874 295.875 319.996 294.371 319.996C292.945 319.996 291.695 320.777 291.637 322.066H289.567C289.625 319.761 291.754 318.199 294.391 318.199C297.164 318.199 298.922 319.956 298.903 322.046C298.922 323.648 297.926 324.82 296.403 325.191V325.289C298.336 325.562 299.449 326.851 299.449 328.648C299.449 331.011 297.281 332.73 294.352 332.73Z" fill="#A3A6AC"/>
<path d="M335.951 318.394V332.535H333.783V320.542H333.705L330.326 322.749V320.699L333.842 318.394H335.951ZM338.912 329.781V328.042L345.162 318.394H347.819V327.964H349.752V329.781H347.819V332.535H345.787V329.781H338.912ZM341.178 327.964H345.787V320.953H345.631L341.178 327.847V327.964Z" fill="#A3A6AC"/>
<path d="M37.2342 373.394V387.535H35.0662V375.542H34.9881L31.6092 377.749V375.699L35.1248 373.394H37.2342ZM45.3127 387.73C42.6369 387.73 40.6252 386.089 40.5275 383.843H42.6173C42.7345 385.054 43.8869 385.933 45.3127 385.933C47.0314 385.933 48.2619 384.683 48.2619 383.003C48.2619 381.285 46.9923 380.035 45.215 380.015C44.0822 380.015 43.2228 380.386 42.7345 381.265H40.7033L41.6213 373.394H49.6291V375.23H43.3986L42.9298 379.195H43.0666C43.6525 378.628 44.6486 378.238 45.7228 378.238C48.3791 378.238 50.3517 380.21 50.3517 382.945C50.3517 385.738 48.2619 387.73 45.3127 387.73Z" fill="#A3A6AC"/>
<path d="M87.0682 373.394V387.535H84.9002V375.542H84.8221L81.4432 377.749V375.699L84.9588 373.394H87.0682ZM95.4591 387.73C92.842 387.71 90.1076 386.167 90.1076 380.933C90.1076 376.011 92.2365 373.199 95.6349 373.199C98.2326 373.199 100.049 374.82 100.381 377.066H98.2521C97.9787 375.914 97.0607 375.074 95.6349 375.074C93.4474 375.074 92.1779 376.988 92.1779 380.171H92.3341C93.0959 378.98 94.424 378.257 95.967 378.257C98.4865 378.257 100.518 380.191 100.518 382.906C100.518 385.64 98.506 387.749 95.4591 387.73ZM95.4396 385.933C97.1584 385.933 98.4279 384.605 98.4279 382.945C98.4279 381.324 97.1974 380.015 95.4982 380.015C93.7599 380.015 92.4513 381.382 92.4318 382.964C92.4513 384.527 93.7013 385.933 95.4396 385.933Z" fill="#A3A6AC"/>
<circle cx="140.5" cy="380.035" r="20.5" fill="#007AFF"/>
<path d="M137.928 373.394V387.535H134.978V376.187H134.9L131.658 378.218V375.621L135.154 373.394H137.928ZM141.436 387.535L147.393 375.894V375.796H140.459V373.394H150.44V375.835L144.483 387.535H141.436Z" fill="white"/>
<path d="M186.617 373.394V387.535H184.449V375.542H184.371L180.992 377.749V375.699L184.508 373.394H186.617ZM194.832 387.73C191.766 387.73 189.617 386.07 189.637 383.765C189.617 381.949 190.926 380.464 192.586 380.21V380.132C191.141 379.8 190.164 378.511 190.164 376.968C190.164 374.8 192.137 373.199 194.832 373.199C197.508 373.199 199.461 374.8 199.481 376.968C199.461 378.511 198.485 379.8 197.059 380.132V380.21C198.699 380.464 200.008 381.949 200.028 383.765C200.008 386.07 197.86 387.73 194.832 387.73ZM194.832 385.953C196.668 385.953 197.84 384.996 197.84 383.609C197.84 382.144 196.57 381.089 194.832 381.089C193.074 381.089 191.785 382.144 191.824 383.609C191.785 384.996 192.957 385.953 194.832 385.953ZM194.832 379.39C196.317 379.39 197.371 378.492 197.371 377.164C197.371 375.855 196.336 374.956 194.832 374.956C193.27 374.956 192.254 375.835 192.254 377.164C192.254 378.492 193.328 379.39 194.832 379.39Z" fill="#A3A6AC"/>
<circle cx="239.5" cy="380.035" r="20.5" fill="#007AFF"/>
<path d="M236.254 373.394V387.535H233.305V376.187H233.226L229.984 378.218V375.621L233.48 373.394H236.254ZM244.371 373.199C247.301 373.218 250.074 374.956 250.074 380.093C250.094 384.898 247.809 387.73 244.254 387.73C241.403 387.73 239.469 385.953 239.176 383.55H242.067C242.301 384.585 243.121 385.21 244.254 385.21C246.188 385.21 247.203 383.492 247.203 380.66H247.086C246.422 381.91 245.035 382.652 243.453 382.652C240.914 382.652 239.039 380.738 239.02 378.101C239.02 375.249 241.168 373.179 244.371 373.199ZM244.391 375.503C242.945 375.503 241.871 376.617 241.891 378.023C241.891 379.41 242.926 380.503 244.371 380.503C245.797 380.503 246.91 379.371 246.91 378.003C246.891 376.656 245.836 375.503 244.391 375.503Z" fill="white"/>
<path d="M279.291 387.535V385.972L284.193 381.031C285.736 379.41 286.517 378.511 286.517 377.281C286.517 375.894 285.385 374.996 283.9 374.996C282.338 374.996 281.322 375.992 281.322 377.496H279.291C279.271 374.917 281.244 373.199 283.939 373.199C286.674 373.199 288.549 374.917 288.568 377.222C288.549 378.804 287.806 380.054 285.15 382.671L282.279 385.581V385.699H288.803V387.535H279.291ZM295.787 387.73C292.506 387.73 290.592 385.093 290.592 380.464C290.592 375.874 292.545 373.199 295.787 373.199C299.029 373.199 300.983 375.874 300.983 380.464C300.983 385.093 299.049 387.73 295.787 387.73ZM295.787 385.874C297.701 385.874 298.834 383.999 298.834 380.464C298.834 376.949 297.682 375.015 295.787 375.015C293.893 375.015 292.74 376.949 292.74 380.464C292.74 383.999 293.873 385.874 295.787 385.874Z" fill="#A3A6AC"/>
<path d="M330.98 387.535V385.972L335.883 381.031C337.426 379.41 338.207 378.511 338.207 377.281C338.207 375.894 337.074 374.996 335.59 374.996C334.027 374.996 333.012 375.992 333.012 377.496H330.98C330.961 374.917 332.933 373.199 335.629 373.199C338.363 373.199 340.238 374.917 340.258 377.222C340.238 378.804 339.496 380.054 336.84 382.671L333.969 385.581V385.699H340.492V387.535H330.98ZM347.926 373.394V387.535H345.758V375.542H345.68L342.301 377.749V375.699L345.817 373.394H347.926Z" fill="#A3A6AC"/>
<path d="M30.5155 442.535V440.972L35.4178 436.031C36.9608 434.41 37.742 433.511 37.742 432.281C37.742 430.894 36.6092 429.996 35.1248 429.996C33.5623 429.996 32.5467 430.992 32.5467 432.496H30.5155C30.4959 429.917 32.4686 428.199 35.1639 428.199C37.8983 428.199 39.7733 429.917 39.7928 432.222C39.7733 433.804 39.0311 435.054 36.3748 437.671L33.5037 440.581V440.699H40.0272V442.535H30.5155ZM42.09 442.535V440.972L46.9923 436.031C48.5353 434.41 49.3166 433.511 49.3166 432.281C49.3166 430.894 48.1838 429.996 46.6994 429.996C45.1369 429.996 44.1213 430.992 44.1213 432.496H42.09C42.0705 429.917 44.0431 428.199 46.7384 428.199C49.4728 428.199 51.3478 429.917 51.3673 432.222C51.3478 433.804 50.6056 435.054 47.9494 437.671L45.0783 440.581V440.699H51.6017V442.535H42.09Z" fill="#A3A6AC"/>
<path d="M80.2225 442.535V440.972L85.1248 436.031C86.6678 434.41 87.4491 433.511 87.4491 432.281C87.4491 430.894 86.3162 429.996 84.8319 429.996C83.2694 429.996 82.2537 430.992 82.2537 432.496H80.2225C80.203 429.917 82.1756 428.199 84.8709 428.199C87.6053 428.199 89.4803 429.917 89.4998 432.222C89.4803 433.804 88.7381 435.054 86.0819 437.671L83.2108 440.581V440.699H89.7342V442.535H80.2225ZM96.8166 442.73C93.8869 442.73 91.797 441.148 91.7189 438.843H93.9064C93.9845 440.093 95.215 440.874 96.797 440.874C98.4963 440.874 99.7463 439.937 99.7463 438.57C99.7463 437.183 98.5744 436.167 96.5627 436.167H95.3517V434.41H96.5627C98.1642 434.41 99.297 433.511 99.297 432.164C99.297 430.874 98.34 429.996 96.8361 429.996C95.4103 429.996 94.1603 430.777 94.1017 432.066H92.0314C92.09 429.761 94.2189 428.199 96.8556 428.199C99.6291 428.199 101.387 429.956 101.367 432.046C101.387 433.648 100.391 434.82 98.8673 435.191V435.289C100.801 435.562 101.914 436.851 101.914 438.648C101.914 441.011 99.7463 442.73 96.8166 442.73Z" fill="#A3A6AC"/>
<circle cx="140.5" cy="435.035" r="20.5" fill="#007AFF"/>
<path d="M130.271 442.535V440.972L135.174 436.031C136.717 434.41 137.498 433.511 137.498 432.281C137.498 430.894 136.365 429.996 134.881 429.996C133.318 429.996 132.303 430.992 132.303 432.496H130.271C130.252 429.917 132.224 428.199 134.92 428.199C137.654 428.199 139.529 429.917 139.549 432.222C139.529 433.804 138.787 435.054 136.131 437.671L133.26 440.581V440.699H139.783V442.535H130.271ZM141.221 439.781V438.042L147.471 428.394H150.127V437.964H152.061V439.781H150.127V442.535H148.096V439.781H141.221ZM143.486 437.964H148.096V430.953H147.94L143.486 437.847V437.964Z" fill="white"/>
<path d="M179.898 442.535V440.972L184.801 436.031C186.344 434.41 187.125 433.511 187.125 432.281C187.125 430.894 185.992 429.996 184.508 429.996C182.945 429.996 181.93 430.992 181.93 432.496H179.898C179.879 429.917 181.851 428.199 184.547 428.199C187.281 428.199 189.156 429.917 189.176 432.222C189.156 433.804 188.414 435.054 185.758 437.671L182.887 440.581V440.699H189.41V442.535H179.898ZM196.278 442.73C193.602 442.73 191.59 441.089 191.492 438.843H193.582C193.699 440.054 194.852 440.933 196.278 440.933C197.996 440.933 199.227 439.683 199.227 438.003C199.227 436.285 197.957 435.035 196.18 435.015C195.047 435.015 194.188 435.386 193.699 436.265H191.668L192.586 428.394H200.594V430.23H194.363L193.895 434.195H194.031C194.617 433.628 195.613 433.238 196.688 433.238C199.344 433.238 201.317 435.21 201.317 437.945C201.317 440.738 199.227 442.73 196.278 442.73Z" fill="#A3A6AC"/>
<circle cx="239.5" cy="435.035" r="20.5" fill="#007AFF"/>
<path d="M229.232 442.535V440.972L234.135 436.031C235.678 434.41 236.459 433.511 236.459 432.281C236.459 430.894 235.326 429.996 233.842 429.996C232.279 429.996 231.264 430.992 231.264 432.496H229.232C229.213 429.917 231.185 428.199 233.881 428.199C236.615 428.199 238.49 429.917 238.51 432.222C238.49 433.804 237.748 435.054 235.092 437.671L232.221 440.581V440.699H238.744V442.535H229.232ZM245.924 442.73C243.307 442.71 240.572 441.167 240.572 435.933C240.572 431.011 242.701 428.199 246.1 428.199C248.697 428.199 250.514 429.82 250.846 432.066H248.717C248.444 430.914 247.526 430.074 246.1 430.074C243.912 430.074 242.643 431.988 242.643 435.171H242.799C243.561 433.98 244.889 433.257 246.432 433.257C248.951 433.257 250.983 435.191 250.983 437.906C250.983 440.64 248.971 442.749 245.924 442.73ZM245.904 440.933C247.623 440.933 248.893 439.605 248.893 437.945C248.893 436.324 247.662 435.015 245.963 435.015C244.225 435.015 242.916 436.382 242.897 437.964C242.916 439.527 244.166 440.933 245.904 440.933Z" fill="white"/>
<path d="M279.281 442.535V440.972L284.183 436.031C285.726 434.41 286.508 433.511 286.508 432.281C286.508 430.894 285.375 429.996 283.89 429.996C282.328 429.996 281.312 430.992 281.312 432.496H279.281C279.262 429.917 281.234 428.199 283.93 428.199C286.664 428.199 288.539 429.917 288.558 432.222C288.539 433.804 287.797 435.054 285.14 437.671L282.269 440.581V440.699H288.793V442.535H279.281ZM295.797 442.73C292.731 442.73 290.582 441.07 290.602 438.765C290.582 436.949 291.891 435.464 293.551 435.21V435.132C292.106 434.8 291.129 433.511 291.129 431.968C291.129 429.8 293.102 428.199 295.797 428.199C298.473 428.199 300.426 429.8 300.445 431.968C300.426 433.511 299.449 434.8 298.024 435.132V435.21C299.664 435.464 300.973 436.949 300.992 438.765C300.973 441.07 298.824 442.73 295.797 442.73ZM295.797 440.953C297.633 440.953 298.805 439.996 298.805 438.609C298.805 437.144 297.535 436.089 295.797 436.089C294.039 436.089 292.75 437.144 292.789 438.609C292.75 439.996 293.922 440.953 295.797 440.953ZM295.797 434.39C297.281 434.39 298.336 433.492 298.336 432.164C298.336 430.855 297.301 429.956 295.797 429.956C294.235 429.956 293.219 430.835 293.219 432.164C293.219 433.492 294.293 434.39 295.797 434.39Z" fill="#A3A6AC"/>
<path d="M329.232 442.535V440.972L334.135 436.031C335.678 434.41 336.459 433.511 336.459 432.281C336.459 430.894 335.326 429.996 333.842 429.996C332.279 429.996 331.264 430.992 331.264 432.496H329.232C329.213 429.917 331.185 428.199 333.881 428.199C336.615 428.199 338.49 429.917 338.51 432.222C338.49 433.804 337.748 435.054 335.092 437.671L332.221 440.581V440.699H338.744V442.535H329.232ZM345.67 428.199C348.268 428.218 351.002 429.781 351.002 434.956C351.002 439.917 348.873 442.73 345.475 442.73C342.877 442.73 341.041 441.128 340.709 438.824H342.838C343.131 440.015 344.049 440.855 345.475 440.855C347.662 440.855 348.932 438.941 348.951 435.718H348.776C348.014 436.91 346.686 437.632 345.162 437.632C342.623 437.632 340.592 435.699 340.592 432.984C340.592 430.289 342.604 428.179 345.67 428.199ZM345.67 429.996C343.951 429.996 342.682 431.324 342.682 432.945C342.682 434.585 343.912 435.874 345.631 435.874C347.33 435.874 348.658 434.488 348.658 432.925C348.658 431.402 347.408 429.996 345.67 429.996Z" fill="#A3A6AC"/>
<path d="M35.0174 497.73C32.0877 497.73 29.9979 496.148 29.9198 493.843H32.1073C32.1854 495.093 33.4159 495.874 34.9979 495.874C36.6971 495.874 37.9471 494.937 37.9471 493.57C37.9471 492.183 36.7752 491.167 34.7635 491.167H33.5526V489.41H34.7635C36.3651 489.41 37.4979 488.511 37.4979 487.164C37.4979 485.874 36.5409 484.996 35.037 484.996C33.6112 484.996 32.3612 485.777 32.3026 487.066H30.2323C30.2909 484.761 32.4198 483.199 35.0565 483.199C37.8299 483.199 39.5877 484.956 39.5682 487.046C39.5877 488.648 38.5916 489.82 37.0682 490.191V490.289C39.0018 490.562 40.1151 491.851 40.1151 493.648C40.1151 496.011 37.9471 497.73 35.0174 497.73ZM47.0802 497.73C43.799 497.73 41.8849 495.093 41.8849 490.464C41.8849 485.874 43.838 483.199 47.0802 483.199C50.3224 483.199 52.2755 485.874 52.2755 490.464C52.2755 495.093 50.342 497.73 47.0802 497.73ZM47.0802 495.874C48.9943 495.874 50.1271 493.999 50.1271 490.464C50.1271 486.949 48.9748 485.015 47.0802 485.015C45.1857 485.015 44.0334 486.949 44.0334 490.464C44.0334 493.999 45.1662 495.874 47.0802 495.874Z" fill="#A3A6AC"/>
</svg>
