<svg width="359" height="546" viewBox="0 0 359 546" fill="none" xmlns="http://www.w3.org/2000/svg">
<path d="M11.9531 8.49219C11.9531 11 14.5078 13.7891 19.4062 14.3984L18.2344 16.8125C14.5078 16.2734 11.7773 14.5508 10.3828 12.2422C8.97656 14.5508 6.26953 16.2734 2.57812 16.8125L1.38281 14.3984C6.23438 13.7891 8.8125 11 8.8125 8.49219V7.46094H11.9531V8.49219ZM20.0859 18.4297V20.8672H11.7891V28.1562H8.83594V20.8672H0.632812V18.4297H20.0859ZM27.0081 7.74219C29.7386 7.71875 31.9066 9.27734 32.4925 11.5625H36.055V6.82812H39.0316V18.2891H36.055V13.9531H32.5159C31.9534 16.2969 29.762 17.8906 27.0081 17.8906C23.7269 17.8906 21.3128 15.7578 21.3363 12.7812C21.3128 9.85156 23.7269 7.71875 27.0081 7.74219ZM27.0081 10.2266C25.3441 10.2031 24.1488 11.1875 24.1722 12.7812C24.1488 14.375 25.3441 15.3828 27.0081 15.3828C28.6253 15.3828 29.7972 14.375 29.7972 12.7812C29.7972 11.1875 28.6253 10.2031 27.0081 10.2266ZM27.7581 19.2266V21.2891H36.055V19.2266H39.0316V27.9219H24.805V19.2266H27.7581ZM27.7581 25.5078H36.055V23.5859H27.7581V25.5078ZM59.9694 6.82812V28.1562H57.11V6.82812H59.9694ZM55.5163 7.13281V27.1719H52.7038V17.0938H50.9928C50.7116 21.2891 48.9303 23.8203 46.3053 23.8203C43.4928 23.8203 41.6647 20.8672 41.6647 16.0625C41.6647 11.2812 43.4928 8.35156 46.3053 8.35156C48.8717 8.35156 50.6295 10.7422 50.9694 14.7266H52.7038V7.13281H55.5163ZM46.3053 11.1641C45.11 11.1641 44.4069 12.8047 44.4303 16.0625C44.4069 19.3438 45.11 20.9609 46.3053 20.9375C47.5241 20.9609 48.2506 19.3438 48.2506 16.0625C48.2506 12.8047 47.5241 11.1641 46.3053 11.1641ZM85.5559 6.82812V28.1562H82.72V17.4453H80.6575V27.125H77.9153V7.17969H80.6575V15.0547H82.72V6.82812H85.5559ZM75.6653 9.28906V11.7031H70.72V20.7969C72.7825 20.7852 74.6106 20.6797 76.6731 20.3047L76.8841 22.7422C74.2825 23.2344 72.0091 23.3047 69.1966 23.3281H67.72V9.28906H75.6653ZM104.455 6.85156V13.3906H107.338V15.8281H104.455V22.7656H101.455V6.85156H104.455ZM100.189 9.07812V11.4453H87.5328V9.07812H92.3844V6.80469H95.3609V9.07812H100.189ZM93.8609 12.1953C96.9547 12.1953 99.1109 13.8594 99.1109 16.3203C99.1109 18.7812 96.9547 20.3984 93.8609 20.3984C90.7438 20.3984 88.5641 18.7812 88.5641 16.3203C88.5641 13.8594 90.7438 12.1953 93.8609 12.1953ZM93.8609 14.4688C92.4313 14.4922 91.4703 15.1484 91.4938 16.3203C91.4703 17.4922 92.4313 18.125 93.8609 18.125C95.2906 18.125 96.275 17.4922 96.275 16.3203C96.275 15.1484 95.2906 14.4922 93.8609 14.4688ZM105.228 25.3906V27.7812H90.6266V21.5469H93.6031V25.3906H105.228ZM120.948 10.1797C120.948 12.7578 122.448 15.2422 125.823 16.2969L124.229 18.6172C121.967 17.8672 120.385 16.4141 119.471 14.5391C118.545 16.6953 116.893 18.3828 114.455 19.2031L112.838 16.8594C116.401 15.6641 117.924 12.8281 117.948 9.89844V7.95312H120.948V10.1797ZM130.088 6.82812V11.8203H132.971V14.3047H130.088V19.4844H127.088V6.82812H130.088ZM123.104 19.9062C127.51 19.9062 130.299 21.4297 130.299 24.0312C130.299 26.6562 127.51 28.1562 123.104 28.1562C118.604 28.1562 115.791 26.6562 115.791 24.0312C115.791 21.4297 118.604 19.9062 123.104 19.9062ZM123.104 22.25C120.291 22.25 118.768 22.8594 118.791 24.0312C118.768 25.25 120.291 25.8125 123.104 25.8125C125.869 25.8125 127.346 25.25 127.346 24.0312C127.346 22.8594 125.869 22.25 123.104 22.25ZM140.432 12.1953C140.432 15.6406 141.393 19.2031 144.299 21.0781L142.682 23.3984C140.842 22.2852 139.67 20.457 139.003 18.2656C138.229 20.6797 136.952 22.6953 135.018 23.8672L133.19 21.6641C136.354 19.6953 137.526 15.9453 137.526 12.3359V8.65625H140.432V12.1953ZM152.081 6.82812V28.1562H149.221V6.82812H152.081ZM147.604 7.13281V27.1719H144.815V16.4609H142.049V14.0234H144.815V7.13281H147.604ZM170.932 6.85156V13.3906H173.815V15.8281H170.932V22.7656H167.932V6.85156H170.932ZM166.667 9.07812V11.4453H154.011V9.07812H158.862V6.80469H161.839V9.07812H166.667ZM160.339 12.1953C163.432 12.1953 165.589 13.8594 165.589 16.3203C165.589 18.7812 163.432 20.3984 160.339 20.3984C157.222 20.3984 155.042 18.7812 155.042 16.3203C155.042 13.8594 157.222 12.1953 160.339 12.1953ZM160.339 14.4688C158.909 14.4922 157.948 15.1484 157.972 16.3203C157.948 17.4922 158.909 18.125 160.339 18.125C161.768 18.125 162.753 17.4922 162.753 16.3203C162.753 15.1484 161.768 14.4922 160.339 14.4688ZM171.706 25.3906V27.7812H157.104V21.5469H160.081V25.3906H171.706ZM197.621 6.82812V17.6797H194.644V12.3828H190.636V10.0156H194.644V6.82812H197.621ZM197.621 18.5703V24.2656H186.417V25.5781H198.23V27.9219H183.464V22.0859H194.667V20.8672H183.441V18.5703H197.621ZM187.636 9.07812C187.613 11.6328 189.113 14.0938 192.511 15.1016L190.941 17.3984C188.656 16.6602 187.062 15.2305 186.136 13.3906C185.21 15.4414 183.523 17.0586 181.027 17.8438L179.48 15.4766C183.019 14.4453 184.589 11.8438 184.613 9.07812V7.53125H187.636V9.07812ZM218.043 6.82812V19.3203H215.066V16.6016H211.082V18.1484H200.957V8.39844H211.082V9.94531H215.066V6.82812H218.043ZM203.933 10.7656V15.7812H208.152V10.7656H203.933ZM210.754 19.8828C215.301 19.8828 218.09 21.4062 218.113 24.0312C218.09 26.6562 215.301 28.1562 210.754 28.1562C206.207 28.1562 203.418 26.6562 203.418 24.0312C203.418 21.4062 206.207 19.8828 210.754 19.8828ZM210.754 22.1562C207.918 22.1562 206.394 22.7656 206.394 24.0312C206.394 25.25 207.918 25.8828 210.754 25.8828C213.59 25.8828 215.137 25.25 215.137 24.0312C215.137 22.7656 213.59 22.1562 210.754 22.1562ZM211.082 14.1875H215.066V12.3125H211.082V14.1875ZM230.215 7.13281C235.113 7.13281 237.949 8.42188 237.973 10.7656C237.949 13.1328 235.113 14.4219 230.215 14.4219C225.293 14.4219 222.434 13.1328 222.434 10.7656C222.434 8.42188 225.293 7.13281 230.215 7.13281ZM230.215 9.3125C227.074 9.3125 225.551 9.82812 225.574 10.7656C225.551 11.8203 227.074 12.2188 230.215 12.2188C233.379 12.2188 234.879 11.8203 234.879 10.7656C234.879 9.82812 233.379 9.3125 230.215 9.3125ZM239.942 15.4297V17.7969H220.488V15.4297H239.942ZM237.574 19.0391V24.4766H225.692V25.7656H238.137V28.0156H222.762V22.3906H234.621V21.2188H222.738V19.0391H237.574ZM18.5625 40.8281V62.1562H15.5391V40.8281H18.5625ZM12.1641 43.0547C12.1641 49.5234 9.89062 54.8906 2.27344 58.5L0.703125 56.1094C6.21094 53.5078 8.63672 50.1328 9.11719 45.3984H1.85156V43.0547H12.1641ZM39.6644 40.8281V62.1562H36.805V51.4688H35.0003V61.1719H32.1644V55.0547L30.4769 57.3047C28.4964 56.2617 27.2191 54.4922 26.4691 52.2891C25.7542 54.8203 24.4886 56.8711 22.4613 58.0781L20.6097 55.7812C23.8441 53.9531 24.9456 50.1797 24.9456 46.1016V45.4219H21.3363V43.0312H31.1097V45.4219H27.8519V46.1016C27.8519 49.8164 28.9534 53.3555 32.1644 55.0078V41.1328H35.0003V49.0312H36.805V40.8281H39.6644ZM51.7663 44.0859V46.4531H41.4538V44.0859H45.1569V41.4141H48.11V44.0859H51.7663ZM46.6569 47.4141C49.3756 47.4141 51.3209 49.5234 51.3444 52.4766C51.3209 55.4531 49.3756 57.5625 46.6569 57.5625C43.9381 57.5625 41.9459 55.4531 41.9459 52.4766C41.9459 49.5234 43.9381 47.4141 46.6569 47.4141ZM46.6569 49.8984C45.4147 49.8984 44.5709 50.8594 44.5709 52.4766C44.5709 54.0938 45.4147 55.0312 46.6569 55.0312C47.8522 55.0312 48.6959 54.0938 48.7194 52.4766C48.6959 50.8594 47.8522 49.8984 46.6569 49.8984ZM59.9225 40.8281V62.1562H57.0866V51.8906H55.3522V61.2422H52.5631V41.25H55.3522V49.5H57.0866V40.8281H59.9225ZM81.3525 52.5938V54.9844H73.0556V62.1562H70.1025V54.9844H61.8994V52.5938H81.3525ZM79.6181 41.9531V44.2969H73.4072C73.7002 46.3828 76.0556 48.4805 80.4384 49.0078L79.3603 51.3516C75.6103 50.8477 72.9267 49.2422 71.6494 47.0391C70.3369 49.2422 67.6767 50.8477 63.9619 51.3516L62.8603 49.0078C67.1728 48.4805 69.5517 46.3828 69.8916 44.2969H63.6572V41.9531H79.6181ZM89.1653 46.1953C89.1653 49.6406 90.1263 53.2031 93.0325 55.0781L91.4153 57.3984C89.5755 56.2852 88.4036 54.457 87.7356 52.2656C86.9622 54.6797 85.6848 56.6953 83.7513 57.8672L81.9231 55.6641C85.0872 53.6953 86.2591 49.9453 86.2591 46.3359V42.6562H89.1653V46.1953ZM100.814 40.8281V62.1562H97.9544V40.8281H100.814ZM96.3372 41.1328V61.1719H93.5481V50.4609H90.7825V48.0234H93.5481V41.1328H96.3372ZM122.267 57.2109V59.6719H102.744V57.2109H107.103V51.9844C105.451 51 104.455 49.4883 104.455 47.6016C104.455 44.1562 107.83 41.8594 112.47 41.8594C117.088 41.8594 120.486 44.1562 120.509 47.6016C120.498 49.4414 119.525 50.9414 117.931 51.9375V57.2109H122.267ZM112.47 44.2266C109.423 44.2266 107.408 45.4453 107.408 47.6016C107.408 49.6875 109.423 50.9766 112.47 50.9766C115.494 50.9766 117.533 49.6875 117.556 47.6016C117.533 45.4453 115.494 44.2266 112.47 44.2266ZM110.056 57.2109H114.908V53.0625C114.146 53.2148 113.326 53.2969 112.47 53.2969C111.615 53.2969 110.806 53.2266 110.056 53.0625V57.2109ZM125.932 60.2109C124.83 60.2109 123.939 59.3203 123.963 58.2422C123.939 57.1641 124.83 56.2969 125.932 56.2969C126.963 56.2969 127.877 57.1641 127.877 58.2422C127.877 59.3203 126.963 60.2109 125.932 60.2109Z" fill="#27292F"/>
<circle cx="4" cy="96" r="4" fill="#DEE3EB"/>
<circle cx="28" cy="96" r="4" fill="#DEE3EB"/>
<circle cx="52" cy="96" r="4" fill="#007AFF"/>
<path d="M16.8984 173.023V190.797H14.5352V181.871H12.8164V189.938H10.5312V173.316H12.8164V179.879H14.5352V173.023H16.8984ZM8.65625 175.074V177.086H4.53516V184.664C6.25391 184.654 7.77734 184.566 9.49609 184.254L9.67188 186.285C7.50391 186.695 5.60938 186.754 3.26562 186.773H2.03516V175.074H8.65625ZM24.9769 175.816C24.9769 177.965 26.2269 180.035 29.0394 180.914L27.7113 182.848C25.8265 182.223 24.5081 181.012 23.7464 179.449C22.9749 181.246 21.598 182.652 19.5667 183.336L18.2191 181.383C21.1878 180.387 22.4573 178.023 22.4769 175.582V173.961H24.9769V175.816ZM32.5941 173.023V177.184H34.9964V179.254H32.5941V183.57H30.0941V173.023H32.5941ZM26.7738 183.922C30.4456 183.922 32.7698 185.191 32.7698 187.359C32.7698 189.547 30.4456 190.797 26.7738 190.797C23.0238 190.797 20.68 189.547 20.68 187.359C20.68 185.191 23.0238 183.922 26.7738 183.922ZM26.7738 185.875C24.43 185.875 23.1605 186.383 23.18 187.359C23.1605 188.375 24.43 188.844 26.7738 188.844C29.0784 188.844 30.3089 188.375 30.3089 187.359C30.3089 186.383 29.0784 185.875 26.7738 185.875ZM42.0202 177.867C42.0006 180.582 43.4459 183.707 46.3756 185.055L44.9889 187.008C43.0065 186.1 41.5905 184.283 40.8092 182.145C40.0084 184.498 38.5534 186.49 36.4928 187.457L35.0475 185.484C38.0163 184.098 39.5006 180.797 39.5202 177.867V176.773H35.7506V174.742H45.5944V176.773H42.0202V177.867ZM49.4811 173.023V179.801H52.0983V181.891H49.4811V190.797H46.9811V173.023H49.4811Z" fill="#565A64"/>
<rect x="1" y="216" width="358" height="46" rx="10" fill="#DEE3EB"/>
<path d="M13 226.5L13 251.5" stroke="#A3A6AC" stroke-width="2" stroke-linecap="round"/>
<path d="M24.2969 233.688V245H22.5625V235.406H22.5L19.7969 237.172V235.531L22.6094 233.688H24.2969ZM30.7894 245.156C28.1644 245.156 26.6331 243.047 26.6331 239.344C26.6331 235.672 28.1956 233.531 30.7894 233.531C33.3831 233.531 34.9456 235.672 34.9456 239.344C34.9456 243.047 33.3987 245.156 30.7894 245.156ZM30.7894 243.672C32.3206 243.672 33.2269 242.172 33.2269 239.344C33.2269 236.531 32.305 234.984 30.7894 234.984C29.2737 234.984 28.3519 236.531 28.3519 239.344C28.3519 242.172 29.2581 243.672 30.7894 243.672ZM47.11 232.922V233.844C47.11 234.773 47.11 235.945 46.8131 237.469H48.735V238.656H35.9225V237.469H45.3288C45.61 236.047 45.6413 234.977 45.6413 234.109H37.5319V232.922H47.11ZM47.1256 239.906V243.578H38.9225V245H47.485V246.188H37.4381V242.438H45.6569V241.094H37.4225V239.906H47.1256ZM54.3056 236.453C54.3056 238.672 55.7588 241.141 57.8838 242.141L57.04 243.297C55.4697 242.539 54.2275 240.961 53.6025 239.125C52.9541 241.133 51.6416 242.859 50.04 243.656L49.165 242.484C51.29 241.469 52.8369 238.828 52.8369 236.453V234.969H49.6806V233.734H57.3525V234.969H54.3056V236.453ZM60.3369 232.328V237.875H62.5869V239.125H60.3369V246.328H58.8525V232.328H60.3369ZM78.5094 232.328V246.328H77.0875V239.156H75.2906V245.609H73.9V232.609H75.2906V237.938H77.0875V232.328H78.5094ZM68.6656 233.984V241.453C69.9625 241.445 71.3766 241.344 72.9625 241.031L73.1188 242.328C71.1969 242.672 69.5875 242.766 68.0875 242.766H67.1813V233.984H68.6656ZM92.8456 243.406V244.656H80.0331V243.406H85.6738V240.953H81.5956V236.5H89.8144V234.531H81.5644V233.312H91.2831V237.688H83.0644V239.734H91.6113V240.953H87.1425V243.406H92.8456ZM108.737 232.328V239.844H107.253V232.328H108.737ZM101.034 240.516V242.094H107.268V240.516H108.737V246.156H99.5806V240.516H101.034ZM101.034 244.938H107.268V243.266H101.034V244.938ZM101.143 232.969C103.284 232.969 104.862 234.297 104.862 236.219C104.862 238.141 103.284 239.469 101.143 239.453C99.0025 239.469 97.4088 238.141 97.4088 236.219C97.4088 234.297 99.0025 232.969 101.143 232.969ZM101.143 234.219C99.815 234.203 98.8619 235.031 98.8619 236.219C98.8619 237.422 99.815 238.234 101.143 238.234C102.456 238.234 103.409 237.422 103.409 236.219C103.409 235.031 102.456 234.203 101.143 234.219ZM117.308 233.172V237.25H112.683V239.188C115.12 239.195 116.448 239.141 118.026 238.844L118.167 240.047C116.464 240.344 115.026 240.391 112.229 240.391H111.214V236.125H115.823V234.359H111.198V233.172H117.308ZM122.308 232.344V240.953H120.823V238.484H118.198V237.297H120.823V235.562H118.198V234.375H120.823V232.344H122.308ZM122.308 241.656V246.344H120.823V242.859H112.808V241.656H122.308ZM131.066 234.641V235.844H124.113V234.641H126.863V232.734H128.331V234.641H131.066ZM127.597 236.688C129.378 236.688 130.628 238.016 130.644 239.906C130.628 241.812 129.378 243.156 127.597 243.156C125.847 243.156 124.55 241.812 124.566 239.906C124.55 238.016 125.847 236.688 127.597 236.688ZM127.597 237.922C126.581 237.922 125.878 238.75 125.878 239.906C125.878 241.094 126.581 241.891 127.597 241.891C128.597 241.891 129.331 241.094 129.331 239.906C129.331 238.75 128.597 237.922 127.597 237.922ZM136.128 232.328V246.328H134.722V239.375H133.113V245.672H131.706V232.641H133.113V238.156H134.722V232.328H136.128ZM150.418 240.219V241.422H144.73V246.312H143.277V241.422H137.652V240.219H150.418ZM149.214 233.156V234.344H144.886C144.91 236.078 147.066 237.625 149.714 237.984L149.168 239.156C146.871 238.797 144.886 237.664 144.043 236.062C143.175 237.664 141.199 238.797 138.933 239.156L138.371 237.984C140.988 237.625 143.144 236.078 143.199 234.344H138.839V233.156H149.214ZM155.426 236.156C155.426 238.391 156.363 240.781 158.238 241.922L157.41 243.062C156.098 242.273 155.207 240.875 154.738 239.25C154.215 241.031 153.254 242.547 151.894 243.375L150.973 242.266C152.957 241.078 153.988 238.609 153.988 236.219V233.609H155.426V236.156ZM163.207 232.328V246.328H161.785V232.328H163.207ZM160.301 232.594V245.641H158.894V238.484H156.723V237.25H158.894V232.594H160.301ZM177.481 243.344V244.578H164.668V243.344H167.731V239.688C166.582 239.055 165.887 238.047 165.887 236.797C165.887 234.594 168.043 233.141 171.043 233.141C174.059 233.141 176.215 234.594 176.215 236.797C176.215 238.031 175.543 239.023 174.418 239.656V243.344H177.481ZM171.043 234.328C168.84 234.328 167.324 235.281 167.324 236.797C167.324 238.297 168.84 239.281 171.043 239.281C173.231 239.281 174.777 238.297 174.777 236.797C174.777 235.281 173.231 234.328 171.043 234.328ZM169.199 243.344H172.918V240.219C172.348 240.367 171.715 240.438 171.043 240.438C170.387 240.438 169.762 240.367 169.199 240.234V243.344ZM179.77 245.109C179.161 245.109 178.645 244.609 178.661 244C178.645 243.391 179.161 242.891 179.77 242.891C180.364 242.891 180.879 243.391 180.879 244C180.879 244.609 180.364 245.109 179.77 245.109Z" fill="#A3A6AC"/>
<path d="M10.9609 320.41C10.9609 322.5 13.0898 324.824 17.1719 325.332L16.1953 327.344C13.0898 326.895 10.8145 325.459 9.65234 323.535C8.48047 325.459 6.22461 326.895 3.14844 327.344L2.15234 325.332C6.19531 324.824 8.34375 322.5 8.34375 320.41V319.551H10.9609V320.41ZM17.7383 328.691V330.723H10.8242V336.797H8.36328V330.723H1.52734V328.691H17.7383ZM32.5941 319.023V323.203H34.9964V325.234H32.5941V329.336H30.0941V319.023H32.5941ZM27.6331 320.195C27.6527 324.941 24.6644 328.262 19.3714 329.727L18.3753 327.715C22.2913 326.67 24.5374 324.658 24.9183 322.188H19.2152V320.195H27.6331ZM26.7933 329.551C30.4066 329.551 32.7894 330.957 32.7894 333.184C32.7894 335.43 30.4066 336.816 26.7933 336.816C23.18 336.816 20.7581 335.43 20.7777 333.184C20.7581 330.957 23.18 329.551 26.7933 329.551ZM26.7933 331.484C24.5472 331.484 23.2191 332.09 23.2386 333.184C23.2191 334.258 24.5472 334.883 26.7933 334.863C29.0003 334.883 30.3284 334.258 30.3284 333.184C30.3284 332.09 29.0003 331.484 26.7933 331.484ZM41.1413 322.188C41.1413 324.102 42.1373 326.016 44.5006 326.914L43.1725 328.809C41.6588 328.232 40.6139 327.178 39.9694 325.859C39.3248 327.402 38.2116 328.691 36.5514 329.375L35.2038 327.461C37.7038 326.367 38.7194 324.18 38.7194 322.188V320.098H41.1413V322.188ZM50.7311 319.043V329.902H48.3678V325.391H46.8834V329.355H44.5592V319.355H46.8834V323.379H48.3678V319.043H50.7311ZM44.6569 330.156C48.4069 330.156 50.8092 331.406 50.8288 333.477C50.8092 335.547 48.4069 336.797 44.6569 336.797C40.8873 336.797 38.5045 335.547 38.5045 333.477C38.5045 331.406 40.8873 330.156 44.6569 330.156ZM44.6569 332.012C42.3327 332.012 40.985 332.52 41.0045 333.477C40.985 334.434 42.3327 334.922 44.6569 334.922C46.9616 334.922 48.3092 334.434 48.3092 333.477C48.3092 332.52 46.9616 332.012 44.6569 332.012ZM68.6728 325.957V327.91H52.4228V325.957H68.6728ZM66.7392 323.027V324.98H54.4541V319.375H66.6025V321.367H56.9345V323.027H66.7392ZM66.6611 328.965V333.613H56.7588V334.707H67.1298V336.641H54.3173V331.836H64.2002V330.84H54.2978V328.965H66.6611ZM84.2708 319.023V336.836H81.7513V319.023H84.2708ZM74.6223 320.273C77.2981 320.273 79.2903 322.734 79.2903 326.602C79.2903 330.508 77.2981 332.949 74.6223 332.949C71.888 332.949 69.8958 330.508 69.9153 326.602C69.8958 322.734 71.888 320.273 74.6223 320.273ZM74.6223 322.52C73.2356 322.52 72.3177 323.965 72.3177 326.602C72.3177 329.258 73.2356 330.684 74.6223 330.684C75.97 330.684 76.888 329.258 76.888 326.602C76.888 323.965 75.97 322.52 74.6223 322.52ZM105.389 319.785V321.738H100.486C100.779 323.203 102.615 324.688 106.131 325.078L105.213 327.031C101.883 326.66 99.6562 325.273 98.7284 323.438C97.7909 325.264 95.5839 326.66 92.2636 327.031L91.3652 325.078C94.8808 324.688 96.6972 323.184 96.9902 321.738H92.1269V319.785H105.389ZM106.893 327.871V329.863H100.193V332.93H97.7323V329.863H90.623V327.871H106.893ZM105.096 334.492V336.484H92.537V331.348H95.0175V334.492H105.096ZM122.49 319.023V336.836H119.971V319.023H122.49ZM110.987 320.43V324.766H114.815V320.43H117.276V332.676H108.487V320.43H110.987ZM110.987 330.664H114.815V326.699H110.987V330.664ZM133.147 321.738V323.711H124.553V321.738H127.639V319.512H130.1V321.738H133.147ZM128.889 324.512C131.155 324.512 132.776 326.27 132.795 328.73C132.776 331.211 131.155 332.969 128.889 332.969C126.624 332.969 124.963 331.211 124.963 328.73C124.963 326.27 126.624 324.512 128.889 324.512ZM128.889 326.582C127.854 326.582 127.151 327.383 127.151 328.73C127.151 330.078 127.854 330.859 128.889 330.859C129.885 330.859 130.588 330.078 130.608 328.73C130.588 327.383 129.885 326.582 128.889 326.582ZM139.944 319.023V336.797H137.581V328.242H136.135V336.035H133.811V319.375H136.135V326.25H137.581V319.023H139.944ZM146.323 320.273C149.038 320.273 150.991 322.734 151.011 326.602C150.991 330.508 149.038 332.949 146.323 332.949C143.608 332.949 141.616 330.508 141.636 326.602C141.616 322.734 143.608 320.273 146.323 320.273ZM146.323 322.52C144.956 322.52 144.038 323.965 144.038 326.602C144.038 329.258 144.956 330.684 146.323 330.684C147.71 330.684 148.608 329.258 148.628 326.602C148.608 323.965 147.71 322.52 146.323 322.52ZM158.081 323.145V325.234H155.561V328.398H158.081V330.43H155.561V336.797H153.061V319.023H155.561V323.145H158.081ZM172.527 319.023V325.977H175.144V328.027H172.527V336.797H170.066V319.023H172.527ZM168.855 321.68V323.672H158.405V321.68H162.429V319.297H164.929V321.68H168.855ZM163.679 324.668C166.277 324.668 168.21 326.426 168.21 328.906C168.21 331.387 166.277 333.145 163.679 333.145C161.062 333.145 159.128 331.387 159.128 328.906C159.128 326.426 161.062 324.668 163.679 324.668ZM163.679 326.68C162.429 326.699 161.511 327.539 161.511 328.906C161.511 330.293 162.429 331.113 163.679 331.094C164.929 331.113 165.827 330.293 165.827 328.906C165.827 327.539 164.929 326.699 163.679 326.68ZM189.902 323.867V325.82H177.48V319.648H179.96V323.867H189.902ZM191.718 327.734V329.688H175.449V327.734H191.718ZM190.019 334.414V336.406H177.324V331.133H179.824V334.414H190.019ZM212.934 326.074V328.047H206.059V329.18H210.961V333.73H201.059V334.805H211.43V336.68H198.617V331.973H208.5V331.055H198.598V329.18H203.559V328.047H196.723V326.074H212.934ZM210.883 319.531V325.137H198.735V319.531H210.883ZM201.176 321.465V323.223H208.402V321.465H201.176ZM229.899 327.344V329.316H223.024V330.84H227.965V336.602H215.563V330.84H220.543V329.316H213.688V327.344H229.899ZM228.454 319.512V321.504H226.129V324.219H228.336V326.211H215.231V324.219H217.418V321.504H215.114V319.512H228.454ZM218.024 332.773V334.609H225.524V332.773H218.024ZM219.918 324.219H223.629V321.504H219.918V324.219ZM245.536 319.023V336.836H243.016V319.023H245.536ZM235.887 320.273C238.563 320.273 240.555 322.734 240.555 326.602C240.555 330.508 238.563 332.949 235.887 332.949C233.153 332.949 231.161 330.508 231.18 326.602C231.161 322.734 233.153 320.273 235.887 320.273ZM235.887 322.52C234.501 322.52 233.583 323.965 233.583 326.602C233.583 329.258 234.501 330.684 235.887 330.684C237.235 330.684 238.153 329.258 238.153 326.602C238.153 323.965 237.235 322.52 235.887 322.52ZM258.372 330.43C258.372 331.865 258.968 333.34 260.423 334.316C261.888 333.281 262.533 331.748 262.533 330.43V329.824H264.994V330.43C264.974 332.285 265.97 334.004 268.333 334.727L267.122 336.543C265.423 335.967 264.31 334.883 263.705 333.516C263.109 334.883 262.074 336.074 260.482 336.699C258.802 336.094 257.757 334.941 257.181 333.574C256.556 334.902 255.462 335.977 253.841 336.543L252.611 334.727C254.955 333.926 255.931 332.168 255.951 330.43V329.824H258.372V330.43ZM266.79 319.043V329.082H264.29V319.043H266.79ZM257.044 319.941C259.818 319.941 261.908 321.699 261.908 324.219C261.908 326.699 259.818 328.457 257.044 328.457C254.271 328.457 252.181 326.699 252.181 324.219C252.181 321.699 254.271 319.941 257.044 319.941ZM257.044 322.031C255.619 322.031 254.603 322.852 254.622 324.219C254.603 325.566 255.619 326.387 257.044 326.387C258.431 326.387 259.447 325.566 259.447 324.219C259.447 322.852 258.431 322.031 257.044 322.031ZM285.416 325.762V327.793H282.896V336.758H280.396V319.023H282.896V325.762H285.416ZM271.92 320.723V330.352C274.195 330.322 276.636 330.107 279.205 329.59L279.459 331.66C276.49 332.266 273.599 332.422 270.982 332.422H269.439V320.723H271.92ZM302.108 332.676V334.727H285.838V332.676H289.471V328.32C288.094 327.5 287.264 326.24 287.264 324.668C287.264 321.797 290.076 319.883 293.943 319.883C297.791 319.883 300.623 321.797 300.643 324.668C300.633 326.201 299.822 327.451 298.494 328.281V332.676H302.108ZM293.943 321.855C291.404 321.855 289.725 322.871 289.725 324.668C289.725 326.406 291.404 327.48 293.943 327.48C296.463 327.48 298.162 326.406 298.182 324.668C298.162 322.871 296.463 321.855 293.943 321.855ZM291.932 332.676H295.975V329.219C295.34 329.346 294.656 329.414 293.943 329.414C293.231 329.414 292.557 329.355 291.932 329.219V332.676ZM305.909 330.547C305.928 328.125 306.573 327.363 307.745 326.641C308.584 326.094 309.229 325.488 309.229 324.59C309.229 323.613 308.467 322.969 307.53 322.969C306.612 322.969 305.772 323.574 305.733 324.727H302.959C303.018 321.973 305.049 320.664 307.549 320.664C310.264 320.664 312.198 322.09 312.198 324.492C312.198 326.094 311.377 327.129 310.088 327.891C308.995 328.555 308.506 329.18 308.487 330.547V330.762H305.909V330.547ZM307.256 335.176C306.338 335.176 305.596 334.434 305.616 333.535C305.596 332.637 306.338 331.914 307.256 331.914C308.116 331.914 308.877 332.637 308.877 333.535C308.877 334.434 308.116 335.176 307.256 335.176Z" fill="#565A64"/>
<rect x="1" y="362" width="358" height="184" rx="5" fill="#DEE3EB"/>
<path d="M24.2044 385.766V388.188C25.4856 388.117 26.7825 388.008 28.0013 387.828L28.1106 388.922C24.9388 389.5 21.5481 389.531 19.0481 389.531L18.8606 388.312C19.9856 388.305 21.3138 388.297 22.72 388.25V385.766H24.2044ZM27.345 380.109V381.312H24.2044C24.2825 382.953 25.6106 384.375 27.7044 384.938L27.0169 386.094C25.345 385.617 24.095 384.602 23.47 383.266C22.8528 384.672 21.6263 385.734 19.9388 386.219L19.2356 385.094C21.3216 384.5 22.6341 383.031 22.7044 381.312H19.6106V380.109H22.72V378.438H24.2044V380.109H27.345ZM30.3606 378.328V392.359H28.8763V378.328H30.3606ZM45.1031 389.328V390.547H32.2906V389.328H37.9V386H39.3688V389.328H45.1031ZM39.4 380.281C39.4 382.5 41.8375 384.578 44.5406 385.031L43.9 386.25C41.6344 385.797 39.5484 384.398 38.6188 382.469C37.6969 384.391 35.6344 385.812 33.3844 386.25L32.7281 385.031C35.4156 384.578 37.8375 382.5 37.8375 380.281V379.219H39.4V380.281ZM54.1663 379.688V391H52.4319V381.406H52.3694L49.6663 383.172V381.531L52.4788 379.688H54.1663ZM60.6588 391.156C58.0338 391.156 56.5025 389.047 56.5025 385.344C56.5025 381.672 58.065 379.531 60.6588 379.531C63.2525 379.531 64.815 381.672 64.815 385.344C64.815 389.047 63.2681 391.156 60.6588 391.156ZM60.6588 389.672C62.19 389.672 63.0963 388.172 63.0963 385.344C63.0963 382.531 62.1744 380.984 60.6588 380.984C59.1431 380.984 58.2213 382.531 58.2213 385.344C58.2213 388.172 59.1275 389.672 60.6588 389.672ZM70.6669 382.453C70.6669 384.672 72.12 387.141 74.245 388.141L73.4013 389.297C71.8309 388.539 70.5888 386.961 69.9638 385.125C69.3153 387.133 68.0028 388.859 66.4013 389.656L65.5263 388.484C67.6513 387.469 69.1981 384.828 69.1981 382.453V380.969H66.0419V379.734H73.7138V380.969H70.6669V382.453ZM76.6981 378.328V383.875H78.9481V385.125H76.6981V392.328H75.2138V378.328H76.6981ZM94.48 378.328V392.359H92.9956V378.328H94.48ZM86.9956 379.375C89.0738 379.375 90.605 381.281 90.605 384.281C90.605 387.297 89.0738 389.203 86.9956 389.203C84.8863 389.203 83.3706 387.297 83.3706 384.281C83.3706 381.281 84.8863 379.375 86.9956 379.375ZM86.9956 380.703C85.6988 380.703 84.8081 382.078 84.8081 384.281C84.8081 386.5 85.6988 387.875 86.9956 387.875C88.2769 387.875 89.1675 386.5 89.1675 384.281C89.1675 382.078 88.2769 380.703 86.9956 380.703ZM101.223 380.562C101.223 382.406 102.504 384.109 104.598 384.797L103.801 385.969C102.269 385.43 101.121 384.336 100.519 382.953C99.9022 384.523 98.7147 385.75 97.0819 386.359L96.285 385.172C98.4725 384.391 99.7381 382.531 99.7538 380.438V379.062H101.223V380.562ZM107.394 378.328V381.844H109.426V383.094H107.394V386.781H105.91V378.328H107.394ZM102.879 387.109C105.754 387.109 107.519 388.062 107.519 389.703C107.519 391.359 105.754 392.312 102.879 392.297C99.9725 392.312 98.1756 391.359 98.1756 389.703C98.1756 388.062 99.9725 387.109 102.879 387.109ZM102.879 388.281C100.848 388.281 99.6444 388.812 99.66 389.703C99.6444 390.625 100.848 391.125 102.879 391.141C104.894 391.125 106.066 390.625 106.066 389.703C106.066 388.812 104.894 388.281 102.879 388.281ZM125.098 378.328V385.844H123.614V378.328H125.098ZM117.395 386.516V388.094H123.629V386.516H125.098V392.156H115.942V386.516H117.395ZM117.395 390.938H123.629V389.266H117.395V390.938ZM117.504 378.969C119.645 378.969 121.223 380.297 121.223 382.219C121.223 384.141 119.645 385.469 117.504 385.453C115.364 385.469 113.77 384.141 113.77 382.219C113.77 380.297 115.364 378.969 117.504 378.969ZM117.504 380.219C116.176 380.203 115.223 381.031 115.223 382.219C115.223 383.422 116.176 384.234 117.504 384.234C118.817 384.234 119.77 383.422 119.77 382.219C119.77 381.031 118.817 380.203 117.504 380.219ZM133.669 379.172V383.25H129.044V385.188C131.481 385.195 132.809 385.141 134.388 384.844L134.528 386.047C132.825 386.344 131.388 386.391 128.591 386.391H127.575V382.125H132.184V380.359H127.559V379.172H133.669ZM138.669 378.344V386.953H137.184V384.484H134.559V383.297H137.184V381.562H134.559V380.375H137.184V378.344H138.669ZM138.669 387.656V392.344H137.184V388.859H129.169V387.656H138.669ZM147.427 380.641V381.844H140.474V380.641H143.224V378.734H144.693V380.641H147.427ZM143.958 382.688C145.739 382.688 146.989 384.016 147.005 385.906C146.989 387.812 145.739 389.156 143.958 389.156C142.208 389.156 140.911 387.812 140.927 385.906C140.911 384.016 142.208 382.688 143.958 382.688ZM143.958 383.922C142.943 383.922 142.239 384.75 142.239 385.906C142.239 387.094 142.943 387.891 143.958 387.891C144.958 387.891 145.693 387.094 145.693 385.906C145.693 384.75 144.958 383.922 143.958 383.922ZM152.489 378.328V392.328H151.083V385.375H149.474V391.672H148.068V378.641H149.474V384.156H151.083V378.328H152.489ZM166.779 386.219V387.422H161.091V392.312H159.638V387.422H154.013V386.219H166.779ZM165.576 379.156V380.344H161.247C161.271 382.078 163.427 383.625 166.076 383.984L165.529 385.156C163.232 384.797 161.247 383.664 160.404 382.062C159.537 383.664 157.56 384.797 155.294 385.156L154.732 383.984C157.349 383.625 159.505 382.078 159.56 380.344H155.201V379.156H165.576ZM171.787 382.156C171.787 384.391 172.724 386.781 174.599 387.922L173.771 389.062C172.459 388.273 171.568 386.875 171.099 385.25C170.576 387.031 169.615 388.547 168.256 389.375L167.334 388.266C169.318 387.078 170.349 384.609 170.349 382.219V379.609H171.787V382.156ZM179.568 378.328V392.328H178.146V378.328H179.568ZM176.662 378.594V391.641H175.256V384.484H173.084V383.25H175.256V378.594H176.662ZM193.842 389.344V390.578H181.029V389.344H184.092V385.688C182.943 385.055 182.248 384.047 182.248 382.797C182.248 380.594 184.404 379.141 187.404 379.141C190.42 379.141 192.576 380.594 192.576 382.797C192.576 384.031 191.904 385.023 190.779 385.656V389.344H193.842ZM187.404 380.328C185.201 380.328 183.686 381.281 183.686 382.797C183.686 384.297 185.201 385.281 187.404 385.281C189.592 385.281 191.139 384.297 191.139 382.797C191.139 381.281 189.592 380.328 187.404 380.328ZM185.561 389.344H189.279V386.219C188.709 386.367 188.076 386.438 187.404 386.438C186.748 386.438 186.123 386.367 185.561 386.234V389.344ZM196.131 391.109C195.522 391.109 195.006 390.609 195.022 390C195.006 389.391 195.522 388.891 196.131 388.891C196.725 388.891 197.241 389.391 197.241 390C197.241 390.609 196.725 391.109 196.131 391.109Z" fill="#A3A6AC"/>
</svg>
