<svg width="282" height="100" viewBox="0 0 282 100" fill="none" xmlns="http://www.w3.org/2000/svg">
<path d="M11.9531 8.49219C11.9531 11 14.5078 13.7891 19.4062 14.3984L18.2344 16.8125C14.5078 16.2734 11.7773 14.5508 10.3828 12.2422C8.97656 14.5508 6.26953 16.2734 2.57812 16.8125L1.38281 14.3984C6.23438 13.7891 8.8125 11 8.8125 8.49219V7.46094H11.9531V8.49219ZM20.0859 18.4297V20.8672H11.7891V28.1562H8.83594V20.8672H0.632812V18.4297H20.0859ZM27.0081 7.74219C29.7386 7.71875 31.9066 9.27734 32.4925 11.5625H36.055V6.82812H39.0316V18.2891H36.055V13.9531H32.5159C31.9534 16.2969 29.762 17.8906 27.0081 17.8906C23.7269 17.8906 21.3128 15.7578 21.3363 12.7812C21.3128 9.85156 23.7269 7.71875 27.0081 7.74219ZM27.0081 10.2266C25.3441 10.2031 24.1488 11.1875 24.1722 12.7812C24.1488 14.375 25.3441 15.3828 27.0081 15.3828C28.6253 15.3828 29.7972 14.375 29.7972 12.7812C29.7972 11.1875 28.6253 10.2031 27.0081 10.2266ZM27.7581 19.2266V21.2891H36.055V19.2266H39.0316V27.9219H24.805V19.2266H27.7581ZM27.7581 25.5078H36.055V23.5859H27.7581V25.5078ZM59.9694 6.82812V28.1562H57.11V6.82812H59.9694ZM55.5163 7.13281V27.1719H52.7038V17.0938H50.9928C50.7116 21.2891 48.9303 23.8203 46.3053 23.8203C43.4928 23.8203 41.6647 20.8672 41.6647 16.0625C41.6647 11.2812 43.4928 8.35156 46.3053 8.35156C48.8717 8.35156 50.6295 10.7422 50.9694 14.7266H52.7038V7.13281H55.5163ZM46.3053 11.1641C45.11 11.1641 44.4069 12.8047 44.4303 16.0625C44.4069 19.3438 45.11 20.9609 46.3053 20.9375C47.5241 20.9609 48.2506 19.3438 48.2506 16.0625C48.2506 12.8047 47.5241 11.1641 46.3053 11.1641ZM85.5559 6.82812V28.1562H82.72V17.4453H80.6575V27.125H77.9153V7.17969H80.6575V15.0547H82.72V6.82812H85.5559ZM75.6653 9.28906V11.7031H70.72V20.7969C72.7825 20.7852 74.6106 20.6797 76.6731 20.3047L76.8841 22.7422C74.2825 23.2344 72.0091 23.3047 69.1966 23.3281H67.72V9.28906H75.6653ZM104.455 6.85156V13.3906H107.338V15.8281H104.455V22.7656H101.455V6.85156H104.455ZM100.189 9.07812V11.4453H87.5328V9.07812H92.3844V6.80469H95.3609V9.07812H100.189ZM93.8609 12.1953C96.9547 12.1953 99.1109 13.8594 99.1109 16.3203C99.1109 18.7812 96.9547 20.3984 93.8609 20.3984C90.7438 20.3984 88.5641 18.7812 88.5641 16.3203C88.5641 13.8594 90.7438 12.1953 93.8609 12.1953ZM93.8609 14.4688C92.4313 14.4922 91.4703 15.1484 91.4938 16.3203C91.4703 17.4922 92.4313 18.125 93.8609 18.125C95.2906 18.125 96.275 17.4922 96.275 16.3203C96.275 15.1484 95.2906 14.4922 93.8609 14.4688ZM105.228 25.3906V27.7812H90.6266V21.5469H93.6031V25.3906H105.228ZM120.948 10.1797C120.948 12.7578 122.448 15.2422 125.823 16.2969L124.229 18.6172C121.967 17.8672 120.385 16.4141 119.471 14.5391C118.545 16.6953 116.893 18.3828 114.455 19.2031L112.838 16.8594C116.401 15.6641 117.924 12.8281 117.948 9.89844V7.95312H120.948V10.1797ZM130.088 6.82812V11.8203H132.971V14.3047H130.088V19.4844H127.088V6.82812H130.088ZM123.104 19.9062C127.51 19.9062 130.299 21.4297 130.299 24.0312C130.299 26.6562 127.51 28.1562 123.104 28.1562C118.604 28.1562 115.791 26.6562 115.791 24.0312C115.791 21.4297 118.604 19.9062 123.104 19.9062ZM123.104 22.25C120.291 22.25 118.768 22.8594 118.791 24.0312C118.768 25.25 120.291 25.8125 123.104 25.8125C125.869 25.8125 127.346 25.25 127.346 24.0312C127.346 22.8594 125.869 22.25 123.104 22.25ZM140.432 12.1953C140.432 15.6406 141.393 19.2031 144.299 21.0781L142.682 23.3984C140.842 22.2852 139.67 20.457 139.003 18.2656C138.229 20.6797 136.952 22.6953 135.018 23.8672L133.19 21.6641C136.354 19.6953 137.526 15.9453 137.526 12.3359V8.65625H140.432V12.1953ZM152.081 6.82812V28.1562H149.221V6.82812H152.081ZM147.604 7.13281V27.1719H144.815V16.4609H142.049V14.0234H144.815V7.13281H147.604ZM170.932 6.85156V13.3906H173.815V15.8281H170.932V22.7656H167.932V6.85156H170.932ZM166.667 9.07812V11.4453H154.011V9.07812H158.862V6.80469H161.839V9.07812H166.667ZM160.339 12.1953C163.432 12.1953 165.589 13.8594 165.589 16.3203C165.589 18.7812 163.432 20.3984 160.339 20.3984C157.222 20.3984 155.042 18.7812 155.042 16.3203C155.042 13.8594 157.222 12.1953 160.339 12.1953ZM160.339 14.4688C158.909 14.4922 157.948 15.1484 157.972 16.3203C157.948 17.4922 158.909 18.125 160.339 18.125C161.768 18.125 162.753 17.4922 162.753 16.3203C162.753 15.1484 161.768 14.4922 160.339 14.4688ZM171.706 25.3906V27.7812H157.104V21.5469H160.081V25.3906H171.706ZM197.621 6.82812V17.6797H194.644V12.3828H190.636V10.0156H194.644V6.82812H197.621ZM197.621 18.5703V24.2656H186.417V25.5781H198.23V27.9219H183.464V22.0859H194.667V20.8672H183.441V18.5703H197.621ZM187.636 9.07812C187.613 11.6328 189.113 14.0938 192.511 15.1016L190.941 17.3984C188.656 16.6602 187.062 15.2305 186.136 13.3906C185.21 15.4414 183.523 17.0586 181.027 17.8438L179.48 15.4766C183.019 14.4453 184.589 11.8438 184.613 9.07812V7.53125H187.636V9.07812ZM218.043 6.82812V19.3203H215.066V16.6016H211.082V18.1484H200.957V8.39844H211.082V9.94531H215.066V6.82812H218.043ZM203.933 10.7656V15.7812H208.152V10.7656H203.933ZM210.754 19.8828C215.301 19.8828 218.09 21.4062 218.113 24.0312C218.09 26.6562 215.301 28.1562 210.754 28.1562C206.207 28.1562 203.418 26.6562 203.418 24.0312C203.418 21.4062 206.207 19.8828 210.754 19.8828ZM210.754 22.1562C207.918 22.1562 206.394 22.7656 206.394 24.0312C206.394 25.25 207.918 25.8828 210.754 25.8828C213.59 25.8828 215.137 25.25 215.137 24.0312C215.137 22.7656 213.59 22.1562 210.754 22.1562ZM211.082 14.1875H215.066V12.3125H211.082V14.1875ZM230.215 7.13281C235.113 7.13281 237.949 8.42188 237.973 10.7656C237.949 13.1328 235.113 14.4219 230.215 14.4219C225.293 14.4219 222.434 13.1328 222.434 10.7656C222.434 8.42188 225.293 7.13281 230.215 7.13281ZM230.215 9.3125C227.074 9.3125 225.551 9.82812 225.574 10.7656C225.551 11.8203 227.074 12.2188 230.215 12.2188C233.379 12.2188 234.879 11.8203 234.879 10.7656C234.879 9.82812 233.379 9.3125 230.215 9.3125ZM239.942 15.4297V17.7969H220.488V15.4297H239.942ZM237.574 19.0391V24.4766H225.692V25.7656H238.137V28.0156H222.762V22.3906H234.621V21.2188H222.738V19.0391H237.574ZM18.5625 40.8281V62.1562H15.5391V40.8281H18.5625ZM12.1641 43.0547C12.1641 49.5234 9.89062 54.8906 2.27344 58.5L0.703125 56.1094C6.21094 53.5078 8.63672 50.1328 9.11719 45.3984H1.85156V43.0547H12.1641ZM39.6644 40.8281V62.1562H36.805V51.4688H35.0003V61.1719H32.1644V55.0547L30.4769 57.3047C28.4964 56.2617 27.2191 54.4922 26.4691 52.2891C25.7542 54.8203 24.4886 56.8711 22.4613 58.0781L20.6097 55.7812C23.8441 53.9531 24.9456 50.1797 24.9456 46.1016V45.4219H21.3363V43.0312H31.1097V45.4219H27.8519V46.1016C27.8519 49.8164 28.9534 53.3555 32.1644 55.0078V41.1328H35.0003V49.0312H36.805V40.8281H39.6644ZM51.7663 44.0859V46.4531H41.4538V44.0859H45.1569V41.4141H48.11V44.0859H51.7663ZM46.6569 47.4141C49.3756 47.4141 51.3209 49.5234 51.3444 52.4766C51.3209 55.4531 49.3756 57.5625 46.6569 57.5625C43.9381 57.5625 41.9459 55.4531 41.9459 52.4766C41.9459 49.5234 43.9381 47.4141 46.6569 47.4141ZM46.6569 49.8984C45.4147 49.8984 44.5709 50.8594 44.5709 52.4766C44.5709 54.0938 45.4147 55.0312 46.6569 55.0312C47.8522 55.0312 48.6959 54.0938 48.7194 52.4766C48.6959 50.8594 47.8522 49.8984 46.6569 49.8984ZM59.9225 40.8281V62.1562H57.0866V51.8906H55.3522V61.2422H52.5631V41.25H55.3522V49.5H57.0866V40.8281H59.9225ZM81.3525 52.5938V54.9844H73.0556V62.1562H70.1025V54.9844H61.8994V52.5938H81.3525ZM79.6181 41.9531V44.2969H73.4072C73.7002 46.3828 76.0556 48.4805 80.4384 49.0078L79.3603 51.3516C75.6103 50.8477 72.9267 49.2422 71.6494 47.0391C70.3369 49.2422 67.6767 50.8477 63.9619 51.3516L62.8603 49.0078C67.1728 48.4805 69.5517 46.3828 69.8916 44.2969H63.6572V41.9531H79.6181ZM89.1653 46.1953C89.1653 49.6406 90.1263 53.2031 93.0325 55.0781L91.4153 57.3984C89.5755 56.2852 88.4036 54.457 87.7356 52.2656C86.9622 54.6797 85.6848 56.6953 83.7513 57.8672L81.9231 55.6641C85.0872 53.6953 86.2591 49.9453 86.2591 46.3359V42.6562H89.1653V46.1953ZM100.814 40.8281V62.1562H97.9544V40.8281H100.814ZM96.3372 41.1328V61.1719H93.5481V50.4609H90.7825V48.0234H93.5481V41.1328H96.3372ZM122.267 57.2109V59.6719H102.744V57.2109H107.103V51.9844C105.451 51 104.455 49.4883 104.455 47.6016C104.455 44.1562 107.83 41.8594 112.47 41.8594C117.088 41.8594 120.486 44.1562 120.509 47.6016C120.498 49.4414 119.525 50.9414 117.931 51.9375V57.2109H122.267ZM112.47 44.2266C109.423 44.2266 107.408 45.4453 107.408 47.6016C107.408 49.6875 109.423 50.9766 112.47 50.9766C115.494 50.9766 117.533 49.6875 117.556 47.6016C117.533 45.4453 115.494 44.2266 112.47 44.2266ZM110.056 57.2109H114.908V53.0625C114.146 53.2148 113.326 53.2969 112.47 53.2969C111.615 53.2969 110.806 53.2266 110.056 53.0625V57.2109ZM125.932 60.2109C124.83 60.2109 123.939 59.3203 123.963 58.2422C123.939 57.1641 124.83 56.2969 125.932 56.2969C126.963 56.2969 127.877 57.1641 127.877 58.2422C127.877 59.3203 126.963 60.2109 125.932 60.2109Z" fill="#27292F"/>
<circle cx="4" cy="96" r="4" fill="#DEE3EB"/>
<circle cx="28" cy="96" r="4" fill="#DEE3EB"/>
<circle cx="52" cy="96" r="4" fill="#007AFF"/>
</svg>
