<svg width="282" height="100" viewBox="0 0 282 100" fill="none" xmlns="http://www.w3.org/2000/svg">
<path d="M11.9531 8.49219C11.9531 11 14.5078 13.7891 19.4062 14.3984L18.2344 16.8125C14.5078 16.2734 11.7773 14.5508 10.3828 12.2422C8.97656 14.5508 6.26953 16.2734 2.57812 16.8125L1.38281 14.3984C6.23438 13.7891 8.8125 11 8.8125 8.49219V7.46094H11.9531V8.49219ZM20.0859 18.4297V20.8672H11.7891V28.1562H8.83594V20.8672H0.632812V18.4297H20.0859ZM27.0081 7.74219C29.7386 7.71875 31.9066 9.27734 32.4925 11.5625H36.055V6.82812H39.0316V18.2891H36.055V13.9531H32.5159C31.9534 16.2969 29.762 17.8906 27.0081 17.8906C23.7269 17.8906 21.3128 15.7578 21.3363 12.7812C21.3128 9.85156 23.7269 7.71875 27.0081 7.74219ZM27.0081 10.2266C25.3441 10.2031 24.1488 11.1875 24.1722 12.7812C24.1488 14.375 25.3441 15.3828 27.0081 15.3828C28.6253 15.3828 29.7972 14.375 29.7972 12.7812C29.7972 11.1875 28.6253 10.2031 27.0081 10.2266ZM27.7581 19.2266V21.2891H36.055V19.2266H39.0316V27.9219H24.805V19.2266H27.7581ZM27.7581 25.5078H36.055V23.5859H27.7581V25.5078ZM63.5166 6.82812V15.0078H66.54V17.4688H63.5166V28.1094H60.5166V6.82812H63.5166ZM57.8213 9.00781C57.7978 15.3828 55.3134 20.9141 48.1416 24.4297L46.4541 22.1328C51.5048 19.6016 54.2119 16.2031 54.7744 11.4453H47.6728V9.00781H57.8213ZM84.4075 12.1719V14.5625H69.5716V7.15625H72.5481V12.1719H84.4075ZM86.6106 16.3906V18.8281H67.1106V16.3906H86.6106ZM76.8138 20.1641C81.4309 20.1875 84.22 21.6172 84.2434 24.125C84.22 26.6562 81.4309 28.0859 76.8138 28.0859C72.1497 28.0859 69.3372 26.6562 69.3372 24.125C69.3372 21.6172 72.1497 20.1875 76.8138 20.1641ZM76.8138 22.4844C73.8606 22.5078 72.3606 23 72.3841 24.125C72.3606 25.2266 73.8606 25.8125 76.8138 25.8125C79.6966 25.8125 81.22 25.2266 81.2434 24.125C81.22 23 79.6966 22.5078 76.8138 22.4844ZM104.455 6.85156V13.3906H107.338V15.8281H104.455V22.7656H101.455V6.85156H104.455ZM100.189 9.07812V11.4453H87.5328V9.07812H92.3844V6.80469H95.3609V9.07812H100.189ZM93.8609 12.1953C96.9547 12.1953 99.1109 13.8594 99.1109 16.3203C99.1109 18.7812 96.9547 20.3984 93.8609 20.3984C90.7438 20.3984 88.5641 18.7812 88.5641 16.3203C88.5641 13.8594 90.7438 12.1953 93.8609 12.1953ZM93.8609 14.4688C92.4313 14.4922 91.4703 15.1484 91.4938 16.3203C91.4703 17.4922 92.4313 18.125 93.8609 18.125C95.2906 18.125 96.275 17.4922 96.275 16.3203C96.275 15.1484 95.2906 14.4922 93.8609 14.4688ZM105.228 25.3906V27.7812H90.6266V21.5469H93.6031V25.3906H105.228ZM132.69 23.2109V25.6719H113.166V23.2109H117.526V17.9844C115.873 17 114.877 15.4883 114.877 13.6016C114.877 10.1562 118.252 7.85938 122.893 7.85938C127.51 7.85938 130.908 10.1562 130.932 13.6016C130.92 15.4414 129.948 16.9414 128.354 17.9375V23.2109H132.69ZM122.893 10.2266C119.846 10.2266 117.83 11.4453 117.83 13.6016C117.83 15.6875 119.846 16.9766 122.893 16.9766C125.916 16.9766 127.955 15.6875 127.979 13.6016C127.955 11.4453 125.916 10.2266 122.893 10.2266ZM120.479 23.2109H125.33V19.0625C124.569 19.2148 123.748 19.2969 122.893 19.2969C122.037 19.2969 121.229 19.2266 120.479 19.0625V23.2109ZM139.659 7.46094C142.893 7.46094 145.354 9.47656 145.354 12.3359C145.354 15.1484 142.893 17.1875 139.659 17.1875C136.354 17.1875 133.917 15.1484 133.917 12.3359C133.917 9.47656 136.354 7.46094 139.659 7.46094ZM139.659 9.89844C138.018 9.89844 136.799 10.7891 136.823 12.3359C136.799 13.8594 138.018 14.7734 139.659 14.7734C141.276 14.7734 142.471 13.8594 142.471 12.3359C142.471 10.7891 141.276 9.89844 139.659 9.89844ZM151.448 6.82812V17.5156H148.448V6.82812H151.448ZM151.448 18.4062V24.1953H140.104V25.5781H152.034V27.9219H137.174V22.0156H148.471V20.7031H137.128V18.4062H151.448ZM166.011 8.96094V10.6719C165.987 12.6875 165.987 15.3125 165.425 18.8516L162.472 18.6172C162.952 15.5234 162.999 13.2383 163.034 11.3516H154.948V8.96094H166.011ZM160.69 15.0781V21.2656C162.788 21.1836 164.921 21.0312 166.878 20.7734L167.065 23C162.682 23.75 157.831 23.8203 154.104 23.7969L153.823 21.4062C155.018 21.3945 156.354 21.3945 157.737 21.3594V15.0781H160.69ZM170.909 6.82812V15.4062H173.815V17.8906H170.909V28.1562H167.886V6.82812H170.909ZM187.941 11.6562C187.941 15.5703 189.722 19.5078 193.332 21.0312L191.574 23.4219C189.136 22.3203 187.449 20.1992 186.488 17.5625C185.515 20.4336 183.769 22.7539 181.167 23.9375L179.363 21.4531C183.089 19.8828 184.894 15.8047 184.917 11.6562V8.46875H187.941V11.6562ZM197.503 6.82812V28.2031H194.48V6.82812H197.503ZM216.988 6.82812V12.8047H219.871V15.2656H216.988V22.1094H213.965V6.82812H216.988ZM211.176 8.42188C211.176 14.1875 207.566 18.2188 201.168 20.0234L199.926 17.6562C204.695 16.3203 207.402 13.8477 207.894 10.8594H200.863V8.42188H211.176ZM217.715 25.3906V27.7812H203.113V20.5391H206.137V25.3906H217.715ZM230.215 7.13281C235.113 7.13281 237.949 8.42188 237.973 10.7656C237.949 13.1328 235.113 14.4219 230.215 14.4219C225.293 14.4219 222.434 13.1328 222.434 10.7656C222.434 8.42188 225.293 7.13281 230.215 7.13281ZM230.215 9.3125C227.074 9.3125 225.551 9.82812 225.574 10.7656C225.551 11.8203 227.074 12.2188 230.215 12.2188C233.379 12.2188 234.879 11.8203 234.879 10.7656C234.879 9.82812 233.379 9.3125 230.215 9.3125ZM239.942 15.4297V17.7969H220.488V15.4297H239.942ZM237.574 19.0391V24.4766H225.692V25.7656H238.137V28.0156H222.762V22.3906H234.621V21.2188H222.738V19.0391H237.574ZM18.4922 40.8281V52.2891H15.4922V40.8281H18.4922ZM7.17188 53.2266V55.2188H15.5156V53.2266H18.4922V61.9219H4.21875V53.2266H7.17188ZM7.17188 59.5078H15.5156V57.5391H7.17188V59.5078ZM6.79688 41.7188C10.125 41.6953 12.6328 43.7812 12.6328 46.7812C12.6328 49.6875 10.125 51.7734 6.79688 51.7734C3.46875 51.7734 0.960938 49.6875 0.960938 46.7812C0.960938 43.7812 3.46875 41.6953 6.79688 41.7188ZM6.79688 44.2031C5.08594 44.2031 3.86719 45.1641 3.89062 46.7812C3.86719 48.375 5.08594 49.3125 6.79688 49.3125C8.46094 49.3125 9.67969 48.375 9.67969 46.7812C9.67969 45.1641 8.46094 44.2031 6.79688 44.2031ZM31.2972 42.0703V48.7266H24.8519V51C28.0277 51 29.9027 50.8945 32.0706 50.4844L32.3519 52.875C29.8675 53.3203 27.6175 53.3906 23.4925 53.3906H21.8988V46.5H28.2972V44.4141H21.8519V42.0703H31.2972ZM39.0316 40.8516V53.9766H36.055V50.6953H32.5159V48.3281H36.055V46.1719H32.5159V43.8047H36.055V40.8516H39.0316ZM39.0316 54.9375V62.1562H36.055V57.3281H24.3363V54.9375H39.0316ZM51.7663 44.0859V46.4531H41.4538V44.0859H45.1569V41.4141H48.11V44.0859H51.7663ZM46.6569 47.4141C49.3756 47.4141 51.3209 49.5234 51.3444 52.4766C51.3209 55.4531 49.3756 57.5625 46.6569 57.5625C43.9381 57.5625 41.9459 55.4531 41.9459 52.4766C41.9459 49.5234 43.9381 47.4141 46.6569 47.4141ZM46.6569 49.8984C45.4147 49.8984 44.5709 50.8594 44.5709 52.4766C44.5709 54.0938 45.4147 55.0312 46.6569 55.0312C47.8522 55.0312 48.6959 54.0938 48.7194 52.4766C48.6959 50.8594 47.8522 49.8984 46.6569 49.8984ZM59.9225 40.8281V62.1562H57.0866V51.8906H55.3522V61.2422H52.5631V41.25H55.3522V49.5H57.0866V40.8281H59.9225ZM81.3525 52.5938V54.9844H73.0556V62.1562H70.1025V54.9844H61.8994V52.5938H81.3525ZM79.6181 41.9531V44.2969H73.4072C73.7002 46.3828 76.0556 48.4805 80.4384 49.0078L79.3603 51.3516C75.6103 50.8477 72.9267 49.2422 71.6494 47.0391C70.3369 49.2422 67.6767 50.8477 63.9619 51.3516L62.8603 49.0078C67.1728 48.4805 69.5517 46.3828 69.8916 44.2969H63.6572V41.9531H79.6181ZM89.1653 46.1953C89.1653 49.6406 90.1263 53.2031 93.0325 55.0781L91.4153 57.3984C89.5755 56.2852 88.4036 54.457 87.7356 52.2656C86.9622 54.6797 85.6848 56.6953 83.7513 57.8672L81.9231 55.6641C85.0872 53.6953 86.2591 49.9453 86.2591 46.3359V42.6562H89.1653V46.1953ZM100.814 40.8281V62.1562H97.9544V40.8281H100.814ZM96.3372 41.1328V61.1719H93.5481V50.4609H90.7825V48.0234H93.5481V41.1328H96.3372ZM122.267 57.2109V59.6719H102.744V57.2109H107.103V51.9844C105.451 51 104.455 49.4883 104.455 47.6016C104.455 44.1562 107.83 41.8594 112.47 41.8594C117.088 41.8594 120.486 44.1562 120.509 47.6016C120.498 49.4414 119.525 50.9414 117.931 51.9375V57.2109H122.267ZM112.47 44.2266C109.423 44.2266 107.408 45.4453 107.408 47.6016C107.408 49.6875 109.423 50.9766 112.47 50.9766C115.494 50.9766 117.533 49.6875 117.556 47.6016C117.533 45.4453 115.494 44.2266 112.47 44.2266ZM110.056 57.2109H114.908V53.0625C114.146 53.2148 113.326 53.2969 112.47 53.2969C111.615 53.2969 110.806 53.2266 110.056 53.0625V57.2109ZM125.932 60.2109C124.83 60.2109 123.939 59.3203 123.963 58.2422C123.939 57.1641 124.83 56.2969 125.932 56.2969C126.963 56.2969 127.877 57.1641 127.877 58.2422C127.877 59.3203 126.963 60.2109 125.932 60.2109Z" fill="#27292F"/>
<circle cx="4" cy="96" r="4" fill="#DEE3EB"/>
<circle cx="28" cy="96" r="4" fill="#007AFF"/>
<circle cx="52" cy="96" r="4" fill="#DEE3EB"/>
</svg>
