<svg width="282" height="100" viewBox="0 0 282 100" fill="none" xmlns="http://www.w3.org/2000/svg">
<path d="M19.0312 6.82812V28.1562H16.1484V17.3047H14.2031V27.2188H11.4141V7.39062H14.2031V14.9141H16.1484V6.82812H19.0312ZM9.91406 9.45312C9.89062 15.4062 8.10938 20.2812 2.10938 23.7734L0.375 21.7109C4.72266 19.1562 6.58594 16.0273 7.00781 11.8438H1.45312V9.45312H9.91406ZM39.0316 6.82812V17.6797H36.055V12.3828H32.0472V10.0156H36.055V6.82812H39.0316ZM39.0316 18.5703V24.2656H27.8284V25.5781H39.6409V27.9219H24.8753V22.0859H36.0784V20.8672H24.8519V18.5703H39.0316ZM29.0472 9.07812C29.0238 11.6328 30.5238 14.0938 33.9222 15.1016L32.3519 17.3984C30.0667 16.6602 28.473 15.2305 27.5472 13.3906C26.6214 15.4414 24.9339 17.0586 22.4378 17.8438L20.8909 15.4766C24.43 14.4453 26.0003 11.8438 26.0238 9.07812V7.53125H29.0472V9.07812ZM58.3053 6.82812V15.1719H61.4459V17.6328H58.3053V28.1562H55.3522V6.82812H58.3053ZM53.8991 10.0156V12.4062H41.36V10.0156H46.1881V7.15625H49.1881V10.0156H53.8991ZM47.6881 13.6016C50.8053 13.6016 53.1256 15.7109 53.1256 18.6875C53.1256 21.6641 50.8053 23.7734 47.6881 23.7734C44.5475 23.7734 42.2272 21.6641 42.2272 18.6875C42.2272 15.7109 44.5475 13.6016 47.6881 13.6016ZM47.6881 16.0156C46.1881 16.0391 45.0866 17.0469 45.0866 18.6875C45.0866 20.3516 46.1881 21.3359 47.6881 21.3125C49.1881 21.3359 50.2663 20.3516 50.2663 18.6875C50.2663 17.0469 49.1881 16.0391 47.6881 16.0156ZM79.4775 8.67969V10.6953C79.4775 13.3672 79.4775 16.3672 78.6103 20.8906L75.6103 20.5859C76.4189 16.5547 76.4541 13.5547 76.4775 11.0469H63.915V8.67969H79.4775ZM81.3525 23.1172V25.5547H61.8994V23.1172H68.8603V15.7812H71.8369V23.1172H81.3525ZM90.1966 12.6406C90.1731 15.8984 91.9075 19.6484 95.4231 21.2656L93.7591 23.6094C91.3802 22.5195 89.6809 20.3398 88.7434 17.7734C87.7825 20.5977 86.0364 22.9883 83.5638 24.1484L81.8294 21.7812C85.3919 20.1172 87.1731 16.1562 87.1966 12.6406V11.3281H82.6731V8.89062H94.4856V11.3281H90.1966V12.6406ZM99.1497 6.82812V14.9609H102.29V17.4688H99.1497V28.1562H96.1497V6.82812H99.1497ZM124.783 6.82812V15.1719H127.924V17.6328H124.783V28.1562H121.83V6.82812H124.783ZM120.377 10.0156V12.4062H107.838V10.0156H112.666V7.15625H115.666V10.0156H120.377ZM114.166 13.6016C117.283 13.6016 119.603 15.7109 119.603 18.6875C119.603 21.6641 117.283 23.7734 114.166 23.7734C111.025 23.7734 108.705 21.6641 108.705 18.6875C108.705 15.7109 111.025 13.6016 114.166 13.6016ZM114.166 16.0156C112.666 16.0391 111.564 17.0469 111.564 18.6875C111.564 20.3516 112.666 21.3359 114.166 21.3125C115.666 21.3359 116.744 20.3516 116.744 18.6875C116.744 17.0469 115.666 16.0391 114.166 16.0156ZM145.698 12.6406V14.9844H130.791V7.57812H133.768V12.6406H145.698ZM147.877 17.2812V19.625H128.354V17.2812H147.877ZM145.838 25.2969V27.6875H130.604V21.3594H133.604V25.2969H145.838ZM165.331 8.49219C165.331 11 167.886 13.7891 172.784 14.3984L171.612 16.8125C167.886 16.2734 165.155 14.5508 163.761 12.2422C162.354 14.5508 159.647 16.2734 155.956 16.8125L154.761 14.3984C159.612 13.7891 162.19 11 162.19 8.49219V7.46094H165.331V8.49219ZM173.464 18.4297V20.8672H165.167V28.1562H162.214V20.8672H154.011V18.4297H173.464ZM180.386 7.74219C183.116 7.71875 185.284 9.27734 185.87 11.5625H189.433V6.82812H192.409V18.2891H189.433V13.9531H185.894C185.331 16.2969 183.14 17.8906 180.386 17.8906C177.105 17.8906 174.691 15.7578 174.714 12.7812C174.691 9.85156 177.105 7.71875 180.386 7.74219ZM180.386 10.2266C178.722 10.2031 177.527 11.1875 177.55 12.7812C177.527 14.375 178.722 15.3828 180.386 15.3828C182.003 15.3828 183.175 14.375 183.175 12.7812C183.175 11.1875 182.003 10.2031 180.386 10.2266ZM181.136 19.2266V21.2891H189.433V19.2266H192.409V27.9219H178.183V19.2266H181.136ZM181.136 25.5078H189.433V23.5859H181.136V25.5078ZM212.714 6.82812V28.2031H209.691V6.82812H212.714ZM201.136 8.32812C204.347 8.32812 206.738 11.2812 206.738 15.9219C206.738 20.6094 204.347 23.5391 201.136 23.5391C197.855 23.5391 195.464 20.6094 195.488 15.9219C195.464 11.2812 197.855 8.32812 201.136 8.32812ZM201.136 11.0234C199.472 11.0234 198.371 12.7578 198.371 15.9219C198.371 19.1094 199.472 20.8203 201.136 20.8203C202.753 20.8203 203.855 19.1094 203.855 15.9219C203.855 12.7578 202.753 11.0234 201.136 11.0234ZM234.777 17.5859V19.9531H215.254V17.5859H234.777ZM232.41 7.22656V12.9219H220.668V14.1641H232.808V16.4375H217.691V10.7656H229.41V9.52344H217.644V7.22656H232.41ZM232.504 21.2656V27.9219H217.762V21.2656H232.504ZM220.691 23.6328V25.5312H229.527V23.6328H220.691ZM245.426 7.13281C250.324 7.13281 253.16 8.42188 253.184 10.7656C253.16 13.1328 250.324 14.4219 245.426 14.4219C240.504 14.4219 237.645 13.1328 237.645 10.7656C237.645 8.42188 240.504 7.13281 245.426 7.13281ZM245.426 9.3125C242.285 9.3125 240.762 9.82812 240.785 10.7656C240.762 11.8203 242.285 12.2188 245.426 12.2188C248.59 12.2188 250.09 11.8203 250.09 10.7656C250.09 9.82812 248.59 9.3125 245.426 9.3125ZM255.152 15.4297V17.7969H235.699V15.4297H255.152ZM252.785 19.0391V24.4766H240.902V25.7656H253.348V28.0156H237.973V22.3906H249.832V21.2188H237.949V19.0391H252.785ZM18.4922 40.8281V52.2891H15.4922V40.8281H18.4922ZM7.17188 53.2266V55.2188H15.5156V53.2266H18.4922V61.9219H4.21875V53.2266H7.17188ZM7.17188 59.5078H15.5156V57.5391H7.17188V59.5078ZM6.79688 41.7188C10.125 41.6953 12.6328 43.7812 12.6328 46.7812C12.6328 49.6875 10.125 51.7734 6.79688 51.7734C3.46875 51.7734 0.960938 49.6875 0.960938 46.7812C0.960938 43.7812 3.46875 41.6953 6.79688 41.7188ZM6.79688 44.2031C5.08594 44.2031 3.86719 45.1641 3.89062 46.7812C3.86719 48.375 5.08594 49.3125 6.79688 49.3125C8.46094 49.3125 9.67969 48.375 9.67969 46.7812C9.67969 45.1641 8.46094 44.2031 6.79688 44.2031ZM31.2972 42.0703V48.7266H24.8519V51C28.0277 51 29.9027 50.8945 32.0706 50.4844L32.3519 52.875C29.8675 53.3203 27.6175 53.3906 23.4925 53.3906H21.8988V46.5H28.2972V44.4141H21.8519V42.0703H31.2972ZM39.0316 40.8516V53.9766H36.055V50.6953H32.5159V48.3281H36.055V46.1719H32.5159V43.8047H36.055V40.8516H39.0316ZM39.0316 54.9375V62.1562H36.055V57.3281H24.3363V54.9375H39.0316ZM51.7663 44.0859V46.4531H41.4538V44.0859H45.1569V41.4141H48.11V44.0859H51.7663ZM46.6569 47.4141C49.3756 47.4141 51.3209 49.5234 51.3444 52.4766C51.3209 55.4531 49.3756 57.5625 46.6569 57.5625C43.9381 57.5625 41.9459 55.4531 41.9459 52.4766C41.9459 49.5234 43.9381 47.4141 46.6569 47.4141ZM46.6569 49.8984C45.4147 49.8984 44.5709 50.8594 44.5709 52.4766C44.5709 54.0938 45.4147 55.0312 46.6569 55.0312C47.8522 55.0312 48.6959 54.0938 48.7194 52.4766C48.6959 50.8594 47.8522 49.8984 46.6569 49.8984ZM59.9225 40.8281V62.1562H57.0866V51.8906H55.3522V61.2422H52.5631V41.25H55.3522V49.5H57.0866V40.8281H59.9225ZM81.3525 52.5938V54.9844H73.0556V62.1562H70.1025V54.9844H61.8994V52.5938H81.3525ZM79.6181 41.9531V44.2969H73.4072C73.7002 46.3828 76.0556 48.4805 80.4384 49.0078L79.3603 51.3516C75.6103 50.8477 72.9267 49.2422 71.6494 47.0391C70.3369 49.2422 67.6767 50.8477 63.9619 51.3516L62.8603 49.0078C67.1728 48.4805 69.5517 46.3828 69.8916 44.2969H63.6572V41.9531H79.6181ZM89.1653 46.1953C89.1653 49.6406 90.1263 53.2031 93.0325 55.0781L91.4153 57.3984C89.5755 56.2852 88.4036 54.457 87.7356 52.2656C86.9622 54.6797 85.6848 56.6953 83.7513 57.8672L81.9231 55.6641C85.0872 53.6953 86.2591 49.9453 86.2591 46.3359V42.6562H89.1653V46.1953ZM100.814 40.8281V62.1562H97.9544V40.8281H100.814ZM96.3372 41.1328V61.1719H93.5481V50.4609H90.7825V48.0234H93.5481V41.1328H96.3372ZM122.267 57.2109V59.6719H102.744V57.2109H107.103V51.9844C105.451 51 104.455 49.4883 104.455 47.6016C104.455 44.1562 107.83 41.8594 112.47 41.8594C117.088 41.8594 120.486 44.1562 120.509 47.6016C120.498 49.4414 119.525 50.9414 117.931 51.9375V57.2109H122.267ZM112.47 44.2266C109.423 44.2266 107.408 45.4453 107.408 47.6016C107.408 49.6875 109.423 50.9766 112.47 50.9766C115.494 50.9766 117.533 49.6875 117.556 47.6016C117.533 45.4453 115.494 44.2266 112.47 44.2266ZM110.056 57.2109H114.908V53.0625C114.146 53.2148 113.326 53.2969 112.47 53.2969C111.615 53.2969 110.806 53.2266 110.056 53.0625V57.2109ZM125.932 60.2109C124.83 60.2109 123.939 59.3203 123.963 58.2422C123.939 57.1641 124.83 56.2969 125.932 56.2969C126.963 56.2969 127.877 57.1641 127.877 58.2422C127.877 59.3203 126.963 60.2109 125.932 60.2109Z" fill="#27292F"/>
<circle cx="4" cy="96" r="4" fill="#007AFF"/>
<circle cx="28" cy="96" r="4" fill="#DEE3EB"/>
<circle cx="52" cy="96" r="4" fill="#DEE3EB"/>
</svg>
