<svg width="16" height="18" viewBox="0 0 16 18" fill="none" xmlns="http://www.w3.org/2000/svg">
<path d="M7.20363 3.45096C7.4543 2.6795 8.5457 2.67951 8.79637 3.45096L9.60812 5.94927C9.72021 6.29428 10.0417 6.52786 10.4045 6.52786H13.0314C13.8425 6.52786 14.1798 7.56586 13.5235 8.04264L11.3984 9.58668C11.1049 9.79991 10.9821 10.1779 11.0942 10.5229L11.9059 13.0212C12.1566 13.7926 11.2736 14.4341 10.6174 13.9574L8.49218 12.4133C8.1987 12.2001 7.8013 12.2001 7.50782 12.4133L5.38263 13.9574C4.72639 14.4341 3.84342 13.7926 4.09408 13.0212L4.90583 10.5229C5.01793 10.1779 4.89513 9.79991 4.60165 9.58668L2.47646 8.04264C1.82022 7.56585 2.15748 6.52786 2.96864 6.52786H5.59552C5.95828 6.52786 6.27979 6.29428 6.39188 5.94927L7.20363 3.45096Z" fill="#565A64"/>
</svg>
